<?xml version="1.0" standalone="yes"?>

<svg version="1.1" viewBox="0.0 0.0 960.0 540.0" fill="none" stroke="none" stroke-linecap="square" stroke-miterlimit="10" xmlns="http://www.w3.org/2000/svg" xmlns:xlink="http://www.w3.org/1999/xlink"><clipPath id="g1858cd17d3_0_431.0"><path d="m0 0l960.0 0l0 540.0l-960.0 0l0 -540.0z" clip-rule="nonzero"></path></clipPath><g clip-path="url(#g1858cd17d3_0_431.0)"><path fill="#ffffff" d="m0 0l960.0 0l0 540.0l-960.0 0z" fill-rule="nonzero"></path><path fill="#ffffff" d="m0 0l960.0 0l0 540.0l-960.0 0z" fill-rule="nonzero"></path><path fill="#000000" fill-opacity="0.0" d="m48.958004 37.164803l69.291336 0" fill-rule="nonzero"></path><path stroke="#000000" stroke-width="8.0" stroke-linejoin="round" stroke-linecap="butt" d="m48.958004 37.164803l69.291336 0" fill-rule="nonzero"></path><path fill="#000000" fill-opacity="0.0" d="m36.671917 47.256664l409.25986 0l0 432.06302l-409.25986 0z" fill-rule="nonzero"></path><path fill="#000000" d="m49.078167 102.33666l0 -34.359375l10.375 0l6.234371 23.4375l6.171875 -23.4375l10.40625 0l0 34.359375l-6.453125 0l0 -27.046875l-6.8125 27.046875l-6.687496 0l-6.796875 -27.046875l0 27.046875l-6.4375 0zm54.437496 -7.921875l6.5625 1.09375q-1.265625 3.609375 -4.0 5.5q-2.71875 1.890625 -6.828125 1.890625q-6.484375 0 -9.609375 -4.25q-2.453125 -3.390625 -2.453125 -8.578125q0 -6.1875 3.234375 -9.6875q3.234375 -3.5 8.171875 -3.5q5.5625 0 8.765625 3.671875q3.21875 3.65625 3.078125 11.234375l-16.5 0q0.0625 2.921875 1.578125 4.5625q1.53125 1.625 3.8125 1.625q1.546875 0 2.59375 -0.84375q1.0625 -0.84375 1.59375 -2.71875zm0.375 -6.65625q-0.0625 -2.859375 -1.46875 -4.34375q-1.40625 -1.5 -3.421875 -1.5q-2.15625 0 -3.5625 1.578125q-1.40625 1.5625 -1.390625 4.265625l9.84375 0zm23.320312 -10.3125l0 5.25l-4.5 0l0 10.03125q0 3.046875 0.125 3.546875q0.140625 0.5 0.59375 0.828125q0.453125 0.328125 1.109375 0.328125q0.921875 0 2.65625 -0.625l0.5625 5.109375q-2.296875 0.984375 -5.203125 0.984375q-1.78125 0 -3.21875 -0.59375q-1.421875 -0.609375 -2.09375 -1.546875q-0.671875 -0.953125 -0.921875 -2.578125q-0.21875 -1.140625 -0.21875 -4.640625l0 -10.84375l-3.015625 0l0 -5.25l3.015625 0l0 -4.953125l6.609375 -3.84375l0 8.796875l4.5 0zm11.140633 -9.46875l0 12.625q3.1875 -3.71875 7.609375 -3.71875q2.28125 0 4.109375 0.84375q1.828125 0.84375 2.75 2.15625q0.921875 1.3125 1.265625 2.90625q0.34375 1.59375 0.34375 4.9375l0 14.609375l-6.59375 0l0 -13.15625q0 -3.90625 -0.375 -4.953125q-0.375 -1.0625 -1.328125 -1.6875q-0.9375 -0.625 -2.375 -0.625q-1.640625 0 -2.9375 0.796875q-1.28125 0.796875 -1.875 2.40625q-0.59375 1.609375 -0.59375 4.75l0 12.46875l-6.59375 0l0 -34.359375l6.59375 0zm21.226562 21.5625q0 -3.28125 1.609375 -6.34375q1.625 -3.078125 4.59375 -4.6875q2.96875 -1.625 6.625 -1.625q5.640625 0 9.25 3.671875q3.609375 3.65625 3.609375 9.265625q0 5.640625 -3.640625 9.359375q-3.640625 3.71875 -9.171875 3.71875q-3.421875 0 -6.53125 -1.546875q-3.109375 -1.546875 -4.734375 -4.53125q-1.609375 -3.0 -1.609375 -7.28125zm6.75 0.34375q0 3.703125 1.75 5.671875q1.765625 1.96875 4.34375 1.96875q2.578125 0 4.328125 -1.96875q1.75 -1.96875 1.75 -5.71875q0 -3.65625 -1.75 -5.625q-1.75 -1.96875 -4.328125 -1.96875q-2.578125 0 -4.34375 1.96875q-1.75 1.96875 -1.75 5.671875zm46.929688 12.453125l-6.125 0l0 -3.65625q-1.515625 2.125 -3.59375 3.171875q-2.078125 1.046875 -4.1875 1.046875q-4.28125 0 -7.34375 -3.453125q-3.0625 -3.46875 -3.0625 -9.65625q0 -6.328125 2.96875 -9.609375q2.984375 -3.296875 7.53125 -3.296875q4.171875 0 7.21875 3.46875l0 -12.375l6.59375 0l0 34.359375zm-17.578125 -12.984375q0 3.984375 1.09375 5.765625q1.59375 2.578125 4.453125 2.578125q2.28125 0 3.875 -1.9375q1.59375 -1.9375 1.59375 -5.78125q0 -4.28125 -1.546875 -6.171875q-1.546875 -1.890625 -3.96875 -1.890625q-2.34375 0 -3.921875 1.875q-1.578125 1.859375 -1.578125 5.5625z" fill-rule="nonzero"></path><path fill="#000000" fill-opacity="0.0" d="m480.0 47.256664l443.33856 0l0 432.06302l-443.33856 0z" fill-rule="nonzero"></path><path fill="#595959" d="m493.25 76.736664l-4.0 -15.03125l2.046875 0l2.28125 9.859375q0.375 1.546875 0.640625 3.0625q0.578125 -2.40625 0.671875 -2.765625l2.859375 -10.15625l2.40625 0l2.15625 7.609375q0.8125 2.828125 1.171875 5.3125q0.28125 -1.421875 0.75 -3.265625l2.34375 -9.65625l2.0 0l-4.109375 15.03125l-1.921875 0l-3.171875 -11.453125q-0.390625 -1.4375 -0.46875 -1.765625q-0.234375 1.03125 -0.4375 1.765625l-3.1875 11.453125l-2.03125 0zm24.724243 -3.5l1.90625 0.234375q-0.453125 1.671875 -1.671875 2.59375q-1.21875 0.921875 -3.125 0.921875q-2.390625 0 -3.796875 -1.46875q-1.390625 -1.484375 -1.390625 -4.140625q0 -2.734375 1.40625 -4.25q1.421875 -1.53125 3.6875 -1.53125q2.1875 0 3.5625 1.5q1.390625 1.484375 1.390625 4.171875q0 0.171875 -0.015625 0.5l-8.125 0q0.109375 1.796875 1.015625 2.75q0.921875 0.953125 2.28125 0.953125q1.015625 0 1.734375 -0.53125q0.71875 -0.546875 1.140625 -1.703125zm-6.0625 -2.984375l6.078125 0q-0.125 -1.375 -0.703125 -2.0625q-0.875 -1.078125 -2.28125 -1.078125q-1.265625 0 -2.140625 0.859375q-0.859375 0.84375 -0.953125 2.28125zm23.490479 2.5l1.828125 0.234375q-0.296875 1.875 -1.53125 2.9375q-1.21875 1.0625 -3.015625 1.0625q-2.234375 0 -3.59375 -1.453125q-1.34375 -1.46875 -1.34375 -4.203125q0 -1.765625 0.578125 -3.078125q0.578125 -1.328125 1.765625 -1.984375q1.203125 -0.671875 2.609375 -0.671875q1.78125 0 2.90625 0.90625q1.125 0.890625 1.4375 2.546875l-1.78125 0.28125q-0.265625 -1.109375 -0.921875 -1.65625q-0.640625 -0.5625 -1.5625 -0.5625q-1.40625 0 -2.28125 1.0q-0.859375 1.0 -0.859375 3.171875q0 2.1875 0.84375 3.1875q0.84375 1.0 2.1875 1.0q1.09375 0 1.8125 -0.671875q0.734375 -0.671875 0.921875 -2.046875zm3.5390625 3.984375l0 -10.890625l1.671875 0l0 1.65625q0.625 -1.15625 1.15625 -1.53125q0.546875 -0.375 1.203125 -0.375q0.921875 0 1.890625 0.59375l-0.640625 1.71875q-0.671875 -0.40625 -1.34375 -0.40625q-0.609375 0 -1.09375 0.375q-0.484375 0.359375 -0.6875 1.0q-0.3125 0.984375 -0.3125 2.15625l0 5.703125l-1.84375 0zm14.586792 -3.5l1.90625 0.234375q-0.453125 1.671875 -1.671875 2.59375q-1.21875 0.921875 -3.125 0.921875q-2.390625 0 -3.796875 -1.46875q-1.390625 -1.484375 -1.390625 -4.140625q0 -2.734375 1.40625 -4.25q1.421875 -1.53125 3.6875 -1.53125q2.1875 0 3.5625 1.5q1.390625 1.484375 1.390625 4.171875q0 0.171875 -0.015625 0.5l-8.125 0q0.109375 1.796875 1.015625 2.75q0.921875 0.953125 2.28125 0.953125q1.015625 0 1.734375 -0.53125q0.71875 -0.546875 1.140625 -1.703125zm-6.0625 -2.984375l6.078125 0q-0.125 -1.375 -0.703125 -2.0625q-0.875 -1.078125 -2.28125 -1.078125q-1.265625 0 -2.140625 0.859375q-0.859375 0.84375 -0.953125 2.28125zm17.56482 5.140625q-1.015625 0.875 -1.96875 1.234375q-0.953125 0.359375 -2.03125 0.359375q-1.796875 0 -2.765625 -0.875q-0.953125 -0.875 -0.953125 -2.25q0 -0.796875 0.359375 -1.453125q0.359375 -0.671875 0.953125 -1.0625q0.59375 -0.40625 1.328125 -0.609375q0.546875 -0.140625 1.640625 -0.28125q2.234375 -0.265625 3.296875 -0.625q0 -0.390625 0 -0.484375q0 -1.125 -0.515625 -1.59375q-0.71875 -0.625 -2.109375 -0.625q-1.296875 0 -1.921875 0.453125q-0.625 0.453125 -0.921875 1.625l-1.796875 -0.25q0.25 -1.15625 0.8125 -1.859375q0.5625 -0.71875 1.625 -1.109375q1.0625 -0.390625 2.46875 -0.390625q1.40625 0 2.265625 0.328125q0.875 0.328125 1.28125 0.828125q0.421875 0.5 0.578125 1.265625q0.09375 0.46875 0.09375 1.6875l0 2.46875q0 2.578125 0.109375 3.265625q0.125 0.671875 0.46875 1.296875l-1.921875 0q-0.28125 -0.578125 -0.375 -1.34375zm-0.140625 -4.125q-1.015625 0.40625 -3.015625 0.703125q-1.140625 0.15625 -1.625 0.375q-0.46875 0.203125 -0.71875 0.59375q-0.25 0.390625 -0.25 0.875q0 0.734375 0.546875 1.234375q0.5625 0.484375 1.640625 0.484375q1.0625 0 1.890625 -0.46875q0.84375 -0.46875 1.234375 -1.265625q0.296875 -0.625 0.296875 -1.84375l0 -0.6875zm8.939819 3.8125l0.265625 1.640625q-0.78125 0.15625 -1.40625 0.15625q-1.0 0 -1.5625 -0.3125q-0.546875 -0.328125 -0.78125 -0.84375q-0.21875 -0.515625 -0.21875 -2.171875l0 -6.265625l-1.34375 0l0 -1.4375l1.34375 0l0 -2.703125l1.84375 -1.09375l0 3.796875l1.859375 0l0 1.4375l-1.859375 0l0 6.359375q0 0.796875 0.09375 1.03125q0.09375 0.21875 0.3125 0.359375q0.21875 0.125 0.640625 0.125q0.296875 0 0.8125 -0.078125zm9.347534 -1.84375l1.90625 0.234375q-0.453125 1.671875 -1.671875 2.59375q-1.21875 0.921875 -3.125 0.921875q-2.390625 0 -3.796875 -1.46875q-1.390625 -1.484375 -1.390625 -4.140625q0 -2.734375 1.40625 -4.25q1.421875 -1.53125 3.6875 -1.53125q2.1875 0 3.5625 1.5q1.390625 1.484375 1.390625 4.171875q0 0.171875 -0.015625 0.5l-8.125 0q0.109375 1.796875 1.015625 2.75q0.921875 0.953125 2.28125 0.953125q1.015625 0 1.734375 -0.53125q0.71875 -0.546875 1.140625 -1.703125zm-6.0625 -2.984375l6.078125 0q-0.125 -1.375 -0.703125 -2.0625q-0.875 -1.078125 -2.28125 -1.078125q-1.265625 0 -2.140625 0.859375q-0.859375 0.84375 -0.953125 2.28125zm15.7092285 1.046875q0 -3.03125 1.671875 -4.484375q1.40625 -1.21875 3.421875 -1.21875q2.25 0 3.671875 1.484375q1.4375 1.46875 1.4375 4.0625q0 2.09375 -0.640625 3.296875q-0.625 1.203125 -1.828125 1.875q-1.203125 0.671875 -2.640625 0.671875q-2.28125 0 -3.6875 -1.46875q-1.40625 -1.46875 -1.40625 -4.21875zm1.890625 0q0 2.078125 0.90625 3.125q0.921875 1.046875 2.296875 1.046875q1.375 0 2.28125 -1.046875q0.921875 -1.046875 0.921875 -3.1875q0 -2.03125 -0.921875 -3.0625q-0.90625 -1.046875 -2.28125 -1.046875q-1.375 0 -2.296875 1.046875q-0.90625 1.03125 -0.90625 3.125zm17.78357 5.4375l0 -1.59375q-1.265625 1.84375 -3.453125 1.84375q-0.953125 0 -1.796875 -0.375q-0.828125 -0.375 -1.234375 -0.921875q-0.40625 -0.5625 -0.578125 -1.375q-0.109375 -0.546875 -0.109375 -1.71875l0 -6.75l1.84375 0l0 6.046875q0 1.4375 0.109375 1.9375q0.171875 0.734375 0.734375 1.15625q0.578125 0.40625 1.40625 0.40625q0.828125 0 1.546875 -0.421875q0.734375 -0.421875 1.03125 -1.15625q0.3125 -0.734375 0.3125 -2.140625l0 -5.828125l1.84375 0l0 10.890625l-1.65625 0zm4.7054443 0l0 -10.890625l1.671875 0l0 1.65625q0.625 -1.15625 1.15625 -1.53125q0.546875 -0.375 1.203125 -0.375q0.921875 0 1.890625 0.59375l-0.640625 1.71875q-0.671875 -0.40625 -1.34375 -0.40625q-0.609375 0 -1.09375 0.375q-0.484375 0.359375 -0.6875 1.0q-0.3125 0.984375 -0.3125 2.15625l0 5.703125l-1.84375 0zm13.059326 4.171875l0 -15.0625l1.671875 0l0 1.421875q0.59375 -0.84375 1.34375 -1.25q0.75 -0.421875 1.8125 -0.421875q1.40625 0 2.46875 0.71875q1.0625 0.71875 1.609375 2.03125q0.546875 1.3125 0.546875 2.859375q0 1.671875 -0.609375 3.015625q-0.59375 1.34375 -1.734375 2.0625q-1.140625 0.703125 -2.40625 0.703125q-0.921875 0 -1.65625 -0.390625q-0.734375 -0.390625 -1.203125 -0.984375l0 5.296875l-1.84375 0zm1.671875 -9.5625q0 2.109375 0.84375 3.125q0.859375 1.0 2.0625 1.0q1.234375 0 2.109375 -1.046875q0.875 -1.046875 0.875 -3.21875q0 -2.09375 -0.859375 -3.125q-0.859375 -1.03125 -2.046875 -1.03125q-1.171875 0 -2.078125 1.109375q-0.90625 1.09375 -0.90625 3.1875zm17.642944 1.890625l1.90625 0.234375q-0.453125 1.671875 -1.671875 2.59375q-1.21875 0.921875 -3.125 0.921875q-2.390625 0 -3.796875 -1.46875q-1.390625 -1.484375 -1.390625 -4.140625q0 -2.734375 1.40625 -4.25q1.421875 -1.53125 3.6875 -1.53125q2.1875 0 3.5625 1.5q1.390625 1.484375 1.390625 4.171875q0 0.171875 -0.015625 0.5l-8.125 0q0.109375 1.796875 1.015625 2.75q0.921875 0.953125 2.28125 0.953125q1.015625 0 1.734375 -0.53125q0.71875 -0.546875 1.140625 -1.703125zm-6.0625 -2.984375l6.078125 0q-0.125 -1.375 -0.703125 -2.0625q-0.875 -1.078125 -2.28125 -1.078125q-1.265625 0 -2.140625 0.859375q-0.859375 0.84375 -0.953125 2.28125zm10.439819 6.484375l0 -10.890625l1.671875 0l0 1.65625q0.625 -1.15625 1.15625 -1.53125q0.546875 -0.375 1.203125 -0.375q0.921875 0 1.890625 0.59375l-0.640625 1.71875q-0.671875 -0.40625 -1.34375 -0.40625q-0.609375 0 -1.09375 0.375q-0.484375 0.359375 -0.6875 1.0q-0.3125 0.984375 -0.3125 2.15625l0 5.703125l-1.84375 0zm6.383667 -3.25l1.828125 -0.28125q0.15625 1.09375 0.859375 1.6875q0.703125 0.578125 1.96875 0.578125q1.265625 0 1.875 -0.515625q0.625 -0.53125 0.625 -1.21875q0 -0.625 -0.546875 -0.984375q-0.375 -0.25 -1.890625 -0.625q-2.03125 -0.515625 -2.8125 -0.890625q-0.78125 -0.375 -1.1875 -1.03125q-0.40625 -0.671875 -0.40625 -1.46875q0 -0.71875 0.328125 -1.34375q0.34375 -0.625 0.90625 -1.03125q0.4375 -0.3125 1.171875 -0.53125q0.75 -0.234375 1.609375 -0.234375q1.28125 0 2.25 0.375q0.96875 0.375 1.421875 1.0q0.46875 0.625 0.640625 1.6875l-1.8125 0.25q-0.109375 -0.84375 -0.703125 -1.3125q-0.59375 -0.484375 -1.671875 -0.484375q-1.265625 0 -1.8125 0.421875q-0.546875 0.421875 -0.546875 0.984375q0 0.359375 0.234375 0.65625q0.21875 0.296875 0.703125 0.484375q0.28125 0.109375 1.625 0.46875q1.96875 0.53125 2.734375 0.859375q0.78125 0.328125 1.21875 0.96875q0.4375 0.640625 0.4375 1.578125q0 0.921875 -0.546875 1.75q-0.53125 0.8125 -1.546875 1.265625q-1.015625 0.4375 -2.296875 0.4375q-2.125 0 -3.234375 -0.875q-1.109375 -0.890625 -1.421875 -2.625zm10.7265625 -2.1875q0 -3.03125 1.671875 -4.484375q1.40625 -1.21875 3.421875 -1.21875q2.25 0 3.671875 1.484375q1.4375 1.46875 1.4375 4.0625q0 2.09375 -0.640625 3.296875q-0.625 1.203125 -1.828125 1.875q-1.203125 0.671875 -2.640625 0.671875q-2.28125 0 -3.6875 -1.46875q-1.40625 -1.46875 -1.40625 -4.21875zm1.890625 0q0 2.078125 0.90625 3.125q0.921875 1.046875 2.296875 1.046875q1.375 0 2.28125 -1.046875q0.921875 -1.046875 0.921875 -3.1875q0 -2.03125 -0.921875 -3.0625q-0.90625 -1.046875 -2.28125 -1.046875q-1.375 0 -2.296875 1.046875q-0.90625 1.03125 -0.90625 3.125zm10.658569 5.4375l0 -10.890625l1.65625 0l0 1.546875q1.203125 -1.796875 3.46875 -1.796875q0.984375 0 1.796875 0.359375q0.828125 0.359375 1.234375 0.9375q0.421875 0.5625 0.578125 1.359375q0.109375 0.5 0.109375 1.78125l0 6.703125l-1.84375 0l0 -6.625q0 -1.125 -0.21875 -1.6875q-0.21875 -0.5625 -0.765625 -0.890625q-0.546875 -0.328125 -1.28125 -0.328125q-1.1875 0 -2.046875 0.75q-0.84375 0.734375 -0.84375 2.828125l0 5.953125l-1.84375 0zm18.955444 -1.34375q-1.015625 0.875 -1.96875 1.234375q-0.953125 0.359375 -2.03125 0.359375q-1.796875 0 -2.765625 -0.875q-0.953125 -0.875 -0.953125 -2.25q0 -0.796875 0.359375 -1.453125q0.359375 -0.671875 0.953125 -1.0625q0.59375 -0.40625 1.328125 -0.609375q0.546875 -0.140625 1.640625 -0.28125q2.234375 -0.265625 3.296875 -0.625q0 -0.390625 0 -0.484375q0 -1.125 -0.515625 -1.59375q-0.71875 -0.625 -2.109375 -0.625q-1.296875 0 -1.921875 0.453125q-0.625 0.453125 -0.921875 1.625l-1.796875 -0.25q0.25 -1.15625 0.8125 -1.859375q0.5625 -0.71875 1.625 -1.109375q1.0625 -0.390625 2.46875 -0.390625q1.40625 0 2.265625 0.328125q0.875 0.328125 1.28125 0.828125q0.421875 0.5 0.578125 1.265625q0.09375 0.46875 0.09375 1.6875l0 2.46875q0 2.578125 0.109375 3.265625q0.125 0.671875 0.46875 1.296875l-1.921875 0q-0.28125 -0.578125 -0.375 -1.34375zm-0.140625 -4.125q-1.015625 0.40625 -3.015625 0.703125q-1.140625 0.15625 -1.625 0.375q-0.46875 0.203125 -0.71875 0.59375q-0.25 0.390625 -0.25 0.875q0 0.734375 0.546875 1.234375q0.5625 0.484375 1.640625 0.484375q1.0625 0 1.890625 -0.46875q0.84375 -0.46875 1.234375 -1.265625q0.296875 -0.625 0.296875 -1.84375l0 -0.6875zm4.1585693 2.21875l1.828125 -0.28125q0.15625 1.09375 0.859375 1.6875q0.703125 0.578125 1.96875 0.578125q1.265625 0 1.875 -0.515625q0.625 -0.53125 0.625 -1.21875q0 -0.625 -0.546875 -0.984375q-0.375 -0.25 -1.890625 -0.625q-2.03125 -0.515625 -2.8125 -0.890625q-0.78125 -0.375 -1.1875 -1.03125q-0.40625 -0.671875 -0.40625 -1.46875q0 -0.71875 0.328125 -1.34375q0.34375 -0.625 0.90625 -1.03125q0.4375 -0.3125 1.171875 -0.53125q0.75 -0.234375 1.609375 -0.234375q1.28125 0 2.25 0.375q0.96875 0.375 1.421875 1.0q0.46875 0.625 0.640625 1.6875l-1.8125 0.25q-0.109375 -0.84375 -0.703125 -1.3125q-0.59375 -0.484375 -1.671875 -0.484375q-1.265625 0 -1.8125 0.421875q-0.546875 0.421875 -0.546875 0.984375q0 0.359375 0.234375 0.65625q0.21875 0.296875 0.703125 0.484375q0.28125 0.109375 1.625 0.46875q1.96875 0.53125 2.734375 0.859375q0.78125 0.328125 1.21875 0.96875q0.4375 0.640625 0.4375 1.578125q0 0.921875 -0.546875 1.75q-0.53125 0.8125 -1.546875 1.265625q-1.015625 0.4375 -2.296875 0.4375q-2.125 0 -3.234375 -0.875q-1.109375 -0.890625 -1.421875 -2.625zm24.433472 1.90625q-1.015625 0.875 -1.96875 1.234375q-0.953125 0.359375 -2.03125 0.359375q-1.796875 0 -2.765625 -0.875q-0.953125 -0.875 -0.953125 -2.25q0 -0.796875 0.359375 -1.453125q0.359375 -0.671875 0.953125 -1.0625q0.59375 -0.40625 1.328125 -0.609375q0.546875 -0.140625 1.640625 -0.28125q2.234375 -0.265625 3.296875 -0.625q0 -0.390625 0 -0.484375q0 -1.125 -0.515625 -1.59375q-0.71875 -0.625 -2.109375 -0.625q-1.296875 0 -1.921875 0.453125q-0.625 0.453125 -0.921875 1.625l-1.796875 -0.25q0.25 -1.15625 0.8125 -1.859375q0.5625 -0.71875 1.625 -1.109375q1.0625 -0.390625 2.46875 -0.390625q1.40625 0 2.265625 0.328125q0.875 0.328125 1.28125 0.828125q0.421875 0.5 0.578125 1.265625q0.09375 0.46875 0.09375 1.6875l0 2.46875q0 2.578125 0.109375 3.265625q0.125 0.671875 0.46875 1.296875l-1.921875 0q-0.28125 -0.578125 -0.375 -1.34375zm-0.140625 -4.125q-1.015625 0.40625 -3.015625 0.703125q-1.140625 0.15625 -1.625 0.375q-0.46875 0.203125 -0.71875 0.59375q-0.25 0.390625 -0.25 0.875q0 0.734375 0.546875 1.234375q0.5625 0.484375 1.640625 0.484375q1.0625 0 1.890625 -0.46875q0.84375 -0.46875 1.234375 -1.265625q0.296875 -0.625 0.296875 -1.84375l0 -0.6875zm4.9085693 5.46875l0 -10.890625l1.65625 0l0 1.546875q1.203125 -1.796875 3.46875 -1.796875q0.984375 0 1.796875 0.359375q0.828125 0.359375 1.234375 0.9375q0.421875 0.5625 0.578125 1.359375q0.109375 0.5 0.109375 1.78125l0 6.703125l-1.84375 0l0 -6.625q0 -1.125 -0.21875 -1.6875q-0.21875 -0.5625 -0.765625 -0.890625q-0.546875 -0.328125 -1.28125 -0.328125q-1.1875 0 -2.046875 0.75q-0.84375 0.734375 -0.84375 2.828125l0 5.953125l-1.84375 0zm11.111694 -3.25l1.828125 -0.28125q0.15625 1.09375 0.859375 1.6875q0.703125 0.578125 1.96875 0.578125q1.265625 0 1.875 -0.515625q0.625 -0.53125 0.625 -1.21875q0 -0.625 -0.546875 -0.984375q-0.375 -0.25 -1.890625 -0.625q-2.03125 -0.515625 -2.8125 -0.890625q-0.78125 -0.375 -1.1875 -1.03125q-0.40625 -0.671875 -0.40625 -1.46875q0 -0.71875 0.328125 -1.34375q0.34375 -0.625 0.90625 -1.03125q0.4375 -0.3125 1.171875 -0.53125q0.75 -0.234375 1.609375 -0.234375q1.28125 0 2.25 0.375q0.96875 0.375 1.421875 1.0q0.46875 0.625 0.640625 1.6875l-1.8125 0.25q-0.109375 -0.84375 -0.703125 -1.3125q-0.59375 -0.484375 -1.671875 -0.484375q-1.265625 0 -1.8125 0.421875q-0.546875 0.421875 -0.546875 0.984375q0 0.359375 0.234375 0.65625q0.21875 0.296875 0.703125 0.484375q0.28125 0.109375 1.625 0.46875q1.96875 0.53125 2.734375 0.859375q0.78125 0.328125 1.21875 0.96875q0.4375 0.640625 0.4375 1.578125q0 0.921875 -0.546875 1.75q-0.53125 0.8125 -1.546875 1.265625q-1.015625 0.4375 -2.296875 0.4375q-2.125 0 -3.234375 -0.875q-1.109375 -0.890625 -1.421875 -2.625zm16.589722 0l1.828125 -0.28125q0.15625 1.09375 0.859375 1.6875q0.703125 0.578125 1.96875 0.578125q1.265625 0 1.875 -0.515625q0.625 -0.53125 0.625 -1.21875q0 -0.625 -0.546875 -0.984375q-0.375 -0.25 -1.890625 -0.625q-2.03125 -0.515625 -2.8125 -0.890625q-0.78125 -0.375 -1.1875 -1.03125q-0.40625 -0.671875 -0.40625 -1.46875q0 -0.71875 0.328125 -1.34375q0.34375 -0.625 0.90625 -1.03125q0.4375 -0.3125 1.171875 -0.53125q0.75 -0.234375 1.609375 -0.234375q1.28125 0 2.25 0.375q0.96875 0.375 1.421875 1.0q0.46875 0.625 0.640625 1.6875l-1.8125 0.25q-0.109375 -0.84375 -0.703125 -1.3125q-0.59375 -0.484375 -1.671875 -0.484375q-1.265625 0 -1.8125 0.421875q-0.546875 0.421875 -0.546875 0.984375q0 0.359375 0.234375 0.65625q0.21875 0.296875 0.703125 0.484375q0.28125 0.109375 1.625 0.46875q1.96875 0.53125 2.734375 0.859375q0.78125 0.328125 1.21875 0.96875q0.4375 0.640625 0.4375 1.578125q0 0.921875 -0.546875 1.75q-0.53125 0.8125 -1.546875 1.265625q-1.015625 0.4375 -2.296875 0.4375q-2.125 0 -3.234375 -0.875q-1.109375 -0.890625 -1.421875 -2.625zm18.507812 -0.734375l1.828125 0.234375q-0.296875 1.875 -1.53125 2.9375q-1.21875 1.0625 -3.015625 1.0625q-2.234375 0 -3.59375 -1.453125q-1.34375 -1.46875 -1.34375 -4.203125q0 -1.765625 0.578125 -3.078125q0.578125 -1.328125 1.765625 -1.984375q1.203125 -0.671875 2.609375 -0.671875q1.78125 0 2.90625 0.90625q1.125 0.890625 1.4375 2.546875l-1.78125 0.28125q-0.265625 -1.109375 -0.921875 -1.65625q-0.640625 -0.5625 -1.5625 -0.5625q-1.40625 0 -2.28125 1.0q-0.859375 1.0 -0.859375 3.171875q0 2.1875 0.84375 3.1875q0.84375 1.0 2.1875 1.0q1.09375 0 1.8125 -0.671875q0.734375 -0.671875 0.921875 -2.046875zm11.0234375 0.484375l1.90625 0.234375q-0.453125 1.671875 -1.671875 2.59375q-1.21875 0.921875 -3.125 0.921875q-2.390625 0 -3.796875 -1.46875q-1.390625 -1.484375 -1.390625 -4.140625q0 -2.734375 1.40625 -4.25q1.421875 -1.53125 3.6875 -1.53125q2.1875 0 3.5625 1.5q1.390625 1.484375 1.390625 4.171875q0 0.171875 -0.015625 0.5l-8.125 0q0.109375 1.796875 1.015625 2.75q0.921875 0.953125 2.28125 0.953125q1.015625 0 1.734375 -0.53125q0.71875 -0.546875 1.140625 -1.703125zm-6.0625 -2.984375l6.078125 0q-0.125 -1.375 -0.703125 -2.0625q-0.875 -1.078125 -2.28125 -1.078125q-1.265625 0 -2.140625 0.859375q-0.859375 0.84375 -0.953125 2.28125zm10.471069 6.484375l0 -10.890625l1.65625 0l0 1.546875q1.203125 -1.796875 3.46875 -1.796875q0.984375 0 1.796875 0.359375q0.828125 0.359375 1.234375 0.9375q0.421875 0.5625 0.578125 1.359375q0.109375 0.5 0.109375 1.78125l0 6.703125l-1.84375 0l0 -6.625q0 -1.125 -0.21875 -1.6875q-0.21875 -0.5625 -0.765625 -0.890625q-0.546875 -0.328125 -1.28125 -0.328125q-1.1875 0 -2.046875 0.75q-0.84375 0.734375 -0.84375 2.828125l0 5.953125l-1.84375 0zm18.955444 -1.34375q-1.015625 0.875 -1.96875 1.234375q-0.953125 0.359375 -2.03125 0.359375q-1.796875 0 -2.765625 -0.875q-0.953125 -0.875 -0.953125 -2.25q0 -0.796875 0.359375 -1.453125q0.359375 -0.671875 0.953125 -1.0625q0.59375 -0.40625 1.328125 -0.609375q0.546875 -0.140625 1.640625 -0.28125q2.234375 -0.265625 3.296875 -0.625q0 -0.390625 0 -0.484375q0 -1.125 -0.515625 -1.59375q-0.71875 -0.625 -2.109375 -0.625q-1.296875 0 -1.921875 0.453125q-0.625 0.453125 -0.921875 1.625l-1.796875 -0.25q0.25 -1.15625 0.8125 -1.859375q0.5625 -0.71875 1.625 -1.109375q1.0625 -0.390625 2.46875 -0.390625q1.40625 0 2.265625 0.328125q0.875 0.328125 1.28125 0.828125q0.421875 0.5 0.578125 1.265625q0.09375 0.46875 0.09375 1.6875l0 2.46875q0 2.578125 0.109375 3.265625q0.125 0.671875 0.46875 1.296875l-1.921875 0q-0.28125 -0.578125 -0.375 -1.34375zm-0.140625 -4.125q-1.015625 0.40625 -3.015625 0.703125q-1.140625 0.15625 -1.625 0.375q-0.46875 0.203125 -0.71875 0.59375q-0.25 0.390625 -0.25 0.875q0 0.734375 0.546875 1.234375q0.5625 0.484375 1.640625 0.484375q1.0625 0 1.890625 -0.46875q0.84375 -0.46875 1.234375 -1.265625q0.296875 -0.625 0.296875 -1.84375l0 -0.6875zm4.8773193 5.46875l0 -10.890625l1.671875 0l0 1.65625q0.625 -1.15625 1.15625 -1.53125q0.546875 -0.375 1.203125 -0.375q0.921875 0 1.890625 0.59375l-0.640625 1.71875q-0.671875 -0.40625 -1.34375 -0.40625q-0.609375 0 -1.09375 0.375q-0.484375 0.359375 -0.6875 1.0q-0.3125 0.984375 -0.3125 2.15625l0 5.703125l-1.84375 0zm7.133667 -12.90625l0 -2.125l1.84375 0l0 2.125l-1.84375 0zm0 12.90625l0 -10.890625l1.84375 0l0 10.890625l-1.84375 0zm4.0509033 -5.4375q0 -3.03125 1.671875 -4.484375q1.40625 -1.21875 3.421875 -1.21875q2.25 0 3.671875 1.484375q1.4375 1.46875 1.4375 4.0625q0 2.09375 -0.640625 3.296875q-0.625 1.203125 -1.828125 1.875q-1.203125 0.671875 -2.640625 0.671875q-2.28125 0 -3.6875 -1.46875q-1.40625 -1.46875 -1.40625 -4.21875zm1.890625 0q0 2.078125 0.90625 3.125q0.921875 1.046875 2.296875 1.046875q1.375 0 2.28125 -1.046875q0.921875 -1.046875 0.921875 -3.1875q0 -2.03125 -0.921875 -3.0625q-0.90625 -1.046875 -2.28125 -1.046875q-1.375 0 -2.296875 1.046875q-0.90625 1.03125 -0.90625 3.125zm9.908569 2.1875l1.828125 -0.28125q0.15625 1.09375 0.859375 1.6875q0.703125 0.578125 1.96875 0.578125q1.265625 0 1.875 -0.515625q0.625 -0.53125 0.625 -1.21875q0 -0.625 -0.546875 -0.984375q-0.375 -0.25 -1.890625 -0.625q-2.03125 -0.515625 -2.8125 -0.890625q-0.78125 -0.375 -1.1875 -1.03125q-0.40625 -0.671875 -0.40625 -1.46875q0 -0.71875 0.328125 -1.34375q0.34375 -0.625 0.90625 -1.03125q0.4375 -0.3125 1.171875 -0.53125q0.75 -0.234375 1.609375 -0.234375q1.28125 0 2.25 0.375q0.96875 0.375 1.421875 1.0q0.46875 0.625 0.640625 1.6875l-1.8125 0.25q-0.109375 -0.84375 -0.703125 -1.3125q-0.59375 -0.484375 -1.671875 -0.484375q-1.265625 0 -1.8125 0.421875q-0.546875 0.421875 -0.546875 0.984375q0 0.359375 0.234375 0.65625q0.21875 0.296875 0.703125 0.484375q0.28125 0.109375 1.625 0.46875q1.96875 0.53125 2.734375 0.859375q0.78125 0.328125 1.21875 0.96875q0.4375 0.640625 0.4375 1.578125q0 0.921875 -0.546875 1.75q-0.53125 0.8125 -1.546875 1.265625q-1.015625 0.4375 -2.296875 0.4375q-2.125 0 -3.234375 -0.875q-1.109375 -0.890625 -1.421875 -2.625zm17.777222 3.25l0 -9.453125l-1.640625 0l0 -1.4375l1.640625 0l0 -1.15625q0 -1.09375 0.1875 -1.625q0.265625 -0.71875 0.9375 -1.15625q0.671875 -0.453125 1.890625 -0.453125q0.78125 0 1.71875 0.171875l-0.28125 1.609375q-0.5625 -0.09375 -1.078125 -0.09375q-0.84375 0 -1.203125 0.359375q-0.34375 0.359375 -0.34375 1.34375l0 1.0l2.125 0l0 1.4375l-2.125 0l0 9.453125l-1.828125 0zm5.456909 0l0 -10.890625l1.671875 0l0 1.65625q0.625 -1.15625 1.15625 -1.53125q0.546875 -0.375 1.203125 -0.375q0.921875 0 1.890625 0.59375l-0.640625 1.71875q-0.671875 -0.40625 -1.34375 -0.40625q-0.609375 0 -1.09375 0.375q-0.484375 0.359375 -0.6875 1.0q-0.3125 0.984375 -0.3125 2.15625l0 5.703125l-1.84375 0zm6.446167 -5.4375q0 -3.03125 1.671875 -4.484375q1.40625 -1.21875 3.421875 -1.21875q2.25 0 3.671875 1.484375q1.4375 1.46875 1.4375 4.0625q0 2.09375 -0.640625 3.296875q-0.625 1.203125 -1.828125 1.875q-1.203125 0.671875 -2.640625 0.671875q-2.28125 0 -3.6875 -1.46875q-1.40625 -1.46875 -1.40625 -4.21875zm1.890625 0q0 2.078125 0.90625 3.125q0.921875 1.046875 2.296875 1.046875q1.375 0 2.28125 -1.046875q0.921875 -1.046875 0.921875 -3.1875q0 -2.03125 -0.921875 -3.0625q-0.90625 -1.046875 -2.28125 -1.046875q-1.375 0 -2.296875 1.046875q-0.90625 1.03125 -0.90625 3.125zm10.658569 5.4375l0 -10.890625l1.640625 0l0 1.53125q0.515625 -0.796875 1.359375 -1.28125q0.859375 -0.5 1.953125 -0.5q1.203125 0 1.96875 0.515625q0.78125 0.5 1.09375 1.390625q1.296875 -1.90625 3.375 -1.90625q1.609375 0 2.484375 0.90625q0.875 0.890625 0.875 2.765625l0 7.46875l-1.84375 0l0 -6.859375q0 -1.109375 -0.171875 -1.59375q-0.171875 -0.484375 -0.65625 -0.78125q-0.46875 -0.296875 -1.109375 -0.296875q-1.140625 0 -1.90625 0.765625q-0.75 0.75 -0.75 2.4375l0 6.328125l-1.84375 0l0 -7.078125q0 -1.234375 -0.453125 -1.84375q-0.453125 -0.609375 -1.484375 -0.609375q-0.78125 0 -1.4375 0.40625q-0.65625 0.40625 -0.953125 1.203125q-0.296875 0.78125 -0.296875 2.265625l0 5.65625l-1.84375 0z" fill-rule="nonzero"></path><path fill="#595959" d="m489.70312 100.299164q0 -3.03125 1.671875 -4.484375q1.40625 -1.21875 3.421875 -1.21875q2.25 0 3.671875 1.484375q1.4375 1.46875 1.4375 4.0625q0 2.09375 -0.640625 3.296875q-0.625 1.203125 -1.828125 1.875q-1.203125 0.671875 -2.640625 0.671875q-2.28125 0 -3.6875 -1.46875q-1.40625 -1.46875 -1.40625 -4.21875zm1.890625 0q0 2.078125 0.90625 3.125q0.921875 1.046875 2.296875 1.046875q1.375 0 2.28125 -1.046875q0.921875 -1.046875 0.921875 -3.1875q0 -2.03125 -0.921875 -3.0625q-0.90625 -1.046875 -2.28125 -1.046875q-1.375 0 -2.296875 1.046875q-0.90625 1.03125 -0.90625 3.125zm17.78357 5.4375l0 -1.59375q-1.265625 1.84375 -3.453125 1.84375q-0.953125 0 -1.796875 -0.375q-0.828125 -0.375 -1.234375 -0.921875q-0.40625 -0.5625 -0.578125 -1.375q-0.109375 -0.546875 -0.109375 -1.71875l0 -6.75l1.84375 0l0 6.046875q0 1.4375 0.109375 1.9375q0.171875 0.734375 0.734375 1.15625q0.578125 0.40625 1.40625 0.40625q0.828125 0 1.546875 -0.421875q0.734375 -0.421875 1.03125 -1.15625q0.3125 -0.734375 0.3125 -2.140625l0 -5.828125l1.84375 0l0 10.890625l-1.65625 0zm4.7054443 0l0 -10.890625l1.671875 0l0 1.65625q0.625 -1.15625 1.15625 -1.53125q0.546875 -0.375 1.203125 -0.375q0.921875 0 1.890625 0.59375l-0.640625 1.71875q-0.671875 -0.40625 -1.34375 -0.40625q-0.609375 0 -1.09375 0.375q-0.484375 0.359375 -0.6875 1.0q-0.3125 0.984375 -0.3125 2.15625l0 5.703125l-1.84375 0zm13.059326 -12.90625l0 -2.125l1.84375 0l0 2.125l-1.84375 0zm0 12.90625l0 -10.890625l1.84375 0l0 10.890625l-1.84375 0zm4.7384033 0l0 -10.890625l1.65625 0l0 1.546875q1.203125 -1.796875 3.46875 -1.796875q0.984375 0 1.796875 0.359375q0.828125 0.359375 1.234375 0.9375q0.421875 0.5625 0.578125 1.359375q0.109375 0.5 0.109375 1.78125l0 6.703125l-1.84375 0l0 -6.625q0 -1.125 -0.21875 -1.6875q-0.21875 -0.5625 -0.765625 -0.890625q-0.546875 -0.328125 -1.28125 -0.328125q-1.1875 0 -2.046875 0.75q-0.84375 0.734375 -0.84375 2.828125l0 5.953125l-1.84375 0zm15.892944 -1.65625l0.265625 1.640625q-0.78125 0.15625 -1.40625 0.15625q-1.0 0 -1.5625 -0.3125q-0.546875 -0.328125 -0.78125 -0.84375q-0.21875 -0.515625 -0.21875 -2.171875l0 -6.265625l-1.34375 0l0 -1.4375l1.34375 0l0 -2.703125l1.84375 -1.09375l0 3.796875l1.859375 0l0 1.4375l-1.859375 0l0 6.359375q0 0.796875 0.09375 1.03125q0.09375 0.21875 0.3125 0.359375q0.21875 0.125 0.640625 0.125q0.296875 0 0.8125 -0.078125zm9.347534 -1.84375l1.90625 0.234375q-0.453125 1.671875 -1.671875 2.59375q-1.21875 0.921875 -3.125 0.921875q-2.390625 0 -3.796875 -1.46875q-1.390625 -1.484375 -1.390625 -4.140625q0 -2.734375 1.40625 -4.25q1.421875 -1.53125 3.6875 -1.53125q2.1875 0 3.5625 1.5q1.390625 1.484375 1.390625 4.171875q0 0.171875 -0.015625 0.5l-8.125 0q0.109375 1.796875 1.015625 2.75q0.921875 0.953125 2.28125 0.953125q1.015625 0 1.734375 -0.53125q0.71875 -0.546875 1.140625 -1.703125zm-6.0625 -2.984375l6.078125 0q-0.125 -1.375 -0.703125 -2.0625q-0.875 -1.078125 -2.28125 -1.078125q-1.265625 0 -2.140625 0.859375q-0.859375 0.84375 -0.953125 2.28125zm10.439819 6.484375l0 -10.890625l1.671875 0l0 1.65625q0.625 -1.15625 1.15625 -1.53125q0.546875 -0.375 1.203125 -0.375q0.921875 0 1.890625 0.59375l-0.640625 1.71875q-0.671875 -0.40625 -1.34375 -0.40625q-0.609375 0 -1.09375 0.375q-0.484375 0.359375 -0.6875 1.0q-0.3125 0.984375 -0.3125 2.15625l0 5.703125l-1.84375 0zm10.149292 0l-4.140625 -10.890625l1.953125 0l2.328125 6.515625q0.390625 1.0625 0.703125 2.203125q0.25 -0.859375 0.6875 -2.078125l2.421875 -6.640625l1.890625 0l-4.125 10.890625l-1.71875 0zm7.6484375 -12.90625l0 -2.125l1.84375 0l0 2.125l-1.84375 0zm0 12.90625l0 -10.890625l1.84375 0l0 10.890625l-1.84375 0zm12.191589 -3.5l1.90625 0.234375q-0.453125 1.671875 -1.671875 2.59375q-1.21875 0.921875 -3.125 0.921875q-2.390625 0 -3.796875 -1.46875q-1.390625 -1.484375 -1.390625 -4.140625q0 -2.734375 1.40625 -4.25q1.421875 -1.53125 3.6875 -1.53125q2.1875 0 3.5625 1.5q1.390625 1.484375 1.390625 4.171875q0 0.171875 -0.015625 0.5l-8.125 0q0.109375 1.796875 1.015625 2.75q0.921875 0.953125 2.28125 0.953125q1.015625 0 1.734375 -0.53125q0.71875 -0.546875 1.140625 -1.703125zm-6.0625 -2.984375l6.078125 0q-0.125 -1.375 -0.703125 -2.0625q-0.875 -1.078125 -2.28125 -1.078125q-1.265625 0 -2.140625 0.859375q-0.859375 0.84375 -0.953125 2.28125zm12.471069 6.484375l-3.328125 -10.890625l1.90625 0l1.734375 6.28125l0.640625 2.34375q0.046875 -0.171875 0.5625 -2.25l1.734375 -6.375l1.90625 0l1.625 6.3125l0.546875 2.09375l0.625 -2.109375l1.859375 -6.296875l1.796875 0l-3.40625 10.890625l-1.90625 0l-1.734375 -6.515625l-0.421875 -1.859375l-2.203125 8.375l-1.9375 0zm13.402527 -12.90625l0 -2.125l1.84375 0l0 2.125l-1.84375 0zm0 12.90625l0 -10.890625l1.84375 0l0 10.890625l-1.84375 0zm4.7384033 0l0 -10.890625l1.65625 0l0 1.546875q1.203125 -1.796875 3.46875 -1.796875q0.984375 0 1.796875 0.359375q0.828125 0.359375 1.234375 0.9375q0.421875 0.5625 0.578125 1.359375q0.109375 0.5 0.109375 1.78125l0 6.703125l-1.84375 0l0 -6.625q0 -1.125 -0.21875 -1.6875q-0.21875 -0.5625 -0.765625 -0.890625q-0.546875 -0.328125 -1.28125 -0.328125q-1.1875 0 -2.046875 0.75q-0.84375 0.734375 -0.84375 2.828125l0 5.953125l-1.84375 0zm11.517944 0.90625l1.796875 0.265625q0.109375 0.828125 0.625 1.203125q0.6875 0.515625 1.875 0.515625q1.28125 0 1.96875 -0.515625q0.703125 -0.515625 0.953125 -1.4375q0.140625 -0.5625 0.125 -2.359375q-1.203125 1.421875 -3.0 1.421875q-2.25 0 -3.484375 -1.609375q-1.234375 -1.625 -1.234375 -3.890625q0 -1.5625 0.5625 -2.875q0.578125 -1.328125 1.640625 -2.046875q1.078125 -0.71875 2.515625 -0.71875q1.9375 0 3.1875 1.5625l0 -1.3125l1.703125 0l0 9.40625q0 2.546875 -0.53125 3.609375q-0.515625 1.0625 -1.640625 1.671875q-1.109375 0.625 -2.75 0.625q-1.953125 0 -3.15625 -0.875q-1.203125 -0.875 -1.15625 -2.640625zm1.53125 -6.546875q0 2.140625 0.84375 3.125q0.859375 0.984375 2.140625 0.984375q1.265625 0 2.125 -0.96875q0.859375 -0.984375 0.859375 -3.078125q0 -2.0 -0.890625 -3.015625q-0.875 -1.015625 -2.125 -1.015625q-1.234375 0 -2.09375 1.0q-0.859375 1.0 -0.859375 2.96875zm23.662354 5.640625l0 -1.375q-1.046875 1.625 -3.046875 1.625q-1.296875 0 -2.390625 -0.71875q-1.09375 -0.71875 -1.703125 -2.0q-0.59375 -1.296875 -0.59375 -2.96875q0 -1.625 0.546875 -2.953125q0.546875 -1.328125 1.625 -2.03125q1.09375 -0.71875 2.4375 -0.71875q0.984375 0 1.75 0.421875q0.765625 0.40625 1.25 1.078125l0 -5.390625l1.828125 0l0 15.03125l-1.703125 0zm-5.84375 -5.4375q0 2.09375 0.875 3.140625q0.890625 1.03125 2.09375 1.03125q1.203125 0 2.046875 -0.984375q0.859375 -1.0 0.859375 -3.03125q0 -2.234375 -0.875 -3.28125q-0.859375 -1.046875 -2.109375 -1.046875q-1.234375 0 -2.0625 1.015625q-0.828125 1.0 -0.828125 3.15625zm17.736694 4.09375q-1.015625 0.875 -1.96875 1.234375q-0.953125 0.359375 -2.03125 0.359375q-1.796875 0 -2.765625 -0.875q-0.953125 -0.875 -0.953125 -2.25q0 -0.796875 0.359375 -1.453125q0.359375 -0.671875 0.953125 -1.0625q0.59375 -0.40625 1.328125 -0.609375q0.546875 -0.140625 1.640625 -0.28125q2.234375 -0.265625 3.296875 -0.625q0 -0.390625 0 -0.484375q0 -1.125 -0.515625 -1.59375q-0.71875 -0.625 -2.109375 -0.625q-1.296875 0 -1.921875 0.453125q-0.625 0.453125 -0.921875 1.625l-1.796875 -0.25q0.25 -1.15625 0.8125 -1.859375q0.5625 -0.71875 1.625 -1.109375q1.0625 -0.390625 2.46875 -0.390625q1.40625 0 2.265625 0.328125q0.875 0.328125 1.28125 0.828125q0.421875 0.5 0.578125 1.265625q0.09375 0.46875 0.09375 1.6875l0 2.46875q0 2.578125 0.109375 3.265625q0.125 0.671875 0.46875 1.296875l-1.921875 0q-0.28125 -0.578125 -0.375 -1.34375zm-0.140625 -4.125q-1.015625 0.40625 -3.015625 0.703125q-1.140625 0.15625 -1.625 0.375q-0.46875 0.203125 -0.71875 0.59375q-0.25 0.390625 -0.25 0.875q0 0.734375 0.546875 1.234375q0.5625 0.484375 1.640625 0.484375q1.0625 0 1.890625 -0.46875q0.84375 -0.46875 1.234375 -1.265625q0.296875 -0.625 0.296875 -1.84375l0 -0.6875zm8.939819 3.8125l0.265625 1.640625q-0.78125 0.15625 -1.40625 0.15625q-1.0 0 -1.5625 -0.3125q-0.546875 -0.328125 -0.78125 -0.84375q-0.21875 -0.515625 -0.21875 -2.171875l0 -6.265625l-1.34375 0l0 -1.4375l1.34375 0l0 -2.703125l1.84375 -1.09375l0 3.796875l1.859375 0l0 1.4375l-1.859375 0l0 6.359375q0 0.796875 0.09375 1.03125q0.09375 0.21875 0.3125 0.359375q0.21875 0.125 0.640625 0.125q0.296875 0 0.8125 -0.078125zm8.988159 0.3125q-1.015625 0.875 -1.96875 1.234375q-0.953125 0.359375 -2.03125 0.359375q-1.796875 0 -2.765625 -0.875q-0.953125 -0.875 -0.953125 -2.25q0 -0.796875 0.359375 -1.453125q0.359375 -0.671875 0.953125 -1.0625q0.59375 -0.40625 1.328125 -0.609375q0.546875 -0.140625 1.640625 -0.28125q2.234375 -0.265625 3.296875 -0.625q0 -0.390625 0 -0.484375q0 -1.125 -0.515625 -1.59375q-0.71875 -0.625 -2.109375 -0.625q-1.296875 0 -1.921875 0.453125q-0.625 0.453125 -0.921875 1.625l-1.796875 -0.25q0.25 -1.15625 0.8125 -1.859375q0.5625 -0.71875 1.625 -1.109375q1.0625 -0.390625 2.46875 -0.390625q1.40625 0 2.265625 0.328125q0.875 0.328125 1.28125 0.828125q0.421875 0.5 0.578125 1.265625q0.09375 0.46875 0.09375 1.6875l0 2.46875q0 2.578125 0.109375 3.265625q0.125 0.671875 0.46875 1.296875l-1.921875 0q-0.28125 -0.578125 -0.375 -1.34375zm-0.140625 -4.125q-1.015625 0.40625 -3.015625 0.703125q-1.140625 0.15625 -1.625 0.375q-0.46875 0.203125 -0.71875 0.59375q-0.25 0.390625 -0.25 0.875q0 0.734375 0.546875 1.234375q0.5625 0.484375 1.640625 0.484375q1.0625 0 1.890625 -0.46875q0.84375 -0.46875 1.234375 -1.265625q0.296875 -0.625 0.296875 -1.84375l0 -0.6875zm17.927917 4.125q-1.015625 0.875 -1.96875 1.234375q-0.953125 0.359375 -2.03125 0.359375q-1.796875 0 -2.765625 -0.875q-0.953125 -0.875 -0.953125 -2.25q0 -0.796875 0.359375 -1.453125q0.359375 -0.671875 0.953125 -1.0625q0.59375 -0.40625 1.328125 -0.609375q0.546875 -0.140625 1.640625 -0.28125q2.234375 -0.265625 3.296875 -0.625q0 -0.390625 0 -0.484375q0 -1.125 -0.515625 -1.59375q-0.71875 -0.625 -2.109375 -0.625q-1.296875 0 -1.921875 0.453125q-0.625 0.453125 -0.921875 1.625l-1.796875 -0.25q0.25 -1.15625 0.8125 -1.859375q0.5625 -0.71875 1.625 -1.109375q1.0625 -0.390625 2.46875 -0.390625q1.40625 0 2.265625 0.328125q0.875 0.328125 1.28125 0.828125q0.421875 0.5 0.578125 1.265625q0.09375 0.46875 0.09375 1.6875l0 2.46875q0 2.578125 0.109375 3.265625q0.125 0.671875 0.46875 1.296875l-1.921875 0q-0.28125 -0.578125 -0.375 -1.34375zm-0.140625 -4.125q-1.015625 0.40625 -3.015625 0.703125q-1.140625 0.15625 -1.625 0.375q-0.46875 0.203125 -0.71875 0.59375q-0.25 0.390625 -0.25 0.875q0 0.734375 0.546875 1.234375q0.5625 0.484375 1.640625 0.484375q1.0625 0 1.890625 -0.46875q0.84375 -0.46875 1.234375 -1.265625q0.296875 -0.625 0.296875 -1.84375l0 -0.6875zm4.9085693 5.46875l0 -10.890625l1.65625 0l0 1.546875q1.203125 -1.796875 3.46875 -1.796875q0.984375 0 1.796875 0.359375q0.828125 0.359375 1.234375 0.9375q0.421875 0.5625 0.578125 1.359375q0.109375 0.5 0.109375 1.78125l0 6.703125l-1.84375 0l0 -6.625q0 -1.125 -0.21875 -1.6875q-0.21875 -0.5625 -0.765625 -0.890625q-0.546875 -0.328125 -1.28125 -0.328125q-1.1875 0 -2.046875 0.75q-0.84375 0.734375 -0.84375 2.828125l0 5.953125l-1.84375 0zm18.924194 0l0 -1.375q-1.046875 1.625 -3.046875 1.625q-1.296875 0 -2.390625 -0.71875q-1.09375 -0.71875 -1.703125 -2.0q-0.59375 -1.296875 -0.59375 -2.96875q0 -1.625 0.546875 -2.953125q0.546875 -1.328125 1.625 -2.03125q1.09375 -0.71875 2.4375 -0.71875q0.984375 0 1.75 0.421875q0.765625 0.40625 1.25 1.078125l0 -5.390625l1.828125 0l0 15.03125l-1.703125 0zm-5.84375 -5.4375q0 2.09375 0.875 3.140625q0.890625 1.03125 2.09375 1.03125q1.203125 0 2.046875 -0.984375q0.859375 -1.0 0.859375 -3.03125q0 -2.234375 -0.875 -3.28125q-0.859375 -1.046875 -2.109375 -1.046875q-1.234375 0 -2.0625 1.015625q-0.828125 1.0 -0.828125 3.15625zm16.568604 9.609375l0 -15.0625l1.671875 0l0 1.421875q0.59375 -0.84375 1.34375 -1.25q0.75 -0.421875 1.8125 -0.421875q1.40625 0 2.46875 0.71875q1.0625 0.71875 1.609375 2.03125q0.546875 1.3125 0.546875 2.859375q0 1.671875 -0.609375 3.015625q-0.59375 1.34375 -1.734375 2.0625q-1.140625 0.703125 -2.40625 0.703125q-0.921875 0 -1.65625 -0.390625q-0.734375 -0.390625 -1.203125 -0.984375l0 5.296875l-1.84375 0zm1.671875 -9.5625q0 2.109375 0.84375 3.125q0.859375 1.0 2.0625 1.0q1.234375 0 2.109375 -1.046875q0.875 -1.046875 0.875 -3.21875q0 -2.09375 -0.859375 -3.125q-0.859375 -1.03125 -2.046875 -1.03125q-1.171875 0 -2.078125 1.109375q-0.90625 1.09375 -0.90625 3.1875zm10.158569 5.390625l0 -10.890625l1.671875 0l0 1.65625q0.625 -1.15625 1.15625 -1.53125q0.546875 -0.375 1.203125 -0.375q0.921875 0 1.890625 0.59375l-0.640625 1.71875q-0.671875 -0.40625 -1.34375 -0.40625q-0.609375 0 -1.09375 0.375q-0.484375 0.359375 -0.6875 1.0q-0.3125 0.984375 -0.3125 2.15625l0 5.703125l-1.84375 0zm6.446167 -5.4375q0 -3.03125 1.671875 -4.484375q1.40625 -1.21875 3.421875 -1.21875q2.25 0 3.671875 1.484375q1.4375 1.46875 1.4375 4.0625q0 2.09375 -0.640625 3.296875q-0.625 1.203125 -1.828125 1.875q-1.203125 0.671875 -2.640625 0.671875q-2.28125 0 -3.6875 -1.46875q-1.40625 -1.46875 -1.40625 -4.21875zm1.890625 0q0 2.078125 0.90625 3.125q0.921875 1.046875 2.296875 1.046875q1.375 0 2.28125 -1.046875q0.921875 -1.046875 0.921875 -3.1875q0 -2.03125 -0.921875 -3.0625q-0.90625 -1.046875 -2.28125 -1.046875q-1.375 0 -2.296875 1.046875q-0.90625 1.03125 -0.90625 3.125zm17.72107 5.4375l0 -1.375q-1.046875 1.625 -3.046875 1.625q-1.296875 0 -2.390625 -0.71875q-1.09375 -0.71875 -1.703125 -2.0q-0.59375 -1.296875 -0.59375 -2.96875q0 -1.625 0.546875 -2.953125q0.546875 -1.328125 1.625 -2.03125q1.09375 -0.71875 2.4375 -0.71875q0.984375 0 1.75 0.421875q0.765625 0.40625 1.25 1.078125l0 -5.390625l1.828125 0l0 15.03125l-1.703125 0zm-5.84375 -5.4375q0 2.09375 0.875 3.140625q0.890625 1.03125 2.09375 1.03125q1.203125 0 2.046875 -0.984375q0.859375 -1.0 0.859375 -3.03125q0 -2.234375 -0.875 -3.28125q-0.859375 -1.046875 -2.109375 -1.046875q-1.234375 0 -2.0625 1.015625q-0.828125 1.0 -0.828125 3.15625zm17.767944 5.4375l0 -1.59375q-1.265625 1.84375 -3.453125 1.84375q-0.953125 0 -1.796875 -0.375q-0.828125 -0.375 -1.234375 -0.921875q-0.40625 -0.5625 -0.578125 -1.375q-0.109375 -0.546875 -0.109375 -1.71875l0 -6.75l1.84375 0l0 6.046875q0 1.4375 0.109375 1.9375q0.171875 0.734375 0.734375 1.15625q0.578125 0.40625 1.40625 0.40625q0.828125 0 1.546875 -0.421875q0.734375 -0.421875 1.03125 -1.15625q0.3125 -0.734375 0.3125 -2.140625l0 -5.828125l1.84375 0l0 10.890625l-1.65625 0zm11.830444 -3.984375l1.828125 0.234375q-0.296875 1.875 -1.53125 2.9375q-1.21875 1.0625 -3.015625 1.0625q-2.234375 0 -3.59375 -1.453125q-1.34375 -1.46875 -1.34375 -4.203125q0 -1.765625 0.578125 -3.078125q0.578125 -1.328125 1.765625 -1.984375q1.203125 -0.671875 2.609375 -0.671875q1.78125 0 2.90625 0.90625q1.125 0.890625 1.4375 2.546875l-1.78125 0.28125q-0.265625 -1.109375 -0.921875 -1.65625q-0.640625 -0.5625 -1.5625 -0.5625q-1.40625 0 -2.28125 1.0q-0.859375 1.0 -0.859375 3.171875q0 2.1875 0.84375 3.1875q0.84375 1.0 2.1875 1.0q1.09375 0 1.8125 -0.671875q0.734375 -0.671875 0.921875 -2.046875zm7.6015625 2.328125l0.265625 1.640625q-0.78125 0.15625 -1.40625 0.15625q-1.0 0 -1.5625 -0.3125q-0.546875 -0.328125 -0.78125 -0.84375q-0.21875 -0.515625 -0.21875 -2.171875l0 -6.265625l-1.34375 0l0 -1.4375l1.34375 0l0 -2.703125l1.84375 -1.09375l0 3.796875l1.859375 0l0 1.4375l-1.859375 0l0 6.359375q0 0.796875 0.09375 1.03125q0.09375 0.21875 0.3125 0.359375q0.21875 0.125 0.640625 0.125q0.296875 0 0.8125 -0.078125zm1.7694092 -11.390625l0 -2.140625l1.984375 0l0 1.6875q0 1.375 -0.3125 1.984375q-0.453125 0.828125 -1.375 1.25l-0.453125 -0.734375q0.546875 -0.21875 0.8125 -0.703125q0.28125 -0.484375 0.3125 -1.34375l-0.96875 0zm4.1134644 9.796875l1.828125 -0.28125q0.15625 1.09375 0.859375 1.6875q0.703125 0.578125 1.96875 0.578125q1.265625 0 1.875 -0.515625q0.625 -0.53125 0.625 -1.21875q0 -0.625 -0.546875 -0.984375q-0.375 -0.25 -1.890625 -0.625q-2.03125 -0.515625 -2.8125 -0.890625q-0.78125 -0.375 -1.1875 -1.03125q-0.40625 -0.671875 -0.40625 -1.46875q0 -0.71875 0.328125 -1.34375q0.34375 -0.625 0.90625 -1.03125q0.4375 -0.3125 1.171875 -0.53125q0.75 -0.234375 1.609375 -0.234375q1.28125 0 2.25 0.375q0.96875 0.375 1.421875 1.0q0.46875 0.625 0.640625 1.6875l-1.8125 0.25q-0.109375 -0.84375 -0.703125 -1.3125q-0.59375 -0.484375 -1.671875 -0.484375q-1.265625 0 -1.8125 0.421875q-0.546875 0.421875 -0.546875 0.984375q0 0.359375 0.234375 0.65625q0.21875 0.296875 0.703125 0.484375q0.28125 0.109375 1.625 0.46875q1.96875 0.53125 2.734375 0.859375q0.78125 0.328125 1.21875 0.96875q0.4375 0.640625 0.4375 1.578125q0 0.921875 -0.546875 1.75q-0.53125 0.8125 -1.546875 1.265625q-1.015625 0.4375 -2.296875 0.4375q-2.125 0 -3.234375 -0.875q-1.109375 -0.890625 -1.421875 -2.625zm17.33966 3.25l0 -15.03125l1.84375 0l0 8.578125l4.375 -4.4375l2.390625 0l-4.171875 4.046875l4.59375 6.84375l-2.28125 0l-3.59375 -5.5625l-1.3125 1.25l0 4.3125l-1.84375 0zm18.117188 -3.5l1.90625 0.234375q-0.453125 1.671875 -1.671875 2.59375q-1.21875 0.921875 -3.125 0.921875q-2.390625 0 -3.796875 -1.46875q-1.390625 -1.484375 -1.390625 -4.140625q0 -2.734375 1.40625 -4.25q1.421875 -1.53125 3.6875 -1.53125q2.1875 0 3.5625 1.5q1.390625 1.484375 1.390625 4.171875q0 0.171875 -0.015625 0.5l-8.125 0q0.109375 1.796875 1.015625 2.75q0.921875 0.953125 2.28125 0.953125q1.015625 0 1.734375 -0.53125q0.71875 -0.546875 1.140625 -1.703125zm-6.0625 -2.984375l6.078125 0q-0.125 -1.375 -0.703125 -2.0625q-0.875 -1.078125 -2.28125 -1.078125q-1.265625 0 -2.140625 0.859375q-0.859375 0.84375 -0.953125 2.28125zm10.377319 10.671875l-0.203125 -1.71875q0.609375 0.15625 1.0625 0.15625q0.609375 0 0.96875 -0.203125q0.375 -0.203125 0.625 -0.578125q0.171875 -0.28125 0.5625 -1.375q0.046875 -0.15625 0.15625 -0.453125l-4.125 -10.90625l1.984375 0l2.265625 6.3125q0.4375 1.1875 0.796875 2.515625q0.3125 -1.265625 0.75 -2.484375l2.328125 -6.34375l1.84375 0l-4.140625 11.078125q-0.671875 1.796875 -1.03125 2.46875q-0.5 0.90625 -1.140625 1.328125q-0.625 0.4375 -1.515625 0.4375q-0.53125 0 -1.1875 -0.234375z" fill-rule="nonzero"></path><path fill="#595959" d="m494.42188 133.08041l0.265625 1.640625q-0.78125 0.15625 -1.40625 0.15625q-1.0 0 -1.5625 -0.3125q-0.546875 -0.328125 -0.78125 -0.84375q-0.21875 -0.515625 -0.21875 -2.171875l0 -6.265625l-1.34375 0l0 -1.4375l1.34375 0l0 -2.703125l1.84375 -1.09375l0 3.796875l1.859375 0l0 1.4375l-1.859375 0l0 6.359375q0 0.796875 0.09375 1.03125q0.09375 0.21875 0.3125 0.359375q0.21875 0.125 0.640625 0.125q0.296875 0 0.8125 -0.078125zm8.988159 0.3125q-1.015625 0.875 -1.96875 1.234375q-0.953125 0.359375 -2.03125 0.359375q-1.796875 0 -2.765625 -0.875q-0.953125 -0.875 -0.953125 -2.25q0 -0.796875 0.359375 -1.453125q0.359375 -0.671875 0.953125 -1.0625q0.59375 -0.40625 1.328125 -0.609375q0.546875 -0.140625 1.640625 -0.28125q2.234375 -0.265625 3.296875 -0.625q0 -0.390625 0 -0.484375q0 -1.125 -0.515625 -1.59375q-0.71875 -0.625 -2.109375 -0.625q-1.296875 0 -1.921875 0.453125q-0.625 0.453125 -0.921875 1.625l-1.796875 -0.25q0.25 -1.15625 0.8125 -1.859375q0.5625 -0.71875 1.625 -1.109375q1.0625 -0.390625 2.46875 -0.390625q1.40625 0 2.265625 0.328125q0.875 0.328125 1.28125 0.828125q0.421875 0.5 0.578125 1.265625q0.09375 0.46875 0.09375 1.6875l0 2.46875q0 2.578125 0.109375 3.265625q0.125 0.671875 0.46875 1.296875l-1.921875 0q-0.28125 -0.578125 -0.375 -1.34375zm-0.140625 -4.125q-1.015625 0.40625 -3.015625 0.703125q-1.140625 0.15625 -1.625 0.375q-0.46875 0.203125 -0.71875 0.59375q-0.25 0.390625 -0.25 0.875q0 0.734375 0.546875 1.234375q0.5625 0.484375 1.640625 0.484375q1.0625 0 1.890625 -0.46875q0.84375 -0.46875 1.234375 -1.265625q0.296875 -0.625 0.296875 -1.84375l0 -0.6875zm4.1585693 2.21875l1.828125 -0.28125q0.15625 1.09375 0.859375 1.6875q0.703125 0.578125 1.96875 0.578125q1.265625 0 1.875 -0.515625q0.625 -0.53125 0.625 -1.21875q0 -0.625 -0.546875 -0.984375q-0.375 -0.25 -1.890625 -0.625q-2.03125 -0.515625 -2.8125 -0.890625q-0.78125 -0.375 -1.1875 -1.03125q-0.40625 -0.671875 -0.40625 -1.46875q0 -0.71875 0.328125 -1.34375q0.34375 -0.625 0.90625 -1.03125q0.4375 -0.3125 1.171875 -0.53125q0.75 -0.234375 1.609375 -0.234375q1.28125 0 2.25 0.375q0.96875 0.375 1.421875 1.0q0.46875 0.625 0.640625 1.6875l-1.8125 0.25q-0.109375 -0.84375 -0.703125 -1.3125q-0.59375 -0.484375 -1.671875 -0.484375q-1.265625 0 -1.8125 0.421875q-0.546875 0.421875 -0.546875 0.984375q0 0.359375 0.234375 0.65625q0.21875 0.296875 0.703125 0.484375q0.28125 0.109375 1.625 0.46875q1.96875 0.53125 2.734375 0.859375q0.78125 0.328125 1.21875 0.96875q0.4375 0.640625 0.4375 1.578125q0 0.921875 -0.546875 1.75q-0.53125 0.8125 -1.546875 1.265625q-1.015625 0.4375 -2.296875 0.4375q-2.125 0 -3.234375 -0.875q-1.109375 -0.890625 -1.421875 -2.625zm11.4140625 3.25l0 -15.03125l1.84375 0l0 8.578125l4.375 -4.4375l2.390625 0l-4.171875 4.046875l4.59375 6.84375l-2.28125 0l-3.59375 -5.5625l-1.3125 1.25l0 4.3125l-1.84375 0zm9.9140625 -3.25l1.828125 -0.28125q0.15625 1.09375 0.859375 1.6875q0.703125 0.578125 1.96875 0.578125q1.265625 0 1.875 -0.515625q0.625 -0.53125 0.625 -1.21875q0 -0.625 -0.546875 -0.984375q-0.375 -0.25 -1.890625 -0.625q-2.03125 -0.515625 -2.8125 -0.890625q-0.78125 -0.375 -1.1875 -1.03125q-0.40625 -0.671875 -0.40625 -1.46875q0 -0.71875 0.328125 -1.34375q0.34375 -0.625 0.90625 -1.03125q0.4375 -0.3125 1.171875 -0.53125q0.75 -0.234375 1.609375 -0.234375q1.28125 0 2.25 0.375q0.96875 0.375 1.421875 1.0q0.46875 0.625 0.640625 1.6875l-1.8125 0.25q-0.109375 -0.84375 -0.703125 -1.3125q-0.59375 -0.484375 -1.671875 -0.484375q-1.265625 0 -1.8125 0.421875q-0.546875 0.421875 -0.546875 0.984375q0 0.359375 0.234375 0.65625q0.21875 0.296875 0.703125 0.484375q0.28125 0.109375 1.625 0.46875q1.96875 0.53125 2.734375 0.859375q0.78125 0.328125 1.21875 0.96875q0.4375 0.640625 0.4375 1.578125q0 0.921875 -0.546875 1.75q-0.53125 0.8125 -1.546875 1.265625q-1.015625 0.4375 -2.296875 0.4375q-2.125 0 -3.234375 -0.875q-1.109375 -0.890625 -1.421875 -2.625zm11.9296875 3.25l0 -2.109375l2.109375 0l0 2.109375l-2.109375 0z" fill-rule="nonzero"></path></g></svg>

