<?xml version="1.0" standalone="yes"?>

<svg version="1.1" viewBox="0.0 0.0 960.0 540.0" fill="none" stroke="none" stroke-linecap="square" stroke-miterlimit="10" xmlns="http://www.w3.org/2000/svg" xmlns:xlink="http://www.w3.org/1999/xlink"><clipPath id="g1858cd17d3_0_436.0"><path d="m0 0l960.0 0l0 540.0l-960.0 0l0 -540.0z" clip-rule="nonzero"></path></clipPath><g clip-path="url(#g1858cd17d3_0_436.0)"><path fill="#ffffff" d="m0 0l960.0 0l0 540.0l-960.0 0z" fill-rule="nonzero"></path><path fill="#ffffff" d="m0 0l960.0 0l0 540.0l-960.0 0z" fill-rule="nonzero"></path><path fill="#000000" fill-opacity="0.0" d="m48.958004 37.164803l69.291336 0" fill-rule="nonzero"></path><path stroke="#000000" stroke-width="8.0" stroke-linejoin="round" stroke-linecap="butt" d="m48.958004 37.164803l69.291336 0" fill-rule="nonzero"></path><path fill="#000000" fill-opacity="0.0" d="m36.671917 47.257217l236.44093 0l0 432.063l-236.44093 0z" fill-rule="nonzero"></path><path fill="#000000" d="m49.171917 102.33722l0 -34.359375l11.125 0q6.328121 0 8.249996 0.515625q2.953125 0.765625 4.9375 3.359375q2.0 2.59375 2.0 6.6875q0 3.171875 -1.15625 5.328125q-1.140625 2.15625 -2.90625 3.390625q-1.765625 1.21875 -3.59375 1.625q-2.484375 0.484375 -7.203121 0.484375l-4.515625 0l0 12.96875l-6.9375 0zm6.9375 -28.546875l0 9.75l3.796875 0q4.093746 0 5.468746 -0.53125q1.390625 -0.546875 2.171875 -1.6875q0.796875 -1.15625 0.796875 -2.6875q0 -1.875 -1.109375 -3.09375q-1.09375 -1.21875 -2.78125 -1.515625q-1.2499962 -0.234375 -4.999996 -0.234375l-3.34375 0zm39.437496 20.625l6.5625 1.09375q-1.265625 3.609375 -4.0 5.5q-2.71875 1.890625 -6.828125 1.890625q-6.484375 0 -9.609375 -4.25q-2.453125 -3.390625 -2.453125 -8.578125q0 -6.1875 3.234375 -9.6875q3.234375 -3.5 8.171875 -3.5q5.5625 0 8.765625 3.671875q3.21875 3.65625 3.078125 11.234375l-16.5 0q0.0625 2.921875 1.578125 4.5625q1.53125 1.625 3.8125 1.625q1.546875 0 2.59375 -0.84375q1.0625 -0.84375 1.59375 -2.71875zm0.375 -6.65625q-0.0625 -2.859375 -1.46875 -4.34375q-1.40625 -1.5 -3.421875 -1.5q-2.15625 0 -3.5625 1.578125q-1.40625 1.5625 -1.390625 4.265625l9.84375 0zm18.210938 14.578125l-6.578125 0l0 -24.890625l6.109375 0l0 3.53125q1.578125 -2.5 2.828125 -3.296875q1.25 -0.796875 2.84375 -0.796875q2.25 0 4.34375 1.234375l-2.046875 5.75q-1.65625 -1.078125 -3.09375 -1.078125q-1.375 0 -2.34375 0.765625q-0.953125 0.75 -1.515625 2.75q-0.546875 1.984375 -0.546875 8.34375l0 7.6875zm10.0546875 -7.109375l6.6093826 -1.0q0.421875 1.921875 1.703125 2.921875q1.296875 0.984375 3.625 0.984375q2.546875 0 3.84375 -0.9375q0.859375 -0.65625 0.859375 -1.75q0 -0.75 -0.46875 -1.25q-0.484375 -0.46875 -2.203125 -0.859375q-7.96875 -1.765625 -10.09375 -3.21875q-2.9531326 -2.015625 -2.9531326 -5.59375q0 -3.234375 2.546875 -5.4375q2.5625076 -2.203125 7.9218826 -2.203125q5.109375 0 7.59375 1.671875q2.484375 1.65625 3.421875 4.90625l-6.203125 1.15625q-0.40625 -1.453125 -1.515625 -2.21875q-1.109375 -0.78125 -3.171875 -0.78125q-2.609375 0 -3.734375 0.71875q-0.75 0.515625 -0.75 1.34375q0 0.703125 0.65625 1.1875q0.890625 0.65625 6.15625 1.859375q5.265625 1.1875 7.34375 2.921875q2.0625 1.765625 2.0625 4.90625q0 3.421875 -2.859375 5.890625q-2.859375 2.453125 -8.453125 2.453125q-5.09375 0 -8.0625 -2.0625q-2.9531326 -2.0625 -3.8750076 -5.609375zm27.492195 -5.6875q0 -3.28125 1.609375 -6.34375q1.625 -3.078125 4.59375 -4.6875q2.96875 -1.625 6.625 -1.625q5.640625 0 9.25 3.671875q3.609375 3.65625 3.609375 9.265625q0 5.640625 -3.640625 9.359375q-3.640625 3.71875 -9.171875 3.71875q-3.421875 0 -6.53125 -1.546875q-3.109375 -1.546875 -4.734375 -4.53125q-1.609375 -3.0 -1.609375 -7.28125zm6.75 0.34375q0 3.703125 1.75 5.671875q1.765625 1.96875 4.34375 1.96875q2.578125 0 4.328125 -1.96875q1.75 -1.96875 1.75 -5.71875q0 -3.65625 -1.75 -5.625q-1.75 -1.96875 -4.328125 -1.96875q-2.578125 0 -4.34375 1.96875q-1.75 1.96875 -1.75 5.671875zm46.742188 12.453125l-6.59375 0l0 -12.703125q0 -4.03125 -0.421875 -5.21875q-0.421875 -1.1875 -1.375 -1.84375q-0.9375 -0.65625 -2.28125 -0.65625q-1.703125 0 -3.0625 0.9375q-1.359375 0.9375 -1.875 2.484375q-0.5 1.546875 -0.5 5.71875l0 11.28125l-6.578125 0l0 -24.890625l6.109375 0l0 3.65625q3.265625 -4.21875 8.203125 -4.21875q2.1875 0 3.984375 0.78125q1.8125 0.78125 2.734375 2.0q0.921875 1.21875 1.28125 2.765625q0.375 1.546875 0.375 4.4375l0 15.46875zm11.6015625 -17.296875l-5.984375 -1.078125q1.015625 -3.609375 3.46875 -5.34375q2.46875 -1.734375 7.3125 -1.734375q4.40625 0 6.5625 1.046875q2.15625 1.03125 3.03125 2.640625q0.890625 1.609375 0.890625 5.890625l-0.078125 7.6875q0 3.28125 0.3125 4.84375q0.328125 1.5625 1.1875 3.34375l-6.515625 0q-0.25 -0.65625 -0.625 -1.953125q-0.171875 -0.578125 -0.234375 -0.765625q-1.6875 1.640625 -3.609375 2.46875q-1.921875 0.8125 -4.109375 0.8125q-3.84375 0 -6.0625 -2.078125q-2.203125 -2.09375 -2.203125 -5.28125q0 -2.109375 1.0 -3.765625q1.015625 -1.65625 2.828125 -2.53125q1.8125 -0.875 5.234375 -1.53125q4.625 -0.875 6.40625 -1.625l0 -0.65625q0 -1.890625 -0.9375 -2.703125q-0.9375 -0.8125 -3.546875 -0.8125q-1.75 0 -2.734375 0.703125q-0.984375 0.6875 -1.59375 2.421875zm8.8125 5.34375q-1.265625 0.421875 -4.015625 1.015625q-2.734375 0.578125 -3.578125 1.140625q-1.296875 0.90625 -1.296875 2.3125q0 1.390625 1.03125 2.40625q1.03125 1.0 2.625 1.0q1.78125 0 3.40625 -1.171875q1.1875 -0.890625 1.5625 -2.1875q0.265625 -0.84375 0.265625 -3.203125l0 -1.3125zm10.6328125 4.84375l6.609375 -1.0q0.421875 1.921875 1.703125 2.921875q1.296875 0.984375 3.625 0.984375q2.546875 0 3.84375 -0.9375q0.859375 -0.65625 0.859375 -1.75q0 -0.75 -0.46875 -1.25q-0.484375 -0.46875 -2.203125 -0.859375q-7.96875 -1.765625 -10.09375 -3.21875q-2.953125 -2.015625 -2.953125 -5.59375q0 -3.234375 2.546875 -5.4375q2.5625 -2.203125 7.921875 -2.203125q5.109375 0 7.59375 1.671875q2.4843597 1.65625 3.4218597 4.90625l-6.2031097 1.15625q-0.40625 -1.453125 -1.515625 -2.21875q-1.109375 -0.78125 -3.171875 -0.78125q-2.609375 0 -3.734375 0.71875q-0.75 0.515625 -0.75 1.34375q0 0.703125 0.65625 1.1875q0.890625 0.65625 6.15625 1.859375q5.265625 1.1875 7.3437347 2.921875q2.0625 1.765625 2.0625 4.90625q0 3.421875 -2.859375 5.890625q-2.8593597 2.453125 -8.45311 2.453125q-5.09375 0 -8.0625 -2.0625q-2.953125 -2.0625 -3.875 -5.609375z" fill-rule="nonzero"></path><path fill="#000000" fill-opacity="0.0" d="m273.11285 47.257217l650.2362 0l0 432.063l-650.2362 0z" fill-rule="nonzero"></path><path fill="#595959" d="m296.15366 76.73722l-1.84375 0l0 -11.765625q-0.671875 0.640625 -1.765625 1.28125q-1.078125 0.625 -1.9375 0.953125l0 -1.796875q1.546875 -0.71875 2.703125 -1.7500038q1.171875 -1.046875 1.65625 -2.015625l1.1875 0l0 15.093754zm5.9398193 0l0 -2.109375l2.109375 0l0 2.109375l-2.109375 0z" fill-rule="nonzero"></path><path fill="#595959" d="m330.72223 72.471596l1.796875 -0.25q0.0625 1.71875 0.640625 2.359375q0.578125 0.640625 1.59375 0.640625q0.75 0 1.28125 -0.34375q0.546875 -0.34375 0.75 -0.9375q0.203125 -0.59375 0.203125 -1.875l0 -10.359379l2.0 0l0 10.250004q0 1.875 -0.46875 2.921875q-0.453125 1.03125 -1.4375 1.578125q-0.984375 0.53125 -2.328125 0.53125q-1.96875 0 -3.03125 -1.125q-1.046875 -1.140625 -1.0 -3.390625zm18.539062 2.921875q-1.015625 0.875 -1.96875 1.234375q-0.953125 0.359375 -2.03125 0.359375q-1.796875 0 -2.765625 -0.875q-0.953125 -0.875 -0.953125 -2.25q0 -0.796875 0.359375 -1.453125q0.359375 -0.671875 0.953125 -1.0625q0.59375 -0.40625 1.328125 -0.609375q0.546875 -0.140625 1.640625 -0.28125q2.234375 -0.265625 3.296875 -0.625q0 -0.390625 0 -0.484375q0 -1.125 -0.515625 -1.59375q-0.71875 -0.625 -2.109375 -0.625q-1.296875 0 -1.921875 0.453125q-0.625 0.453125 -0.921875 1.625l-1.796875 -0.25q0.25 -1.15625 0.8125 -1.859375q0.5625 -0.71875 1.625 -1.109375q1.0625 -0.390625 2.46875 -0.390625q1.40625 0 2.265625 0.328125q0.875 0.328125 1.28125 0.828125q0.421875 0.5 0.578125 1.265625q0.09375 0.46875 0.09375 1.6875l0 2.46875q0 2.578125 0.109375 3.265625q0.125 0.671875 0.46875 1.296875l-1.921875 0q-0.28125 -0.578125 -0.375 -1.34375zm-0.140625 -4.125q-1.015625 0.40625 -3.015625 0.703125q-1.140625 0.15625 -1.625 0.375q-0.46875 0.203125 -0.71875 0.59375q-0.25 0.390625 -0.25 0.875q0 0.734375 0.546875 1.234375q0.5625 0.484375 1.640625 0.484375q1.0625 0 1.890625 -0.46875q0.84375 -0.46875 1.234375 -1.265625q0.296875 -0.625 0.296875 -1.84375l0 -0.6875zm4.9085693 9.640625l0 -15.0625l1.671875 0l0 1.421875q0.59375 -0.84375 1.34375 -1.25q0.75 -0.421875 1.8125 -0.421875q1.40625 0 2.46875 0.71875q1.0625 0.71875 1.609375 2.03125q0.546875 1.3125 0.546875 2.859375q0 1.671875 -0.609375 3.015625q-0.59375 1.34375 -1.734375 2.0625q-1.140625 0.703125 -2.40625 0.703125q-0.921875 0 -1.65625 -0.390625q-0.734375 -0.390625 -1.203125 -0.984375l0 5.296875l-1.84375 0zm1.671875 -9.5625q0 2.109375 0.84375 3.125q0.859375 1.0 2.0625 1.0q1.234375 0 2.109375 -1.046875q0.875 -1.046875 0.875 -3.21875q0 -2.09375 -0.859375 -3.125q-0.859375 -1.03125 -2.046875 -1.03125q-1.171875 0 -2.078125 1.109375q-0.90625 1.09375 -0.90625 3.1875zm17.28357 4.046875q-1.015625 0.875 -1.96875 1.234375q-0.953125 0.359375 -2.03125 0.359375q-1.796875 0 -2.765625 -0.875q-0.953125 -0.875 -0.953125 -2.25q0 -0.796875 0.359375 -1.453125q0.359375 -0.671875 0.953125 -1.0625q0.59375 -0.40625 1.328125 -0.609375q0.546875 -0.140625 1.640625 -0.28125q2.234375 -0.265625 3.296875 -0.625q0 -0.390625 0 -0.484375q0 -1.125 -0.515625 -1.59375q-0.71875 -0.625 -2.109375 -0.625q-1.296875 0 -1.921875 0.453125q-0.625 0.453125 -0.921875 1.625l-1.796875 -0.25q0.25 -1.15625 0.8125 -1.859375q0.5625 -0.71875 1.625 -1.109375q1.0625 -0.390625 2.46875 -0.390625q1.40625 0 2.265625 0.328125q0.875 0.328125 1.28125 0.828125q0.421875 0.5 0.578125 1.265625q0.09375 0.46875 0.09375 1.6875l0 2.46875q0 2.578125 0.109375 3.265625q0.125 0.671875 0.46875 1.296875l-1.921875 0q-0.28125 -0.578125 -0.375 -1.34375zm-0.140625 -4.125q-1.015625 0.40625 -3.015625 0.703125q-1.140625 0.15625 -1.625 0.375q-0.46875 0.203125 -0.71875 0.59375q-0.25 0.390625 -0.25 0.875q0 0.734375 0.546875 1.234375q0.5625 0.484375 1.640625 0.484375q1.0625 0 1.890625 -0.46875q0.84375 -0.46875 1.234375 -1.265625q0.296875 -0.625 0.296875 -1.84375l0 -0.6875zm4.9085693 5.46875l0 -10.890625l1.65625 0l0 1.546875q1.203125 -1.796875 3.46875 -1.796875q0.984375 0 1.796875 0.359375q0.828125 0.359375 1.234375 0.9375q0.421875 0.5625 0.578125 1.359375q0.109375 0.5 0.109375 1.78125l0 6.703125l-1.84375 0l0 -6.625q0 -1.125 -0.21875 -1.6875q-0.21875 -0.5625 -0.765625 -0.890625q-0.546875 -0.328125 -1.28125 -0.328125q-1.1875 0 -2.046875 0.75q-0.84375 0.734375 -0.84375 2.828125l0 5.953125l-1.84375 0zm19.31482 -3.5l1.90625 0.234375q-0.453125 1.671875 -1.671875 2.59375q-1.21875 0.921875 -3.125 0.921875q-2.390625 0 -3.796875 -1.46875q-1.390625 -1.484375 -1.390625 -4.140625q0 -2.734375 1.40625 -4.25q1.421875 -1.53125 3.6875 -1.53125q2.1875 0 3.5625 1.5q1.390625 1.484375 1.390625 4.171875q0 0.171875 -0.015625 0.5l-8.125 0q0.109375 1.796875 1.015625 2.75q0.921875 0.953125 2.28125 0.953125q1.015625 0 1.734375 -0.53125q0.71875 -0.546875 1.140625 -1.703125zm-6.0625 -2.984375l6.078125 0q-0.125 -1.375 -0.703125 -2.0625q-0.875 -1.078125 -2.28125 -1.078125q-1.265625 0 -2.140625 0.859375q-0.859375 0.84375 -0.953125 2.28125zm9.721069 3.234375l1.828125 -0.28125q0.15625 1.09375 0.859375 1.6875q0.703125 0.578125 1.96875 0.578125q1.265625 0 1.875 -0.515625q0.625 -0.53125 0.625 -1.21875q0 -0.625 -0.546875 -0.984375q-0.375 -0.25 -1.890625 -0.625q-2.03125 -0.515625 -2.8125 -0.890625q-0.78125 -0.375 -1.1875 -1.03125q-0.40625 -0.671875 -0.40625 -1.46875q0 -0.71875 0.328125 -1.34375q0.34375 -0.625 0.90625 -1.03125q0.4375 -0.3125 1.171875 -0.53125q0.75 -0.234375 1.609375 -0.234375q1.28125 0 2.25 0.375q0.96875 0.375 1.421875 1.0q0.46875 0.625 0.640625 1.6875l-1.8125 0.25q-0.109375 -0.84375 -0.703125 -1.3125q-0.59375 -0.484375 -1.671875 -0.484375q-1.265625 0 -1.8125 0.421875q-0.546875 0.421875 -0.546875 0.984375q0 0.359375 0.234375 0.65625q0.21875 0.296875 0.703125 0.484375q0.28125 0.109375 1.625 0.46875q1.96875 0.53125 2.734375 0.859375q0.78125 0.328125 1.21875 0.96875q0.4375 0.640625 0.4375 1.578125q0 0.921875 -0.546875 1.75q-0.53125 0.8125 -1.546875 1.265625q-1.015625 0.4375 -2.296875 0.4375q-2.125 0 -3.234375 -0.875q-1.109375 -0.890625 -1.421875 -2.625zm18.867188 -0.25l1.90625 0.234375q-0.453125 1.671875 -1.671875 2.59375q-1.21875 0.921875 -3.125 0.921875q-2.390625 0 -3.796875 -1.46875q-1.390625 -1.484375 -1.390625 -4.140625q0 -2.734375 1.40625 -4.25q1.421875 -1.53125 3.6875 -1.53125q2.1875 0 3.5625 1.5q1.390625 1.484375 1.390625 4.171875q0 0.171875 -0.015625 0.5l-8.125 0q0.109375 1.796875 1.015625 2.75q0.921875 0.953125 2.28125 0.953125q1.015625 0 1.734375 -0.53125q0.71875 -0.546875 1.140625 -1.703125zm-6.0625 -2.984375l6.078125 0q-0.125 -1.375 -0.703125 -2.0625q-0.875 -1.078125 -2.28125 -1.078125q-1.265625 0 -2.140625 0.859375q-0.859375 0.84375 -0.953125 2.28125zm16.834229 6.484375l0 -9.453125l-1.640625 0l0 -1.4375l1.640625 0l0 -1.15625q0 -1.0937538 0.1875 -1.6250038q0.265625 -0.71875 0.9375 -1.15625q0.671875 -0.453125 1.890625 -0.453125q0.78125 0 1.71875 0.171875l-0.28125 1.609375q-0.5625 -0.09375 -1.078125 -0.09375q-0.84375 0 -1.203125 0.359375q-0.34375 0.359375 -0.34375 1.3437538l0 1.0l2.125 0l0 1.4375l-2.125 0l0 9.453125l-1.828125 0zm4.8006287 -5.4375q0 -3.03125 1.671875 -4.484375q1.40625 -1.21875 3.421875 -1.21875q2.25 0 3.671875 1.484375q1.4375 1.46875 1.4375 4.0625q0 2.09375 -0.640625 3.296875q-0.625 1.203125 -1.828125 1.875q-1.203125 0.671875 -2.640625 0.671875q-2.28125 0 -3.6875 -1.46875q-1.40625 -1.46875 -1.40625 -4.21875zm1.890625 0q0 2.078125 0.90625 3.125q0.921875 1.046875 2.296875 1.046875q1.375 0 2.28125 -1.046875q0.921875 -1.046875 0.921875 -3.1875q0 -2.03125 -0.921875 -3.0625q-0.90625 -1.046875 -2.28125 -1.046875q-1.375 0 -2.296875 1.046875q-0.90625 1.03125 -0.90625 3.125zm9.971069 0q0 -3.03125 1.671875 -4.484375q1.40625 -1.21875 3.421875 -1.21875q2.25 0 3.671875 1.484375q1.4375 1.46875 1.4375 4.0625q0 2.09375 -0.640625 3.296875q-0.625 1.203125 -1.828125 1.875q-1.203125 0.671875 -2.640625 0.671875q-2.28125 0 -3.6875 -1.46875q-1.40625 -1.46875 -1.40625 -4.21875zm1.890625 0q0 2.078125 0.90625 3.125q0.921875 1.046875 2.296875 1.046875q1.375 0 2.28125 -1.046875q0.921875 -1.046875 0.921875 -3.1875q0 -2.03125 -0.921875 -3.0625q-0.90625 -1.046875 -2.28125 -1.046875q-1.375 0 -2.296875 1.046875q-0.90625 1.03125 -0.90625 3.125zm17.72107 5.4375l0 -1.375q-1.046875 1.625 -3.046875 1.625q-1.296875 0 -2.390625 -0.71875q-1.09375 -0.71875 -1.703125 -2.0q-0.59375 -1.296875 -0.59375 -2.96875q0 -1.625 0.546875 -2.953125q0.546875 -1.328125 1.625 -2.03125q1.09375 -0.71875 2.4375 -0.71875q0.984375 0 1.75 0.421875q0.765625 0.40625 1.25 1.078125l0 -5.390629l1.828125 0l0 15.031254l-1.703125 0zm-5.84375 -5.4375q0 2.09375 0.875 3.140625q0.890625 1.03125 2.09375 1.03125q1.203125 0 2.046875 -0.984375q0.859375 -1.0 0.859375 -3.03125q0 -2.234375 -0.875 -3.28125q-0.859375 -1.046875 -2.109375 -1.046875q-1.234375 0 -2.0625 1.015625q-0.828125 1.0 -0.828125 3.15625zm16.537354 5.4375l0 -10.890625l1.671875 0l0 1.65625q0.625 -1.15625 1.15625 -1.53125q0.546875 -0.375 1.203125 -0.375q0.921875 0 1.890625 0.59375l-0.640625 1.71875q-0.671875 -0.40625 -1.34375 -0.40625q-0.609375 0 -1.09375 0.375q-0.484375 0.359375 -0.6875 1.0q-0.3125 0.984375 -0.3125 2.15625l0 5.703125l-1.84375 0zm14.586792 -3.5l1.90625 0.234375q-0.453125 1.671875 -1.671875 2.59375q-1.21875 0.921875 -3.125 0.921875q-2.390625 0 -3.796875 -1.46875q-1.390625 -1.484375 -1.390625 -4.140625q0 -2.734375 1.40625 -4.25q1.421875 -1.53125 3.6875 -1.53125q2.1875 0 3.5625 1.5q1.390625 1.484375 1.390625 4.171875q0 0.171875 -0.015625 0.5l-8.125 0q0.109375 1.796875 1.015625 2.75q0.921875 0.953125 2.28125 0.953125q1.015625 0 1.734375 -0.53125q0.71875 -0.546875 1.140625 -1.703125zm-6.0625 -2.984375l6.078125 0q-0.125 -1.375 -0.703125 -2.0625q-0.875 -1.078125 -2.28125 -1.078125q-1.265625 0 -2.140625 0.859375q-0.859375 0.84375 -0.953125 2.28125zm9.721069 3.234375l1.828125 -0.28125q0.15625 1.09375 0.859375 1.6875q0.703125 0.578125 1.96875 0.578125q1.265625 0 1.875 -0.515625q0.625 -0.53125 0.625 -1.21875q0 -0.625 -0.546875 -0.984375q-0.375 -0.25 -1.890625 -0.625q-2.03125 -0.515625 -2.8125 -0.890625q-0.78125 -0.375 -1.1875 -1.03125q-0.40625 -0.671875 -0.40625 -1.46875q0 -0.71875 0.328125 -1.34375q0.34375 -0.625 0.90625 -1.03125q0.4375 -0.3125 1.171875 -0.53125q0.75 -0.234375 1.609375 -0.234375q1.28125 0 2.25 0.375q0.96875 0.375 1.421875 1.0q0.46875 0.625 0.640625 1.6875l-1.8125 0.25q-0.109375 -0.84375 -0.703125 -1.3125q-0.59375 -0.484375 -1.671875 -0.484375q-1.265625 0 -1.8125 0.421875q-0.546875 0.421875 -0.546875 0.984375q0 0.359375 0.234375 0.65625q0.21875 0.296875 0.703125 0.484375q0.28125 0.109375 1.625 0.46875q1.96875 0.53125 2.734375 0.859375q0.78125 0.328125 1.21875 0.96875q0.4375 0.640625 0.4375 1.578125q0 0.921875 -0.546875 1.75q-0.53125 0.8125 -1.546875 1.265625q-1.015625 0.4375 -2.296875 0.4375q-2.125 0 -3.234375 -0.875q-1.109375 -0.890625 -1.421875 -2.625zm15.4453125 1.59375l0.265625 1.640625q-0.78125 0.15625 -1.40625 0.15625q-1.0 0 -1.5625 -0.3125q-0.546875 -0.328125 -0.78125 -0.84375q-0.21875 -0.515625 -0.21875 -2.171875l0 -6.265625l-1.34375 0l0 -1.4375l1.34375 0l0 -2.7031288l1.84375 -1.09375l0 3.7968788l1.859375 0l0 1.4375l-1.859375 0l0 6.359375q0 0.796875 0.09375 1.03125q0.09375 0.21875 0.3125 0.359375q0.21875 0.125 0.640625 0.125q0.296875 0 0.8125 -0.078125zm8.988129 0.3125q-1.015625 0.875 -1.96875 1.234375q-0.953125 0.359375 -2.03125 0.359375q-1.796875 0 -2.765625 -0.875q-0.953125 -0.875 -0.953125 -2.25q0 -0.796875 0.359375 -1.453125q0.359375 -0.671875 0.953125 -1.0625q0.59375 -0.40625 1.328125 -0.609375q0.546875 -0.140625 1.640625 -0.28125q2.234375 -0.265625 3.296875 -0.625q0 -0.390625 0 -0.484375q0 -1.125 -0.515625 -1.59375q-0.71875 -0.625 -2.109375 -0.625q-1.296875 0 -1.921875 0.453125q-0.625 0.453125 -0.921875 1.625l-1.796875 -0.25q0.25 -1.15625 0.8125 -1.859375q0.5625 -0.71875 1.625 -1.109375q1.0625 -0.390625 2.46875 -0.390625q1.40625 0 2.265625 0.328125q0.875 0.328125 1.28125 0.828125q0.421875 0.5 0.578125 1.265625q0.09375 0.46875 0.09375 1.6875l0 2.46875q0 2.578125 0.109375 3.265625q0.125 0.671875 0.46875 1.296875l-1.921875 0q-0.28125 -0.578125 -0.375 -1.34375zm-0.140625 -4.125q-1.015625 0.40625 -3.015625 0.703125q-1.140625 0.15625 -1.625 0.375q-0.46875 0.203125 -0.71875 0.59375q-0.25 0.390625 -0.25 0.875q0 0.734375 0.546875 1.234375q0.5625 0.484375 1.640625 0.484375q1.0625 0 1.890625 -0.46875q0.84375 -0.46875 1.234375 -1.265625q0.296875 -0.625 0.296875 -1.84375l0 -0.6875zm12.033569 5.46875l0 -1.59375q-1.265625 1.84375 -3.453125 1.84375q-0.953125 0 -1.796875 -0.375q-0.828125 -0.375 -1.234375 -0.921875q-0.40625 -0.5625 -0.578125 -1.375q-0.109375 -0.546875 -0.109375 -1.71875l0 -6.75l1.84375 0l0 6.046875q0 1.4375 0.109375 1.9375q0.171875 0.734375 0.734375 1.15625q0.578125 0.40625 1.40625 0.40625q0.828125 0 1.546875 -0.421875q0.734375 -0.421875 1.03125 -1.15625q0.3125 -0.734375 0.3125 -2.140625l0 -5.828125l1.84375 0l0 10.890625l-1.65625 0zm4.7054443 0l0 -10.890625l1.671875 0l0 1.65625q0.625 -1.15625 1.15625 -1.53125q0.546875 -0.375 1.203125 -0.375q0.921875 0 1.890625 0.59375l-0.640625 1.71875q-0.671875 -0.40625 -1.34375 -0.40625q-0.609375 0 -1.09375 0.375q-0.484375 0.359375 -0.6875 1.0q-0.3125 0.984375 -0.3125 2.15625l0 5.703125l-1.84375 0zm14.227478 -1.34375q-1.015625 0.875 -1.96875 1.234375q-0.953125 0.359375 -2.03125 0.359375q-1.796875 0 -2.765625 -0.875q-0.953125 -0.875 -0.953125 -2.25q0 -0.796875 0.359375 -1.453125q0.359375 -0.671875 0.953125 -1.0625q0.59375 -0.40625 1.328125 -0.609375q0.546875 -0.140625 1.640625 -0.28125q2.234375 -0.265625 3.296875 -0.625q0 -0.390625 0 -0.484375q0 -1.125 -0.515625 -1.59375q-0.71875 -0.625 -2.109375 -0.625q-1.296875 0 -1.921875 0.453125q-0.625 0.453125 -0.921875 1.625l-1.796875 -0.25q0.25 -1.15625 0.8125 -1.859375q0.5625 -0.71875 1.625 -1.109375q1.0625 -0.390625 2.46875 -0.390625q1.40625 0 2.265625 0.328125q0.875 0.328125 1.28125 0.828125q0.421875 0.5 0.578125 1.265625q0.09375 0.46875 0.09375 1.6875l0 2.46875q0 2.578125 0.109375 3.265625q0.125 0.671875 0.46875 1.296875l-1.921875 0q-0.28125 -0.578125 -0.375 -1.34375zm-0.140625 -4.125q-1.015625 0.40625 -3.015625 0.703125q-1.140625 0.15625 -1.625 0.375q-0.46875 0.203125 -0.71875 0.59375q-0.25 0.390625 -0.25 0.875q0 0.734375 0.546875 1.234375q0.5625 0.484375 1.640625 0.484375q1.0625 0 1.890625 -0.46875q0.84375 -0.46875 1.234375 -1.265625q0.296875 -0.625 0.296875 -1.84375l0 -0.6875zm4.9085693 5.46875l0 -10.890625l1.65625 0l0 1.546875q1.203125 -1.796875 3.46875 -1.796875q0.984375 0 1.796875 0.359375q0.828125 0.359375 1.234375 0.9375q0.421875 0.5625 0.578125 1.359375q0.109375 0.5 0.109375 1.78125l0 6.703125l-1.84375 0l0 -6.625q0 -1.125 -0.21875 -1.6875q-0.21875 -0.5625 -0.765625 -0.890625q-0.546875 -0.328125 -1.28125 -0.328125q-1.1875 0 -2.046875 0.75q-0.84375 0.734375 -0.84375 2.828125l0 5.953125l-1.84375 0zm15.892944 -1.65625l0.265625 1.640625q-0.78125 0.15625 -1.40625 0.15625q-1.0 0 -1.5625 -0.3125q-0.546875 -0.328125 -0.78125 -0.84375q-0.21875 -0.515625 -0.21875 -2.171875l0 -6.265625l-1.34375 0l0 -1.4375l1.34375 0l0 -2.7031288l1.84375 -1.09375l0 3.7968788l1.859375 0l0 1.4375l-1.859375 0l0 6.359375q0 0.796875 0.09375 1.03125q0.09375 0.21875 0.3125 0.359375q0.21875 0.125 0.640625 0.125q0.296875 0 0.8125 -0.078125zm7.1325073 -3.78125q0 -3.03125 1.671875 -4.484375q1.40625 -1.21875 3.421875 -1.21875q2.25 0 3.671875 1.484375q1.4375 1.46875 1.4375 4.0625q0 2.09375 -0.640625 3.296875q-0.625 1.203125 -1.828125 1.875q-1.203125 0.671875 -2.640625 0.671875q-2.28125 0 -3.6875 -1.46875q-1.40625 -1.46875 -1.40625 -4.21875zm1.890625 0q0 2.078125 0.90625 3.125q0.921875 1.046875 2.296875 1.046875q1.375 0 2.28125 -1.046875q0.921875 -1.046875 0.921875 -3.1875q0 -2.03125 -0.921875 -3.0625q-0.90625 -1.046875 -2.28125 -1.046875q-1.375 0 -2.296875 1.046875q-0.90625 1.03125 -0.90625 3.125zm12.658569 5.4375l-3.328125 -10.890625l1.90625 0l1.734375 6.28125l0.640625 2.34375q0.046875 -0.171875 0.5625 -2.25l1.734375 -6.375l1.90625 0l1.625 6.3125l0.546875 2.09375l0.625 -2.109375l1.859375 -6.296875l1.796875 0l-3.40625 10.890625l-1.90625 0l-1.734375 -6.515625l-0.421875 -1.859375l-2.203125 8.375l-1.9375 0zm13.402527 0l0 -10.890625l1.65625 0l0 1.546875q1.203125 -1.796875 3.46875 -1.796875q0.984375 0 1.796875 0.359375q0.828125 0.359375 1.234375 0.9375q0.421875 0.5625 0.578125 1.359375q0.109375 0.5 0.109375 1.78125l0 6.703125l-1.84375 0l0 -6.625q0 -1.125 -0.21875 -1.6875q-0.21875 -0.5625 -0.765625 -0.890625q-0.546875 -0.328125 -1.28125 -0.328125q-1.1875 0 -2.046875 0.75q-0.84375 0.734375 -0.84375 2.828125l0 5.953125l-1.84375 0zm19.31482 -3.5l1.90625 0.234375q-0.453125 1.671875 -1.671875 2.59375q-1.21875 0.921875 -3.125 0.921875q-2.390625 0 -3.796875 -1.46875q-1.390625 -1.484375 -1.390625 -4.140625q0 -2.734375 1.40625 -4.25q1.421875 -1.53125 3.6875 -1.53125q2.1875 0 3.5625 1.5q1.390625 1.484375 1.390625 4.171875q0 0.171875 -0.015625 0.5l-8.125 0q0.109375 1.796875 1.015625 2.75q0.921875 0.953125 2.28125 0.953125q1.015625 0 1.734375 -0.53125q0.71875 -0.546875 1.140625 -1.703125zm-6.0625 -2.984375l6.078125 0q-0.125 -1.375 -0.703125 -2.0625q-0.875 -1.078125 -2.28125 -1.078125q-1.265625 0 -2.140625 0.859375q-0.859375 0.84375 -0.953125 2.28125zm10.439819 6.484375l0 -10.890625l1.671875 0l0 1.65625q0.625 -1.15625 1.15625 -1.53125q0.546875 -0.375 1.203125 -0.375q0.921875 0 1.890625 0.59375l-0.640625 1.71875q-0.671875 -0.40625 -1.34375 -0.40625q-0.609375 0 -1.09375 0.375q-0.484375 0.359375 -0.6875 1.0q-0.3125 0.984375 -0.3125 2.15625l0 5.703125l-1.84375 0zm12.340576 -4.515625l0 -1.859375l5.671875 0l0 1.859375l-5.671875 0zm13.918701 4.515625l0 -15.031254l2.984375 0l3.5625 10.640629q0.5 1.484375 0.71875 2.234375q0.25 -0.828125 0.796875 -2.421875l3.609375 -10.453129l2.671875 0l0 15.031254l-1.921875 0l0 -12.578125l-4.359375 12.578125l-1.796875 0l-4.359375 -12.796879l0 12.796879l-1.90625 0zm17.563354 0l0 -10.890625l1.671875 0l0 1.65625q0.625 -1.15625 1.15625 -1.53125q0.546875 -0.375 1.203125 -0.375q0.921875 0 1.890625 0.59375l-0.640625 1.71875q-0.671875 -0.40625 -1.34375 -0.40625q-0.609375 0 -1.09375 0.375q-0.484375 0.359375 -0.6875 1.0q-0.3125 0.984375 -0.3125 2.15625l0 5.703125l-1.84375 0zm7.649292 0l0 -2.109375l2.109375 0l0 2.109375l-2.109375 0zm15.804443 0l0 -6.375l-5.796875 -8.656254l2.421875 0l2.953125 4.531254q0.828125 1.265625 1.53125 2.546875q0.6875 -1.1875 1.640625 -2.65625l2.921875 -4.421879l2.3125 0l-6.0 8.656254l0 6.375l-1.984375 0zm8.335083 0l5.78125 -15.031254l2.140625 0l6.140625 15.031254l-2.265625 0l-1.75 -4.546875l-6.28125 0l-1.65625 4.546875l-2.109375 0zm4.34375 -6.171875l5.09375 0l-1.578125 -4.171875q-0.71875 -1.890625 -1.0625 -3.1093788q-0.28125 1.4531288 -0.8125 2.8750038l-1.640625 4.40625zm11.475708 6.171875l0 -15.031254l2.984375 0l3.5625 10.640629q0.5 1.484375 0.71875 2.234375q0.25 -0.828125 0.796875 -2.421875l3.609375 -10.453129l2.671875 0l0 15.031254l-1.921875 0l0 -12.578125l-4.359375 12.578125l-1.796875 0l-4.359375 -12.796879l0 12.796879l-1.90625 0zm16.17273 0l5.78125 -15.031254l2.140625 0l6.140625 15.031254l-2.265625 0l-1.75 -4.546875l-6.28125 0l-1.65625 4.546875l-2.109375 0zm4.34375 -6.171875l5.09375 0l-1.578125 -4.171875q-0.71875 -1.890625 -1.0625 -3.1093788q-0.28125 1.4531288 -0.8125 2.8750038l-1.640625 4.40625zm15.350708 6.171875l0 -13.265629l-4.9375 0l0 -1.765625l11.90625 0l0 1.765625l-4.96875 0l0 13.265629l-2.0 0zm7.559326 0l5.78125 -15.031254l2.140625 0l6.140625 15.031254l-2.265625 0l-1.75 -4.546875l-6.28125 0l-1.65625 4.546875l-2.109375 0zm4.34375 -6.171875l5.09375 0l-1.578125 -4.171875q-0.71875 -1.890625 -1.0625 -3.1093788q-0.28125 1.4531288 -0.8125 2.8750038l-1.640625 4.40625z" fill-rule="nonzero"></path><path fill="#595959" d="m298.90366 103.95597l0 1.78125l-9.9375 0q-0.03125 -0.671875 0.203125 -1.28125q0.390625 -1.015625 1.21875 -2.0q0.84375 -0.984375 2.421875 -2.28125q2.453125 -2.0 3.3125 -3.171875q0.859375 -1.1875 0.859375 -2.234375q0 -1.09375 -0.796875 -1.84375q-0.78125 -0.75 -2.03125 -0.75q-1.34375 0 -2.140625 0.796875q-0.796875 0.796875 -0.8125 2.21875l-1.890625 -0.203125q0.1875 -2.125 1.453125 -3.234375q1.28125 -1.109375 3.421875 -1.109375q2.171875 0 3.421875 1.203125q1.265625 1.203125 1.265625 2.96875q0 0.90625 -0.375 1.78125q-0.359375 0.859375 -1.21875 1.828125q-0.859375 0.96875 -2.84375 2.640625q-1.65625 1.40625 -2.140625 1.90625q-0.46875 0.484375 -0.765625 0.984375l7.375 0zm3.1898193 1.78125l0 -2.109375l2.109375 0l0 2.109375l-2.109375 0z" fill-rule="nonzero"></path><path fill="#595959" d="m331.80035 105.73722l0 -15.03125l1.984375 0l0 6.171875l7.8125 0l0 -6.171875l1.984375 0l0 15.03125l-1.984375 0l0 -7.078125l-7.8125 0l0 7.078125l-1.984375 0zm14.418121 -5.4375q0 -3.03125 1.671875 -4.484375q1.40625 -1.21875 3.421875 -1.21875q2.25 0 3.671875 1.484375q1.4375 1.46875 1.4375 4.0625q0 2.09375 -0.640625 3.296875q-0.625 1.203125 -1.828125 1.875q-1.203125 0.671875 -2.640625 0.671875q-2.28125 0 -3.6875 -1.46875q-1.40625 -1.46875 -1.40625 -4.21875zm1.890625 0q0 2.078125 0.90625 3.125q0.921875 1.046875 2.296875 1.046875q1.375 0 2.28125 -1.046875q0.921875 -1.046875 0.921875 -3.1875q0 -2.03125 -0.921875 -3.0625q-0.90625 -1.046875 -2.28125 -1.046875q-1.375 0 -2.296875 1.046875q-0.90625 1.03125 -0.90625 3.125zm17.78357 5.4375l0 -1.59375q-1.265625 1.84375 -3.453125 1.84375q-0.953125 0 -1.796875 -0.375q-0.828125 -0.375 -1.234375 -0.921875q-0.40625 -0.5625 -0.578125 -1.375q-0.109375 -0.546875 -0.109375 -1.71875l0 -6.75l1.84375 0l0 6.046875q0 1.4375 0.109375 1.9375q0.171875 0.734375 0.734375 1.15625q0.578125 0.40625 1.40625 0.40625q0.828125 0 1.546875 -0.421875q0.734375 -0.421875 1.03125 -1.15625q0.3125 -0.734375 0.3125 -2.140625l0 -5.828125l1.84375 0l0 10.890625l-1.65625 0zm3.9866943 -3.25l1.828125 -0.28125q0.15625 1.09375 0.859375 1.6875q0.703125 0.578125 1.96875 0.578125q1.265625 0 1.875 -0.515625q0.625 -0.53125 0.625 -1.21875q0 -0.625 -0.546875 -0.984375q-0.375 -0.25 -1.890625 -0.625q-2.03125 -0.515625 -2.8125 -0.890625q-0.78125 -0.375 -1.1875 -1.03125q-0.40625 -0.671875 -0.40625 -1.46875q0 -0.71875 0.328125 -1.34375q0.34375 -0.625 0.90625 -1.03125q0.4375 -0.3125 1.171875 -0.53125q0.75 -0.234375 1.609375 -0.234375q1.28125 0 2.25 0.375q0.96875 0.375 1.421875 1.0q0.46875 0.625 0.640625 1.6875l-1.8125 0.25q-0.109375 -0.84375 -0.703125 -1.3125q-0.59375 -0.484375 -1.671875 -0.484375q-1.265625 0 -1.8125 0.421875q-0.546875 0.421875 -0.546875 0.984375q0 0.359375 0.234375 0.65625q0.21875 0.296875 0.703125 0.484375q0.28125 0.109375 1.625 0.46875q1.96875 0.53125 2.734375 0.859375q0.78125 0.328125 1.21875 0.96875q0.4375 0.640625 0.4375 1.578125q0 0.921875 -0.546875 1.75q-0.53125 0.8125 -1.546875 1.265625q-1.015625 0.4375 -2.296875 0.4375q-2.125 0 -3.234375 -0.875q-1.109375 -0.890625 -1.421875 -2.625zm18.867188 -0.25l1.90625 0.234375q-0.453125 1.671875 -1.671875 2.59375q-1.21875 0.921875 -3.125 0.921875q-2.390625 0 -3.796875 -1.46875q-1.390625 -1.484375 -1.390625 -4.140625q0 -2.734375 1.40625 -4.25q1.421875 -1.53125 3.6875 -1.53125q2.1875 0 3.5625 1.5q1.390625 1.484375 1.390625 4.171875q0 0.171875 -0.015625 0.5l-8.125 0q0.109375 1.796875 1.015625 2.75q0.921875 0.953125 2.28125 0.953125q1.015625 0 1.734375 -0.53125q0.71875 -0.546875 1.140625 -1.703125zm-6.0625 -2.984375l6.078125 0q-0.125 -1.375 -0.703125 -2.0625q-0.875 -1.078125 -2.28125 -1.078125q-1.265625 0 -2.140625 0.859375q-0.859375 0.84375 -0.953125 2.28125zm12.471069 6.484375l-3.328125 -10.890625l1.90625 0l1.734375 6.28125l0.640625 2.34375q0.046875 -0.171875 0.5625 -2.25l1.734375 -6.375l1.90625 0l1.625 6.3125l0.546875 2.09375l0.625 -2.109375l1.859375 -6.296875l1.796875 0l-3.40625 10.890625l-1.90625 0l-1.734375 -6.515625l-0.421875 -1.859375l-2.203125 8.375l-1.9375 0zm13.402496 -12.90625l0 -2.125l1.84375 0l0 2.125l-1.84375 0zm0 12.90625l0 -10.890625l1.84375 0l0 10.890625l-1.84375 0zm5.175934 0l0 -9.453125l-1.640625 0l0 -1.4375l1.640625 0l0 -1.15625q0 -1.09375 0.1875 -1.625q0.265625 -0.71875 0.9375 -1.15625q0.671875 -0.453125 1.890625 -0.453125q0.78125 0 1.71875 0.171875l-0.28125 1.609375q-0.5625 -0.09375 -1.078125 -0.09375q-0.84375 0 -1.203125 0.359375q-0.34375 0.359375 -0.34375 1.34375l0 1.0l2.125 0l0 1.4375l-2.125 0l0 9.453125l-1.828125 0zm12.941284 -3.5l1.90625 0.234375q-0.453125 1.671875 -1.671875 2.59375q-1.21875 0.921875 -3.125 0.921875q-2.390625 0 -3.796875 -1.46875q-1.390625 -1.484375 -1.390625 -4.140625q0 -2.734375 1.40625 -4.25q1.421875 -1.53125 3.6875 -1.53125q2.1875 0 3.5625 1.5q1.390625 1.484375 1.390625 4.171875q0 0.171875 -0.015625 0.5l-8.125 0q0.109375 1.796875 1.015625 2.75q0.921875 0.953125 2.28125 0.953125q1.015625 0 1.734375 -0.53125q0.71875 -0.546875 1.140625 -1.703125zm-6.0625 -2.984375l6.078125 0q-0.125 -1.375 -0.703125 -2.0625q-0.875 -1.078125 -2.28125 -1.078125q-1.265625 0 -2.140625 0.859375q-0.859375 0.84375 -0.953125 2.28125zm15.677948 1.96875l0 -1.859375l5.671875 0l0 1.859375l-5.671875 0zm24.699951 -0.75l1.984375 0.5q-0.625 2.453125 -2.25 3.734375q-1.625 1.28125 -3.96875 1.28125q-2.421875 0 -3.953125 -0.984375q-1.515625 -0.984375 -2.3125 -2.859375q-0.796875 -1.875 -0.796875 -4.03125q0 -2.359375 0.890625 -4.09375q0.90625 -1.75 2.5625 -2.65625q1.65625 -0.90625 3.640625 -0.90625q2.25 0 3.78125 1.15625q1.546875 1.140625 2.15625 3.21875l-1.953125 0.453125q-0.53125 -1.640625 -1.53125 -2.390625q-0.984375 -0.75 -2.5 -0.75q-1.71875 0 -2.890625 0.84375q-1.15625 0.828125 -1.640625 2.234375q-0.46875 1.390625 -0.46875 2.875q0 1.921875 0.5625 3.359375q0.5625 1.421875 1.734375 2.125q1.1875 0.703125 2.5625 0.703125q1.671875 0 2.828125 -0.953125q1.15625 -0.96875 1.5625 -2.859375zm4.4493713 -7.640625l0 -2.125l1.84375 0l0 2.125l-1.84375 0zm0 12.90625l0 -10.890625l1.84375 0l0 10.890625l-1.84375 0zm4.738434 0l0 -10.890625l1.65625 0l0 1.546875q1.203125 -1.796875 3.46875 -1.796875q0.984375 0 1.796875 0.359375q0.828125 0.359375 1.234375 0.9375q0.421875 0.5625 0.578125 1.359375q0.109375 0.5 0.109375 1.78125l0 6.703125l-1.84375 0l0 -6.625q0 -1.125 -0.21875 -1.6875q-0.21875 -0.5625 -0.765625 -0.890625q-0.546875 -0.328125 -1.28125 -0.328125q-1.1875 0 -2.046875 0.75q-0.84375 0.734375 -0.84375 2.828125l0 5.953125l-1.84375 0zm18.924194 0l0 -1.375q-1.046875 1.625 -3.046875 1.625q-1.296875 0 -2.390625 -0.71875q-1.09375 -0.71875 -1.703125 -2.0q-0.59375 -1.296875 -0.59375 -2.96875q0 -1.625 0.546875 -2.953125q0.546875 -1.328125 1.625 -2.03125q1.09375 -0.71875 2.4375 -0.71875q0.984375 0 1.75 0.421875q0.765625 0.40625 1.25 1.078125l0 -5.390625l1.828125 0l0 15.03125l-1.703125 0zm-5.84375 -5.4375q0 2.09375 0.875 3.140625q0.890625 1.03125 2.09375 1.03125q1.203125 0 2.046875 -0.984375q0.859375 -1.0 0.859375 -3.03125q0 -2.234375 -0.875 -3.28125q-0.859375 -1.046875 -2.109375 -1.046875q-1.234375 0 -2.0625 1.015625q-0.828125 1.0 -0.828125 3.15625zm10.549194 9.625l-0.203125 -1.71875q0.609375 0.15625 1.0625 0.15625q0.609375 0 0.96875 -0.203125q0.375 -0.203125 0.625 -0.578125q0.171875 -0.28125 0.5625 -1.375q0.046875 -0.15625 0.15625 -0.453125l-4.125 -10.90625l1.984375 0l2.265625 6.3125q0.4375 1.1875 0.796875 2.515625q0.3125 -1.265625 0.75 -2.484375l2.328125 -6.34375l1.84375 0l-4.140625 11.078125q-0.671875 1.796875 -1.03125 2.46875q-0.5 0.90625 -1.140625 1.328125q-0.625 0.4375 -1.515625 0.4375q-0.53125 0 -1.1875 -0.234375z" fill-rule="nonzero"></path><path fill="#595959" d="m289.20053 130.76846l1.859375 -0.25q0.3125 1.578125 1.078125 2.265625q0.765625 0.6875 1.859375 0.6875q1.296875 0 2.1875 -0.890625q0.90625 -0.90625 0.90625 -2.25q0 -1.265625 -0.828125 -2.09375q-0.828125 -0.828125 -2.109375 -0.828125q-0.53125 0 -1.3125 0.21875l0.21875 -1.625q0.171875 0.015625 0.296875 0.015625q1.171875 0 2.109375 -0.609375q0.953125 -0.625 0.953125 -1.90625q0 -1.015625 -0.6875 -1.671875q-0.6875 -0.671875 -1.78125 -0.671875q-1.078125 0 -1.796875 0.6875q-0.703125 0.671875 -0.921875 2.015625l-1.84375 -0.328125q0.34375 -1.84375 1.53125 -2.859375q1.203125 -1.03125 3.0 -1.03125q1.21875 0 2.25 0.53125q1.046875 0.53125 1.59375 1.4375q0.546875 0.90625 0.546875 1.9375q0 0.96875 -0.53125 1.78125q-0.515625 0.796875 -1.53125 1.265625q1.328125 0.3125 2.0625 1.28125q0.734375 0.96875 0.734375 2.421875q0 1.96875 -1.4375 3.34375q-1.421875 1.359375 -3.625 1.359375q-1.96875 0 -3.28125 -1.171875q-1.3125 -1.1875 -1.5 -3.0625zm12.892944 3.96875l0 -2.109375l2.109375 0l0 2.109375l-2.109375 0z" fill-rule="nonzero"></path><path fill="#595959" d="m331.05035 129.90909l1.875 -0.171875q0.140625 1.140625 0.625 1.859375q0.484375 0.71875 1.515625 1.171875q1.03125 0.4375 2.3125 0.4375q1.125 0 2.0 -0.328125q0.875 -0.34375 1.296875 -0.9375q0.4375 -0.59375 0.4375 -1.28125q0 -0.703125 -0.421875 -1.234375q-0.40625 -0.53125 -1.34375 -0.890625q-0.609375 -0.234375 -2.6875 -0.734375q-2.0625 -0.5 -2.890625 -0.9375q-1.078125 -0.5625 -1.609375 -1.390625q-0.53125 -0.84375 -0.53125 -1.875q0 -1.140625 0.640625 -2.125q0.65625 -1.0 1.890625 -1.5q1.25 -0.515625 2.765625 -0.515625q1.671875 0 2.9375 0.53125q1.28125 0.53125 1.96875 1.578125q0.6875 1.046875 0.734375 2.375l-1.90625 0.140625q-0.15625 -1.421875 -1.046875 -2.140625q-0.875 -0.734375 -2.609375 -0.734375q-1.796875 0 -2.625 0.65625q-0.828125 0.65625 -0.828125 1.59375q0 0.8125 0.578125 1.328125q0.578125 0.53125 3.0 1.078125q2.421875 0.546875 3.328125 0.953125q1.3125 0.609375 1.9375 1.546875q0.625 0.921875 0.625 2.125q0 1.203125 -0.6875 2.265625q-0.6875 1.0625 -1.96875 1.65625q-1.28125 0.578125 -2.890625 0.578125q-2.046875 0 -3.4375 -0.59375q-1.375 -0.59375 -2.15625 -1.78125q-0.78125 -1.203125 -0.828125 -2.703125zm18.710083 3.171875l0.265625 1.640625q-0.78125 0.15625 -1.40625 0.15625q-1.0 0 -1.5625 -0.3125q-0.546875 -0.328125 -0.78125 -0.84375q-0.21875 -0.515625 -0.21875 -2.171875l0 -6.265625l-1.34375 0l0 -1.4375l1.34375 0l0 -2.703125l1.84375 -1.09375l0 3.796875l1.859375 0l0 1.4375l-1.859375 0l0 6.359375q0 0.796875 0.09375 1.03125q0.09375 0.21875 0.3125 0.359375q0.21875 0.125 0.640625 0.125q0.296875 0 0.8125 -0.078125zm9.019379 1.65625l0 -1.59375q-1.265625 1.84375 -3.453125 1.84375q-0.953125 0 -1.796875 -0.375q-0.828125 -0.375 -1.234375 -0.921875q-0.40625 -0.5625 -0.578125 -1.375q-0.109375 -0.546875 -0.109375 -1.71875l0 -6.75l1.84375 0l0 6.046875q0 1.4375 0.109375 1.9375q0.171875 0.734375 0.734375 1.15625q0.578125 0.40625 1.40625 0.40625q0.828125 0 1.546875 -0.421875q0.734375 -0.421875 1.03125 -1.15625q0.3125 -0.734375 0.3125 -2.140625l0 -5.828125l1.84375 0l0 10.890625l-1.65625 0zm11.799194 0l0 -1.375q-1.046875 1.625 -3.046875 1.625q-1.296875 0 -2.390625 -0.71875q-1.09375 -0.71875 -1.703125 -2.0q-0.59375 -1.296875 -0.59375 -2.96875q0 -1.625 0.546875 -2.953125q0.546875 -1.328125 1.625 -2.03125q1.09375 -0.71875 2.4375 -0.71875q0.984375 0 1.75 0.421875q0.765625 0.40625 1.25 1.078125l0 -5.390625l1.828125 0l0 15.03125l-1.703125 0zm-5.84375 -5.4375q0 2.09375 0.875 3.140625q0.890625 1.03125 2.09375 1.03125q1.203125 0 2.046875 -0.984375q0.859375 -1.0 0.859375 -3.03125q0 -2.234375 -0.875 -3.28125q-0.859375 -1.046875 -2.109375 -1.046875q-1.234375 0 -2.0625 1.015625q-0.828125 1.0 -0.828125 3.15625zm18.09607 1.9375l1.90625 0.234375q-0.453125 1.671875 -1.671875 2.59375q-1.21875 0.921875 -3.125 0.921875q-2.390625 0 -3.796875 -1.46875q-1.390625 -1.484375 -1.390625 -4.140625q0 -2.734375 1.40625 -4.25q1.421875 -1.53125 3.6875 -1.53125q2.1875 0 3.5625 1.5q1.390625 1.484375 1.390625 4.171875q0 0.171875 -0.015625 0.5l-8.125 0q0.109375 1.796875 1.015625 2.75q0.921875 0.953125 2.28125 0.953125q1.015625 0 1.734375 -0.53125q0.71875 -0.546875 1.140625 -1.703125zm-6.0625 -2.984375l6.078125 0q-0.125 -1.375 -0.703125 -2.0625q-0.875 -1.078125 -2.28125 -1.078125q-1.265625 0 -2.140625 0.859375q-0.859375 0.84375 -0.953125 2.28125zm10.471069 6.484375l0 -10.890625l1.65625 0l0 1.546875q1.203125 -1.796875 3.46875 -1.796875q0.984375 0 1.796875 0.359375q0.828125 0.359375 1.234375 0.9375q0.421875 0.5625 0.578125 1.359375q0.109375 0.5 0.109375 1.78125l0 6.703125l-1.84375 0l0 -6.625q0 -1.125 -0.21875 -1.6875q-0.21875 -0.5625 -0.765625 -0.890625q-0.546875 -0.328125 -1.28125 -0.328125q-1.1875 0 -2.046875 0.75q-0.84375 0.734375 -0.84375 2.828125l0 5.953125l-1.84375 0zm15.892944 -1.65625l0.265625 1.640625q-0.78125 0.15625 -1.40625 0.15625q-1.0 0 -1.5625 -0.3125q-0.546875 -0.328125 -0.78125 -0.84375q-0.21875 -0.515625 -0.21875 -2.171875l0 -6.265625l-1.34375 0l0 -1.4375l1.34375 0l0 -2.703125l1.84375 -1.09375l0 3.796875l1.859375 0l0 1.4375l-1.859375 0l0 6.359375q0 0.796875 0.09375 1.03125q0.09375 0.21875 0.3125 0.359375q0.21875 0.125 0.640625 0.125q0.296875 0 0.8125 -0.078125zm9.820038 1.65625l-3.328125 -10.890625l1.90625 0l1.734375 6.28125l0.640625 2.34375q0.046875 -0.171875 0.5625 -2.25l1.734375 -6.375l1.90625 0l1.625 6.3125l0.546875 2.09375l0.625 -2.109375l1.859375 -6.296875l1.796875 0l-3.40625 10.890625l-1.90625 0l-1.734375 -6.515625l-0.421875 -1.859375l-2.203125 8.375l-1.9375 0zm13.402496 0l0 -15.03125l1.84375 0l0 5.390625q1.28125 -1.5 3.25 -1.5q1.21875 0 2.109375 0.484375q0.890625 0.46875 1.265625 1.3125q0.390625 0.84375 0.390625 2.4375l0 6.90625l-1.84375 0l0 -6.90625q0 -1.375 -0.609375 -2.0q-0.59375 -0.640625 -1.6875 -0.640625q-0.8125 0 -1.546875 0.421875q-0.71875 0.421875 -1.03125 1.15625q-0.296875 0.734375 -0.296875 2.015625l0 5.953125l-1.84375 0zm11.174194 -5.4375q0 -3.03125 1.671875 -4.484375q1.40625 -1.21875 3.421875 -1.21875q2.25 0 3.671875 1.484375q1.4375 1.46875 1.4375 4.0625q0 2.09375 -0.640625 3.296875q-0.625 1.203125 -1.828125 1.875q-1.203125 0.671875 -2.640625 0.671875q-2.28125 0 -3.6875 -1.46875q-1.40625 -1.46875 -1.40625 -4.21875zm1.890625 0q0 2.078125 0.90625 3.125q0.921875 1.046875 2.296875 1.046875q1.375 0 2.28125 -1.046875q0.921875 -1.046875 0.921875 -3.1875q0 -2.03125 -0.921875 -3.0625q-0.90625 -1.046875 -2.28125 -1.046875q-1.375 0 -2.296875 1.046875q-0.90625 1.03125 -0.90625 3.125zm16.552979 5.4375l0 -10.890625l1.671875 0l0 1.65625q0.625 -1.15625 1.15625 -1.53125q0.546875 -0.375 1.203125 -0.375q0.921875 0 1.890625 0.59375l-0.640625 1.71875q-0.671875 -0.40625 -1.34375 -0.40625q-0.609375 0 -1.09375 0.375q-0.484375 0.359375 -0.6875 1.0q-0.3125 0.984375 -0.3125 2.15625l0 5.703125l-1.84375 0zm14.586792 -3.5l1.90625 0.234375q-0.453125 1.671875 -1.671875 2.59375q-1.21875 0.921875 -3.125 0.921875q-2.390625 0 -3.796875 -1.46875q-1.390625 -1.484375 -1.390625 -4.140625q0 -2.734375 1.40625 -4.25q1.421875 -1.53125 3.6875 -1.53125q2.1875 0 3.5625 1.5q1.390625 1.484375 1.390625 4.171875q0 0.171875 -0.015625 0.5l-8.125 0q0.109375 1.796875 1.015625 2.75q0.921875 0.953125 2.28125 0.953125q1.015625 0 1.734375 -0.53125q0.71875 -0.546875 1.140625 -1.703125zm-6.0625 -2.984375l6.078125 0q-0.125 -1.375 -0.703125 -2.0625q-0.875 -1.078125 -2.28125 -1.078125q-1.265625 0 -2.140625 0.859375q-0.859375 0.84375 -0.953125 2.28125zm10.471069 6.484375l0 -10.890625l1.65625 0l0 1.546875q1.203125 -1.796875 3.46875 -1.796875q0.984375 0 1.796875 0.359375q0.828125 0.359375 1.234375 0.9375q0.421875 0.5625 0.578125 1.359375q0.109375 0.5 0.109375 1.78125l0 6.703125l-1.84375 0l0 -6.625q0 -1.125 -0.21875 -1.6875q-0.21875 -0.5625 -0.765625 -0.890625q-0.546875 -0.328125 -1.28125 -0.328125q-1.1875 0 -2.046875 0.75q-0.84375 0.734375 -0.84375 2.828125l0 5.953125l-1.84375 0zm15.892944 -1.65625l0.265625 1.640625q-0.78125 0.15625 -1.40625 0.15625q-1.0 0 -1.5625 -0.3125q-0.546875 -0.328125 -0.78125 -0.84375q-0.21875 -0.515625 -0.21875 -2.171875l0 -6.265625l-1.34375 0l0 -1.4375l1.34375 0l0 -2.703125l1.84375 -1.09375l0 3.796875l1.859375 0l0 1.4375l-1.859375 0l0 6.359375q0 0.796875 0.09375 1.03125q0.09375 0.21875 0.3125 0.359375q0.21875 0.125 0.640625 0.125q0.296875 0 0.8125 -0.078125zm14.913788 0.3125q-1.015625 0.875 -1.96875 1.234375q-0.953125 0.359375 -2.03125 0.359375q-1.796875 0 -2.765625 -0.875q-0.953125 -0.875 -0.953125 -2.25q0 -0.796875 0.359375 -1.453125q0.359375 -0.671875 0.953125 -1.0625q0.59375 -0.40625 1.328125 -0.609375q0.546875 -0.140625 1.640625 -0.28125q2.234375 -0.265625 3.296875 -0.625q0 -0.390625 0 -0.484375q0 -1.125 -0.515625 -1.59375q-0.71875 -0.625 -2.109375 -0.625q-1.296875 0 -1.921875 0.453125q-0.625 0.453125 -0.921875 1.625l-1.796875 -0.25q0.25 -1.15625 0.8125 -1.859375q0.5625 -0.71875 1.625 -1.109375q1.0625 -0.390625 2.46875 -0.390625q1.40625 0 2.265625 0.328125q0.875 0.328125 1.28125 0.828125q0.421875 0.5 0.578125 1.265625q0.09375 0.46875 0.09375 1.6875l0 2.46875q0 2.578125 0.109375 3.265625q0.125 0.671875 0.46875 1.296875l-1.921875 0q-0.28125 -0.578125 -0.375 -1.34375zm-0.140625 -4.125q-1.015625 0.40625 -3.015625 0.703125q-1.140625 0.15625 -1.625 0.375q-0.46875 0.203125 -0.71875 0.59375q-0.25 0.390625 -0.25 0.875q0 0.734375 0.546875 1.234375q0.5625 0.484375 1.640625 0.484375q1.0625 0 1.890625 -0.46875q0.84375 -0.46875 1.234375 -1.265625q0.296875 -0.625 0.296875 -1.84375l0 -0.6875zm10.8342285 5.46875l0 -15.03125l1.84375 0l0 5.390625q1.28125 -1.5 3.25 -1.5q1.21875 0 2.109375 0.484375q0.890625 0.46875 1.265625 1.3125q0.390625 0.84375 0.390625 2.4375l0 6.90625l-1.84375 0l0 -6.90625q0 -1.375 -0.609375 -2.0q-0.59375 -0.640625 -1.6875 -0.640625q-0.8125 0 -1.546875 0.421875q-0.71875 0.421875 -1.03125 1.15625q-0.296875 0.734375 -0.296875 2.015625l0 5.953125l-1.84375 0zm11.174194 -5.4375q0 -3.03125 1.671875 -4.484375q1.40625 -1.21875 3.421875 -1.21875q2.25 0 3.671875 1.484375q1.4375 1.46875 1.4375 4.0625q0 2.09375 -0.640625 3.296875q-0.625 1.203125 -1.828125 1.875q-1.203125 0.671875 -2.640625 0.671875q-2.28125 0 -3.6875 -1.46875q-1.40625 -1.46875 -1.40625 -4.21875zm1.890625 0q0 2.078125 0.90625 3.125q0.921875 1.046875 2.296875 1.046875q1.375 0 2.28125 -1.046875q0.921875 -1.046875 0.921875 -3.1875q0 -2.03125 -0.921875 -3.0625q-0.90625 -1.046875 -2.28125 -1.046875q-1.375 0 -2.296875 1.046875q-0.90625 1.03125 -0.90625 3.125zm17.78357 5.4375l0 -1.59375q-1.265625 1.84375 -3.453125 1.84375q-0.953125 0 -1.796875 -0.375q-0.828125 -0.375 -1.234375 -0.921875q-0.40625 -0.5625 -0.578125 -1.375q-0.109375 -0.546875 -0.109375 -1.71875l0 -6.75l1.84375 0l0 6.046875q0 1.4375 0.109375 1.9375q0.171875 0.734375 0.734375 1.15625q0.578125 0.40625 1.40625 0.40625q0.828125 0 1.546875 -0.421875q0.734375 -0.421875 1.03125 -1.15625q0.3125 -0.734375 0.3125 -2.140625l0 -5.828125l1.84375 0l0 10.890625l-1.65625 0zm3.9866943 -3.25l1.828125 -0.28125q0.15625 1.09375 0.859375 1.6875q0.703125 0.578125 1.96875 0.578125q1.265625 0 1.875 -0.515625q0.625 -0.53125 0.625 -1.21875q0 -0.625 -0.546875 -0.984375q-0.375 -0.25 -1.890625 -0.625q-2.03125 -0.515625 -2.8125 -0.890625q-0.78125 -0.375 -1.1875 -1.03125q-0.40625 -0.671875 -0.40625 -1.46875q0 -0.71875 0.328125 -1.34375q0.34375 -0.625 0.90625 -1.03125q0.4375 -0.3125 1.171875 -0.53125q0.75 -0.234375 1.609375 -0.234375q1.28125 0 2.25 0.375q0.96875 0.375 1.421875 1.0q0.46875 0.625 0.640625 1.6875l-1.8125 0.25q-0.109375 -0.84375 -0.703125 -1.3125q-0.59375 -0.484375 -1.671875 -0.484375q-1.265625 0 -1.8125 0.421875q-0.546875 0.421875 -0.546875 0.984375q0 0.359375 0.234375 0.65625q0.21875 0.296875 0.703125 0.484375q0.28125 0.109375 1.625 0.46875q1.96875 0.53125 2.734375 0.859375q0.78125 0.328125 1.21875 0.96875q0.4375 0.640625 0.4375 1.578125q0 0.921875 -0.546875 1.75q-0.53125 0.8125 -1.546875 1.265625q-1.015625 0.4375 -2.296875 0.4375q-2.125 0 -3.234375 -0.875q-1.109375 -0.890625 -1.421875 -2.625zm18.867188 -0.25l1.90625 0.234375q-0.453125 1.671875 -1.671875 2.59375q-1.21875 0.921875 -3.125 0.921875q-2.390625 0 -3.796875 -1.46875q-1.390625 -1.484375 -1.390625 -4.140625q0 -2.734375 1.40625 -4.25q1.421875 -1.53125 3.6875 -1.53125q2.1875 0 3.5625 1.5q1.390625 1.484375 1.390625 4.171875q0 0.171875 -0.015625 0.5l-8.125 0q0.109375 1.796875 1.015625 2.75q0.921875 0.953125 2.28125 0.953125q1.015625 0 1.734375 -0.53125q0.71875 -0.546875 1.140625 -1.703125zm-6.0625 -2.984375l6.078125 0q-0.125 -1.375 -0.703125 -2.0625q-0.875 -1.078125 -2.28125 -1.078125q-1.265625 0 -2.140625 0.859375q-0.859375 0.84375 -0.953125 2.28125zm15.7092285 1.046875q0 -3.03125 1.671875 -4.484375q1.40625 -1.21875 3.421875 -1.21875q2.25 0 3.671875 1.484375q1.4375 1.46875 1.4375 4.0625q0 2.09375 -0.640625 3.296875q-0.625 1.203125 -1.828125 1.875q-1.203125 0.671875 -2.640625 0.671875q-2.28125 0 -3.6875 -1.46875q-1.40625 -1.46875 -1.40625 -4.21875zm1.890625 0q0 2.078125 0.90625 3.125q0.921875 1.046875 2.296875 1.046875q1.375 0 2.28125 -1.046875q0.921875 -1.046875 0.921875 -3.1875q0 -2.03125 -0.921875 -3.0625q-0.90625 -1.046875 -2.28125 -1.046875q-1.375 0 -2.296875 1.046875q-0.90625 1.03125 -0.90625 3.125zm17.78357 5.4375l0 -1.59375q-1.265625 1.84375 -3.453125 1.84375q-0.953125 0 -1.796875 -0.375q-0.828125 -0.375 -1.234375 -0.921875q-0.40625 -0.5625 -0.578125 -1.375q-0.109375 -0.546875 -0.109375 -1.71875l0 -6.75l1.84375 0l0 6.046875q0 1.4375 0.109375 1.9375q0.171875 0.734375 0.734375 1.15625q0.578125 0.40625 1.40625 0.40625q0.828125 0 1.546875 -0.421875q0.734375 -0.421875 1.03125 -1.15625q0.3125 -0.734375 0.3125 -2.140625l0 -5.828125l1.84375 0l0 10.890625l-1.65625 0zm8.767944 -1.65625l0.265625 1.640625q-0.78125 0.15625 -1.40625 0.15625q-1.0 0 -1.5625 -0.3125q-0.546875 -0.328125 -0.78125 -0.84375q-0.21875 -0.515625 -0.21875 -2.171875l0 -6.265625l-1.34375 0l0 -1.4375l1.34375 0l0 -2.703125l1.84375 -1.09375l0 3.796875l1.859375 0l0 1.4375l-1.859375 0l0 6.359375q0 0.796875 0.09375 1.03125q0.09375 0.21875 0.3125 0.359375q0.21875 0.125 0.640625 0.125q0.296875 0 0.8125 -0.078125zm1.1443481 -1.59375l1.828125 -0.28125q0.15625 1.09375 0.859375 1.6875q0.703125 0.578125 1.96875 0.578125q1.265625 0 1.875 -0.515625q0.625 -0.53125 0.625 -1.21875q0 -0.625 -0.546875 -0.984375q-0.375 -0.25 -1.890625 -0.625q-2.03125 -0.515625 -2.8125 -0.890625q-0.78125 -0.375 -1.1875 -1.03125q-0.40625 -0.671875 -0.40625 -1.46875q0 -0.71875 0.328125 -1.34375q0.34375 -0.625 0.90625 -1.03125q0.4375 -0.3125 1.171875 -0.53125q0.75 -0.234375 1.609375 -0.234375q1.28125 0 2.25 0.375q0.96875 0.375 1.421875 1.0q0.46875 0.625 0.640625 1.6875l-1.8125 0.25q-0.109375 -0.84375 -0.703125 -1.3125q-0.59375 -0.484375 -1.671875 -0.484375q-1.265625 0 -1.8125 0.421875q-0.546875 0.421875 -0.546875 0.984375q0 0.359375 0.234375 0.65625q0.21875 0.296875 0.703125 0.484375q0.28125 0.109375 1.625 0.46875q1.96875 0.53125 2.734375 0.859375q0.78125 0.328125 1.21875 0.96875q0.4375 0.640625 0.4375 1.578125q0 0.921875 -0.546875 1.75q-0.53125 0.8125 -1.546875 1.265625q-1.015625 0.4375 -2.296875 0.4375q-2.125 0 -3.234375 -0.875q-1.109375 -0.890625 -1.421875 -2.625zm11.4140625 -9.65625l0 -2.125l1.84375 0l0 2.125l-1.84375 0zm0 12.90625l0 -10.890625l1.84375 0l0 10.890625l-1.84375 0zm11.800964 0l0 -1.375q-1.046875 1.625 -3.046875 1.625q-1.296875 0 -2.390625 -0.71875q-1.09375 -0.71875 -1.703125 -2.0q-0.59375 -1.296875 -0.59375 -2.96875q0 -1.625 0.546875 -2.953125q0.546875 -1.328125 1.625 -2.03125q1.09375 -0.71875 2.4375 -0.71875q0.984375 0 1.75 0.421875q0.765625 0.40625 1.25 1.078125l0 -5.390625l1.828125 0l0 15.03125l-1.703125 0zm-5.84375 -5.4375q0 2.09375 0.875 3.140625q0.890625 1.03125 2.09375 1.03125q1.203125 0 2.046875 -0.984375q0.859375 -1.0 0.859375 -3.03125q0 -2.234375 -0.875 -3.28125q-0.859375 -1.046875 -2.109375 -1.046875q-1.234375 0 -2.0625 1.015625q-0.828125 1.0 -0.828125 3.15625zm18.09607 1.9375l1.90625 0.234375q-0.453125 1.671875 -1.671875 2.59375q-1.21875 0.921875 -3.125 0.921875q-2.390625 0 -3.796875 -1.46875q-1.390625 -1.484375 -1.390625 -4.140625q0 -2.734375 1.40625 -4.25q1.421875 -1.53125 3.6875 -1.53125q2.1875 0 3.5625 1.5q1.390625 1.484375 1.390625 4.171875q0 0.171875 -0.015625 0.5l-8.125 0q0.109375 1.796875 1.015625 2.75q0.921875 0.953125 2.28125 0.953125q1.015625 0 1.734375 -0.53125q0.71875 -0.546875 1.140625 -1.703125zm-6.0625 -2.984375l6.078125 0q-0.125 -1.375 -0.703125 -2.0625q-0.875 -1.078125 -2.28125 -1.078125q-1.265625 0 -2.140625 0.859375q-0.859375 0.84375 -0.953125 2.28125zm20.427917 4.828125l0.265625 1.640625q-0.78125 0.15625 -1.40625 0.15625q-1.0 0 -1.5625 -0.3125q-0.546875 -0.328125 -0.78125 -0.84375q-0.21875 -0.515625 -0.21875 -2.171875l0 -6.265625l-1.34375 0l0 -1.4375l1.34375 0l0 -2.703125l1.84375 -1.09375l0 3.796875l1.859375 0l0 1.4375l-1.859375 0l0 6.359375q0 0.796875 0.09375 1.03125q0.09375 0.21875 0.3125 0.359375q0.21875 0.125 0.640625 0.125q0.296875 0 0.8125 -0.078125zm1.8944092 1.65625l0 -15.03125l1.84375 0l0 5.390625q1.28125 -1.5 3.25 -1.5q1.21875 0 2.109375 0.484375q0.890625 0.46875 1.265625 1.3125q0.390625 0.84375 0.390625 2.4375l0 6.90625l-1.84375 0l0 -6.90625q0 -1.375 -0.609375 -2.0q-0.59375 -0.640625 -1.6875 -0.640625q-0.8125 0 -1.546875 0.421875q-0.71875 0.421875 -1.03125 1.15625q-0.296875 0.734375 -0.296875 2.015625l0 5.953125l-1.84375 0zm19.31482 -3.5l1.90625 0.234375q-0.453125 1.671875 -1.671875 2.59375q-1.21875 0.921875 -3.125 0.921875q-2.390625 0 -3.796875 -1.46875q-1.390625 -1.484375 -1.390625 -4.140625q0 -2.734375 1.40625 -4.25q1.421875 -1.53125 3.6875 -1.53125q2.1875 0 3.5625 1.5q1.390625 1.484375 1.390625 4.171875q0 0.171875 -0.015625 0.5l-8.125 0q0.109375 1.796875 1.015625 2.75q0.921875 0.953125 2.28125 0.953125q1.015625 0 1.734375 -0.53125q0.71875 -0.546875 1.140625 -1.703125zm-6.0625 -2.984375l6.078125 0q-0.125 -1.375 -0.703125 -2.0625q-0.875 -1.078125 -2.28125 -1.078125q-1.265625 0 -2.140625 0.859375q-0.859375 0.84375 -0.953125 2.28125zm15.6467285 3.234375l1.828125 -0.28125q0.15625 1.09375 0.859375 1.6875q0.703125 0.578125 1.96875 0.578125q1.265625 0 1.875 -0.515625q0.625 -0.53125 0.625 -1.21875q0 -0.625 -0.546875 -0.984375q-0.375 -0.25 -1.890625 -0.625q-2.03125 -0.515625 -2.8125 -0.890625q-0.78125 -0.375 -1.1875 -1.03125q-0.40625 -0.671875 -0.40625 -1.46875q0 -0.71875 0.328125 -1.34375q0.34375 -0.625 0.90625 -1.03125q0.4375 -0.3125 1.171875 -0.53125q0.75 -0.234375 1.609375 -0.234375q1.28125 0 2.25 0.375q0.96875 0.375 1.421875 1.0q0.46875 0.625 0.640625 1.6875l-1.8125 0.25q-0.109375 -0.84375 -0.703125 -1.3125q-0.59375 -0.484375 -1.671875 -0.484375q-1.265625 0 -1.8125 0.421875q-0.546875 0.421875 -0.546875 0.984375q0 0.359375 0.234375 0.65625q0.21875 0.296875 0.703125 0.484375q0.28125 0.109375 1.625 0.46875q1.96875 0.53125 2.734375 0.859375q0.78125 0.328125 1.21875 0.96875q0.4375 0.640625 0.4375 1.578125q0 0.921875 -0.546875 1.75q-0.53125 0.8125 -1.546875 1.265625q-1.015625 0.4375 -2.296875 0.4375q-2.125 0 -3.234375 -0.875q-1.109375 -0.890625 -1.421875 -2.625zm18.507812 -0.734375l1.828125 0.234375q-0.296875 1.875 -1.53125 2.9375q-1.21875 1.0625 -3.015625 1.0625q-2.234375 0 -3.59375 -1.453125q-1.34375 -1.46875 -1.34375 -4.203125q0 -1.765625 0.578125 -3.078125q0.578125 -1.328125 1.765625 -1.984375q1.203125 -0.671875 2.609375 -0.671875q1.78125 0 2.90625 0.90625q1.125 0.890625 1.4375 2.546875l-1.78125 0.28125q-0.265625 -1.109375 -0.921875 -1.65625q-0.640625 -0.5625 -1.5625 -0.5625q-1.40625 0 -2.28125 1.0q-0.859375 1.0 -0.859375 3.171875q0 2.1875 0.84375 3.1875q0.84375 1.0 2.1875 1.0q1.09375 0 1.8125 -0.671875q0.734375 -0.671875 0.921875 -2.046875zm3.5703125 3.984375l0 -15.03125l1.84375 0l0 5.390625q1.28125 -1.5 3.25 -1.5q1.21875 0 2.109375 0.484375q0.890625 0.46875 1.265625 1.3125q0.390625 0.84375 0.390625 2.4375l0 6.90625l-1.84375 0l0 -6.90625q0 -1.375 -0.609375 -2.0q-0.59375 -0.640625 -1.6875 -0.640625q-0.8125 0 -1.546875 0.421875q-0.71875 0.421875 -1.03125 1.15625q-0.296875 0.734375 -0.296875 2.015625l0 5.953125l-1.84375 0zm11.174194 -5.4375q0 -3.03125 1.671875 -4.484375q1.40625 -1.21875 3.421875 -1.21875q2.25 0 3.671875 1.484375q1.4375 1.46875 1.4375 4.0625q0 2.09375 -0.640625 3.296875q-0.625 1.203125 -1.828125 1.875q-1.203125 0.671875 -2.640625 0.671875q-2.28125 0 -3.6875 -1.46875q-1.40625 -1.46875 -1.40625 -4.21875zm1.890625 0q0 2.078125 0.90625 3.125q0.921875 1.046875 2.296875 1.046875q1.375 0 2.28125 -1.046875q0.921875 -1.046875 0.921875 -3.1875q0 -2.03125 -0.921875 -3.0625q-0.90625 -1.046875 -2.28125 -1.046875q-1.375 0 -2.296875 1.046875q-0.90625 1.03125 -0.90625 3.125zm9.971069 0q0 -3.03125 1.671875 -4.484375q1.40625 -1.21875 3.421875 -1.21875q2.25 0 3.671875 1.484375q1.4375 1.46875 1.4375 4.0625q0 2.09375 -0.640625 3.296875q-0.625 1.203125 -1.828125 1.875q-1.203125 0.671875 -2.640625 0.671875q-2.28125 0 -3.6875 -1.46875q-1.40625 -1.46875 -1.40625 -4.21875zm1.890625 0q0 2.078125 0.90625 3.125q0.921875 1.046875 2.296875 1.046875q1.375 0 2.28125 -1.046875q0.921875 -1.046875 0.921875 -3.1875q0 -2.03125 -0.921875 -3.0625q-0.90625 -1.046875 -2.28125 -1.046875q-1.375 0 -2.296875 1.046875q-0.90625 1.03125 -0.90625 3.125zm10.611694 5.4375l0 -15.03125l1.84375 0l0 15.03125l-1.84375 0zm9.9921875 -4.515625l0 -1.859375l5.671875 0l0 1.859375l-5.671875 0zm14.043701 4.515625l0 -15.03125l1.984375 0l0 6.171875l7.8125 0l0 -6.171875l1.984375 0l0 15.03125l-1.984375 0l0 -7.078125l-7.8125 0l0 7.078125l-1.984375 0zm22.19934 -1.34375q-1.015625 0.875 -1.96875 1.234375q-0.953125 0.359375 -2.03125 0.359375q-1.796875 0 -2.765625 -0.875q-0.953125 -0.875 -0.953125 -2.25q0 -0.796875 0.359375 -1.453125q0.359375 -0.671875 0.953125 -1.0625q0.59375 -0.40625 1.328125 -0.609375q0.546875 -0.140625 1.640625 -0.28125q2.234375 -0.265625 3.296875 -0.625q0 -0.390625 0 -0.484375q0 -1.125 -0.515625 -1.59375q-0.71875 -0.625 -2.109375 -0.625q-1.296875 0 -1.921875 0.453125q-0.625 0.453125 -0.921875 1.625l-1.796875 -0.25q0.25 -1.15625 0.8125 -1.859375q0.5625 -0.71875 1.625 -1.109375q1.0625 -0.390625 2.46875 -0.390625q1.40625 0 2.265625 0.328125q0.875 0.328125 1.28125 0.828125q0.421875 0.5 0.578125 1.265625q0.09375 0.46875 0.09375 1.6875l0 2.46875q0 2.578125 0.109375 3.265625q0.125 0.671875 0.46875 1.296875l-1.921875 0q-0.28125 -0.578125 -0.375 -1.34375zm-0.140625 -4.125q-1.015625 0.40625 -3.015625 0.703125q-1.140625 0.15625 -1.625 0.375q-0.46875 0.203125 -0.71875 0.59375q-0.25 0.390625 -0.25 0.875q0 0.734375 0.546875 1.234375q0.5625 0.484375 1.640625 0.484375q1.0625 0 1.890625 -0.46875q0.84375 -0.46875 1.234375 -1.265625q0.296875 -0.625 0.296875 -1.84375l0 -0.6875zm12.002319 1.484375l1.828125 0.234375q-0.296875 1.875 -1.53125 2.9375q-1.21875 1.0625 -3.015625 1.0625q-2.234375 0 -3.59375 -1.453125q-1.34375 -1.46875 -1.34375 -4.203125q0 -1.765625 0.578125 -3.078125q0.578125 -1.328125 1.765625 -1.984375q1.203125 -0.671875 2.609375 -0.671875q1.78125 0 2.90625 0.90625q1.125 0.890625 1.4375 2.546875l-1.78125 0.28125q-0.265625 -1.109375 -0.921875 -1.65625q-0.640625 -0.5625 -1.5625 -0.5625q-1.40625 0 -2.28125 1.0q-0.859375 1.0 -0.859375 3.171875q0 2.1875 0.84375 3.1875q0.84375 1.0 2.1875 1.0q1.09375 0 1.8125 -0.671875q0.734375 -0.671875 0.921875 -2.046875zm3.5703125 3.984375l0 -15.03125l1.84375 0l0 8.578125l4.375 -4.4375l2.390625 0l-4.171875 4.046875l4.59375 6.84375l-2.28125 0l-3.59375 -5.5625l-1.3125 1.25l0 4.3125l-1.84375 0zm10.6640625 0l0 -10.890625l1.640625 0l0 1.53125q0.515625 -0.796875 1.359375 -1.28125q0.859375 -0.5 1.953125 -0.5q1.203125 0 1.96875 0.515625q0.78125 0.5 1.09375 1.390625q1.296875 -1.90625 3.375 -1.90625q1.609375 0 2.484375 0.90625q0.875 0.890625 0.875 2.765625l0 7.46875l-1.84375 0l0 -6.859375q0 -1.109375 -0.171875 -1.59375q-0.171875 -0.484375 -0.65625 -0.78125q-0.46875 -0.296875 -1.109375 -0.296875q-1.140625 0 -1.90625 0.765625q-0.75 0.75 -0.75 2.4375l0 6.328125l-1.84375 0l0 -7.078125q0 -1.234375 -0.453125 -1.84375q-0.453125 -0.609375 -1.484375 -0.609375q-0.78125 0 -1.4375 0.40625q-0.65625 0.40625 -0.953125 1.203125q-0.296875 0.78125 -0.296875 2.265625l0 5.65625l-1.84375 0zm24.86029 -1.34375q-1.015625 0.875 -1.96875 1.234375q-0.953125 0.359375 -2.03125 0.359375q-1.796875 0 -2.765625 -0.875q-0.953125 -0.875 -0.953125 -2.25q0 -0.796875 0.359375 -1.453125q0.359375 -0.671875 0.953125 -1.0625q0.59375 -0.40625 1.328125 -0.609375q0.546875 -0.140625 1.640625 -0.28125q2.234375 -0.265625 3.296875 -0.625q0 -0.390625 0 -0.484375q0 -1.125 -0.515625 -1.59375q-0.71875 -0.625 -2.109375 -0.625q-1.296875 0 -1.921875 0.453125q-0.625 0.453125 -0.921875 1.625l-1.796875 -0.25q0.25 -1.15625 0.8125 -1.859375q0.5625 -0.71875 1.625 -1.109375q1.0625 -0.390625 2.46875 -0.390625q1.40625 0 2.265625 0.328125q0.875 0.328125 1.28125 0.828125q0.421875 0.5 0.578125 1.265625q0.09375 0.46875 0.09375 1.6875l0 2.46875q0 2.578125 0.109375 3.265625q0.125 0.671875 0.46875 1.296875l-1.921875 0q-0.28125 -0.578125 -0.375 -1.34375zm-0.140625 -4.125q-1.015625 0.40625 -3.015625 0.703125q-1.140625 0.15625 -1.625 0.375q-0.46875 0.203125 -0.71875 0.59375q-0.25 0.390625 -0.25 0.875q0 0.734375 0.546875 1.234375q0.5625 0.484375 1.640625 0.484375q1.0625 0 1.890625 -0.46875q0.84375 -0.46875 1.234375 -1.265625q0.296875 -0.625 0.296875 -1.84375l0 -0.6875zm4.9085693 5.46875l0 -10.890625l1.65625 0l0 1.546875q1.203125 -1.796875 3.46875 -1.796875q0.984375 0 1.796875 0.359375q0.828125 0.359375 1.234375 0.9375q0.421875 0.5625 0.578125 1.359375q0.109375 0.5 0.109375 1.78125l0 6.703125l-1.84375 0l0 -6.625q0 -1.125 -0.21875 -1.6875q-0.21875 -0.5625 -0.765625 -0.890625q-0.546875 -0.328125 -1.28125 -0.328125q-1.1875 0 -2.046875 0.75q-0.84375 0.734375 -0.84375 2.828125l0 5.953125l-1.84375 0z" fill-rule="nonzero"></path></g></svg>

