<?xml version="1.0" standalone="yes"?>

<svg version="1.1" viewBox="0.0 0.0 960.0 540.0" fill="none" stroke="none" stroke-linecap="square" stroke-miterlimit="10" xmlns="http://www.w3.org/2000/svg" xmlns:xlink="http://www.w3.org/1999/xlink"><clipPath id="g1858cd17d3_0_442.0"><path d="m0 0l960.0 0l0 540.0l-960.0 0l0 -540.0z" clip-rule="nonzero"></path></clipPath><g clip-path="url(#g1858cd17d3_0_442.0)"><path fill="#ffffff" d="m0 0l960.0 0l0 540.0l-960.0 0z" fill-rule="nonzero"></path><path fill="#ffffff" d="m0 0l960.0 0l0 540.0l-960.0 0z" fill-rule="nonzero"></path><path fill="#000000" fill-opacity="0.0" d="m48.958004 37.164803l69.291336 0" fill-rule="nonzero"></path><path stroke="#000000" stroke-width="8.0" stroke-linejoin="round" stroke-linecap="butt" d="m48.958004 37.164803l69.291336 0" fill-rule="nonzero"></path><path fill="#000000" fill-opacity="0.0" d="m36.671917 47.256664l409.25986 0l0 432.06302l-409.25986 0z" fill-rule="nonzero"></path><path fill="#000000" d="m47.406292 91.14916l6.75 -0.65625q0.609375 3.40625 2.46875 5.0q1.875 1.59375 5.03125 1.59375q3.3593712 0 5.046871 -1.421875q1.703125 -1.421875 1.703125 -3.3125q0 -1.21875 -0.71875 -2.078125q-0.703125 -0.859375 -2.484375 -1.484375q-1.2187462 -0.421875 -5.562496 -1.5q-5.578125 -1.390625 -7.828125 -3.40625q-3.15625 -2.828125 -3.15625 -6.90625q0 -2.625 1.484375 -4.90625q1.484375 -2.296875 4.28125 -3.484375q2.8125 -1.203125 6.765625 -1.203125q6.468746 0 9.734371 2.84375q3.28125 2.828125 3.4375 7.5625l-6.9375 0.3125q-0.4375 -2.65625 -1.90625 -3.8125q-1.46875 -1.15625 -4.390621 -1.15625q-3.03125 0 -4.734375 1.234375q-1.109375 0.796875 -1.109375 2.140625q0 1.21875 1.03125 2.078125q1.3125 1.109375 6.375 2.3125q5.062496 1.1875 7.484371 2.46875q2.4375 1.265625 3.796875 3.484375q1.375 2.21875 1.375 5.46875q0 2.953125 -1.640625 5.53125q-1.640625 2.578125 -4.640625 3.84375q-3.0 1.25 -7.468746 1.25q-6.515625 0 -10.015625 -3.015625q-3.484375 -3.015625 -4.171875 -8.78125zm55.437496 -6.34375l-6.5 1.171875q-0.328125 -1.953125 -1.484375 -2.9375q-1.15625 -0.984375 -3.015625 -0.984375q-2.453125 0 -3.921875 1.703125q-1.46875 1.703125 -1.46875 5.6875q0 4.421875 1.484375 6.25q1.5 1.828125 4.0 1.828125q1.875 0 3.0625 -1.0625q1.203125 -1.0625 1.703125 -3.671875l6.46875 1.109375q-1.015625 4.453125 -3.875 6.734375q-2.859375 2.265625 -7.65625 2.265625q-5.46875 0 -8.71875 -3.4375q-3.234375 -3.453125 -3.234375 -9.546875q0 -6.171875 3.25 -9.59375q3.265625 -3.4375 8.8125 -3.4375q4.546875 0 7.234375 1.953125q2.6875 1.953125 3.859375 5.96875zm19.398438 9.609375l6.5625076 1.09375q-1.2656326 3.609375 -4.0000076 5.5q-2.71875 1.890625 -6.828125 1.890625q-6.484375 0 -9.609375 -4.25q-2.453125 -3.390625 -2.453125 -8.578125q0 -6.1875 3.234375 -9.6875q3.234375 -3.5 8.171875 -3.5q5.5625 0 8.765625 3.671875q3.2187576 3.65625 3.0781326 11.234375l-16.500008 0q0.0625 2.921875 1.578125 4.5625q1.53125 1.625 3.8125 1.625q1.546875 0 2.59375 -0.84375q1.0625 -0.84375 1.59375 -2.71875zm0.375 -6.65625q-0.0625 -2.859375 -1.46875 -4.34375q-1.40625 -1.5 -3.421875 -1.5q-2.15625 0 -3.5625 1.578125q-1.40625 1.5625 -1.390625 4.265625l9.84375 0zm34.554695 14.578125l-6.59375 0l0 -12.703125q0 -4.03125 -0.421875 -5.21875q-0.421875 -1.1875 -1.375 -1.84375q-0.9375 -0.65625 -2.28125 -0.65625q-1.703125 0 -3.0625 0.9375q-1.359375 0.9375 -1.875 2.484375q-0.5 1.546875 -0.5 5.71875l0 11.28125l-6.578125 0l0 -24.890625l6.109375 0l0 3.65625q3.265625 -4.21875 8.203125 -4.21875q2.1875 0 3.984375 0.78125q1.8125 0.78125 2.734375 2.0q0.921875 1.21875 1.28125 2.765625q0.375 1.546875 0.375 4.4375l0 15.46875zm11.6015625 -17.296875l-5.984375 -1.078125q1.015625 -3.609375 3.46875 -5.34375q2.46875 -1.734375 7.3125 -1.734375q4.40625 0 6.5625 1.046875q2.15625 1.03125 3.03125 2.640625q0.890625 1.609375 0.890625 5.890625l-0.078125 7.6875q0 3.28125 0.3125 4.84375q0.328125 1.5625 1.1875 3.34375l-6.515625 0q-0.25 -0.65625 -0.625 -1.953125q-0.171875 -0.578125 -0.234375 -0.765625q-1.6875 1.640625 -3.609375 2.46875q-1.921875 0.8125 -4.109375 0.8125q-3.84375 0 -6.0625 -2.078125q-2.203125 -2.09375 -2.203125 -5.28125q0 -2.109375 1.0 -3.765625q1.015625 -1.65625 2.828125 -2.53125q1.8125 -0.875 5.234375 -1.53125q4.625 -0.875 6.40625 -1.625l0 -0.65625q0 -1.890625 -0.9375 -2.703125q-0.9375 -0.8125 -3.546875 -0.8125q-1.75 0 -2.734375 0.703125q-0.984375 0.6875 -1.59375 2.421875zm8.8125 5.34375q-1.265625 0.421875 -4.015625 1.015625q-2.734375 0.578125 -3.578125 1.140625q-1.296875 0.90625 -1.296875 2.3125q0 1.390625 1.03125 2.40625q1.03125 1.0 2.625 1.0q1.78125 0 3.40625 -1.171875q1.1875 -0.890625 1.5625 -2.1875q0.265625 -0.84375 0.265625 -3.203125l0 -1.3125zm19.257812 11.953125l-6.578125 0l0 -24.890625l6.109375 0l0 3.53125q1.578125 -2.5 2.828125 -3.296875q1.25 -0.796875 2.84375 -0.796875q2.25 0 4.34375 1.234375l-2.046875 5.75q-1.65625 -1.078125 -3.09375 -1.078125q-1.375 0 -2.34375 0.765625q-0.953125 0.75 -1.515625 2.75q-0.546875 1.984375 -0.546875 8.34375l0 7.6875zm12.3828125 -28.265625l0 -6.09375l6.578125 0l0 6.09375l-6.578125 0zm0 28.265625l0 -24.890625l6.578125 0l0 24.890625l-6.578125 0zm11.8046875 -12.796875q0 -3.28125 1.609375 -6.34375q1.625 -3.078125 4.59375 -4.6875q2.96875 -1.625 6.625 -1.625q5.640625 0 9.25 3.671875q3.609375 3.65625 3.609375 9.265625q0 5.640625 -3.640625 9.359375q-3.640625 3.71875 -9.171875 3.71875q-3.421875 0 -6.53125 -1.546875q-3.109375 -1.546875 -4.734375 -4.53125q-1.609375 -3.0 -1.609375 -7.28125zm6.75 0.34375q0 3.703125 1.75 5.671875q1.765625 1.96875 4.34375 1.96875q2.578125 0 4.328125 -1.96875q1.75 -1.96875 1.75 -5.71875q0 -3.65625 -1.75 -5.625q-1.75 -1.96875 -4.328125 -1.96875q-2.578125 0 -4.34375 1.96875q-1.75 1.96875 -1.75 5.671875zm21.773438 5.34375l6.6093597 -1.0q0.421875 1.921875 1.703125 2.921875q1.296875 0.984375 3.625 0.984375q2.546875 0 3.84375 -0.9375q0.859375 -0.65625 0.859375 -1.75q0 -0.75 -0.46875 -1.25q-0.484375 -0.46875 -2.203125 -0.859375q-7.9687347 -1.765625 -10.093735 -3.21875q-2.953125 -2.015625 -2.953125 -5.59375q0 -3.234375 2.546875 -5.4375q2.5625 -2.203125 7.9218597 -2.203125q5.109375 0 7.59375 1.671875q2.484375 1.65625 3.421875 4.90625l-6.203125 1.15625q-0.40625 -1.453125 -1.515625 -2.21875q-1.109375 -0.78125 -3.171875 -0.78125q-2.609375 0 -3.734375 0.71875q-0.75 0.515625 -0.75 1.34375q0 0.703125 0.65625 1.1875q0.890625 0.65625 6.15625 1.859375q5.265625 1.1875 7.34375 2.921875q2.0625 1.765625 2.0625 4.90625q0 3.421875 -2.859375 5.890625q-2.859375 2.453125 -8.453125 2.453125q-5.09375 0 -8.062485 -2.0625q-2.953125 -2.0625 -3.875 -5.609375z" fill-rule="nonzero"></path><path fill="#000000" fill-opacity="0.0" d="m480.0 47.256664l443.33856 0l0 432.06302l-443.33856 0z" fill-rule="nonzero"></path></g></svg>

