<?xml version="1.0" standalone="yes"?>

<svg version="1.1" viewBox="0.0 0.0 960.0 540.0" fill="none" stroke="none" stroke-linecap="square" stroke-miterlimit="10" xmlns="http://www.w3.org/2000/svg" xmlns:xlink="http://www.w3.org/1999/xlink"><clipPath id="g1858cd17d3_0_46.0"><path d="m0 0l960.0 0l0 540.0l-960.0 0l0 -540.0z" clip-rule="nonzero"></path></clipPath><g clip-path="url(#g1858cd17d3_0_46.0)"><path fill="#ffffff" d="m0 0l960.0 0l0 540.0l-960.0 0z" fill-rule="nonzero"></path><path fill="#ffffff" d="m0 0l960.0 0l0 540.0l-960.0 0z" fill-rule="nonzero"></path><path fill="#000000" fill-opacity="0.0" d="m48.958004 37.164803l69.291336 0" fill-rule="nonzero"></path><path stroke="#000000" stroke-width="8.0" stroke-linejoin="round" stroke-linecap="butt" d="m48.958004 37.164803l69.291336 0" fill-rule="nonzero"></path><path fill="#000000" fill-opacity="0.0" d="m36.671917 47.257217l195.02362 0l0 432.063l-195.02362 0z" fill-rule="nonzero"></path><path fill="#000000" d="m47.765667 85.36847q0 -5.25 1.5625 -8.8125q1.171875 -2.625 3.203125 -4.703125q2.03125 -2.09375 4.4375 -3.109375q3.21875 -1.359375 7.406246 -1.359375q7.59375 0 12.15625 4.71875q4.5625 4.703125 4.5625 13.09375q0 8.328125 -4.53125 13.03125q-4.515625 4.703125 -12.09375 4.703125q-7.656246 0 -12.187496 -4.671875q-4.515625 -4.6875 -4.515625 -12.890625zm7.140625 -0.234375q0 5.828125 2.6875 8.84375q2.703125 3.015625 6.859371 3.015625q4.140625 0 6.796875 -2.984375q2.671875 -3.0 2.671875 -8.96875q0 -5.90625 -2.59375 -8.8125q-2.59375 -2.90625 -6.875 -2.90625q-4.296871 0 -6.921871 2.9375q-2.625 2.9375 -2.625 8.875zm47.929684 17.203125l0 -3.734375q-1.359375 2.0 -3.578125 3.15625q-2.203125 1.140625 -4.671875 1.140625q-2.5 0 -4.5 -1.09375q-1.984375 -1.109375 -2.875 -3.09375q-0.890625 -2.0 -0.890625 -5.515625l0 -15.75l6.578125 0l0 11.4375q0 5.25 0.359375 6.4375q0.375 1.171875 1.328125 1.875q0.96875 0.6875 2.4375 0.6875q1.6875 0 3.015625 -0.921875q1.34375 -0.9375 1.828125 -2.296875q0.5 -1.375 0.5 -6.71875l0 -10.5l6.59375 0l0 24.890625l-6.125 0zm24.351562 -24.890625l0 5.25l-4.5 0l0 10.03125q0 3.046875 0.125 3.546875q0.140625 0.5 0.59375 0.828125q0.453125 0.328125 1.109375 0.328125q0.921875 0 2.65625 -0.625l0.5625 5.109375q-2.296875 0.984375 -5.203125 0.984375q-1.78125 0 -3.21875 -0.59375q-1.421875 -0.609375 -2.09375 -1.546875q-0.671875 -0.953125 -0.921875 -2.578125q-0.21875 -1.140625 -0.21875 -4.640625l0 -10.84375l-3.015625 0l0 -5.25l3.015625 0l0 -4.953125l6.609375 -3.84375l0 8.796875l4.5 0zm4.5781326 24.890625l0 -34.359375l6.578125 0l0 34.359375l-6.578125 0zm13.3359375 -28.265625l0 -6.09375l6.578125 0l0 6.09375l-6.578125 0zm0 28.265625l0 -24.890625l6.578125 0l0 24.890625l-6.578125 0zm35.976562 0l-6.59375 0l0 -12.703125q0 -4.03125 -0.421875 -5.21875q-0.421875 -1.1875 -1.375 -1.84375q-0.9375 -0.65625 -2.28125 -0.65625q-1.703125 0 -3.0625 0.9375q-1.359375 0.9375 -1.875 2.484375q-0.5 1.546875 -0.5 5.71875l0 11.28125l-6.578125 0l0 -24.890625l6.109375 0l0 3.65625q3.265625 -4.21875 8.203125 -4.21875q2.1875 0 3.984375 0.78125q1.8125 0.78125 2.734375 2.0q0.921875 1.21875 1.28125 2.765625q0.375 1.546875 0.375 4.4375l0 15.46875zm21.085938 -7.921875l6.5625 1.09375q-1.265625 3.609375 -4.0 5.5q-2.71875 1.890625 -6.828125 1.890625q-6.484375 0 -9.609375 -4.25q-2.453125 -3.390625 -2.453125 -8.578125q0 -6.1875 3.234375 -9.6875q3.234375 -3.5 8.171875 -3.5q5.5625 0 8.765625 3.671875q3.21875 3.65625 3.078125 11.234375l-16.5 0q0.0625 2.921875 1.578125 4.5625q1.53125 1.625 3.8125 1.625q1.546875 0 2.59375 -0.84375q1.0625 -0.84375 1.59375 -2.71875zm0.375 -6.65625q-0.0625 -2.859375 -1.46875 -4.34375q-1.40625 -1.5 -3.421875 -1.5q-2.15625 0 -3.5625 1.578125q-1.40625 1.5625 -1.390625 4.265625l9.84375 0z" fill-rule="nonzero"></path><path fill="#000000" fill-opacity="0.0" d="m231.68504 47.257217l691.6535 0l0 432.063l-691.6535 0z" fill-rule="nonzero"></path><path fill="#595959" d="m258.1465 66.29972q1.125 0 2.21875 0.59375q1.09375 0.578125 1.6875 1.671875q0.609375 1.078125 0.609375 2.25q0 1.875 -1.328125 3.203125q-1.3125 1.3125 -3.1875 1.3125q-1.875 0 -3.203125 -1.3125q-1.3125 -1.328125 -1.3125 -3.203125q0 -1.1875 0.59375 -2.265625q0.609375 -1.078125 1.6875 -1.65625q1.09375 -0.59375 2.234375 -0.59375z" fill-rule="nonzero"></path><path fill="#595959" d="m301.70065 75.127846q1.375 0.953125 2.546875 1.390625l-0.578125 1.390625q-1.625 -0.59375 -3.234375 -1.84375q-1.671875 0.921875 -3.6875 0.921875q-2.046875 0 -3.703125 -0.984375q-1.65625 -0.984375 -2.5625 -2.765625q-0.890625 -1.78125 -0.890625 -4.015625q0 -2.21875 0.890625 -4.046875q0.90625 -1.8281288 2.578125 -2.7812538q1.671875 -0.953125 3.71875 -0.953125q2.09375 0 3.765625 1.0q1.671875 0.984375 2.546875 2.7656288q0.875 1.765625 0.875 4.0q0 1.859375 -0.5625 3.34375q-0.5625 1.484375 -1.703125 2.578125zm-4.375 -2.546875q1.71875 0.484375 2.828125 1.4375q1.765625 -1.59375 1.765625 -4.8125q0 -1.828125 -0.625 -3.1875q-0.625 -1.359375 -1.828125 -2.1093788q-1.1875 -0.765625 -2.671875 -0.765625q-2.21875 0 -3.6875 1.5312538q-1.46875 1.515625 -1.46875 4.546875q0 2.9375 1.453125 4.5q1.453125 1.5625 3.703125 1.5625q1.0625 0 2.015625 -0.390625q-0.9375 -0.609375 -1.96875 -0.859375l0.484375 -1.453125zm16.464722 4.15625l0 -1.59375q-1.265625 1.84375 -3.453125 1.84375q-0.953125 0 -1.796875 -0.375q-0.828125 -0.375 -1.234375 -0.921875q-0.40625 -0.5625 -0.578125 -1.375q-0.109375 -0.546875 -0.109375 -1.71875l0 -6.75l1.84375 0l0 6.046875q0 1.4375 0.109375 1.9375q0.171875 0.734375 0.734375 1.15625q0.578125 0.40625 1.40625 0.40625q0.828125 0 1.546875 -0.421875q0.734375 -0.421875 1.03125 -1.15625q0.3125 -0.734375 0.3125 -2.140625l0 -5.828125l1.84375 0l0 10.890625l-1.65625 0zm4.7366943 -12.906254l0 -2.125l1.84375 0l0 2.125l-1.84375 0zm0 12.906254l0 -10.890625l1.84375 0l0 10.890625l-1.84375 0zm11.832184 -3.984375l1.828125 0.234375q-0.296875 1.875 -1.53125 2.9375q-1.21875 1.0625 -3.015625 1.0625q-2.234375 0 -3.59375 -1.453125q-1.34375 -1.46875 -1.34375 -4.203125q0 -1.765625 0.578125 -3.078125q0.578125 -1.328125 1.765625 -1.984375q1.203125 -0.671875 2.609375 -0.671875q1.78125 0 2.90625 0.90625q1.125 0.890625 1.4375 2.546875l-1.78125 0.28125q-0.265625 -1.109375 -0.921875 -1.65625q-0.640625 -0.5625 -1.5625 -0.5625q-1.40625 0 -2.28125 1.0q-0.859375 1.0 -0.859375 3.171875q0 2.1875 0.84375 3.1875q0.84375 1.0 2.1875 1.0q1.09375 0 1.8125 -0.671875q0.734375 -0.671875 0.921875 -2.046875zm3.5703125 3.984375l0 -15.031254l1.84375 0l0 8.578129l4.375 -4.4375l2.390625 0l-4.171875 4.046875l4.59375 6.84375l-2.28125 0l-3.59375 -5.5625l-1.3125 1.25l0 4.3125l-1.84375 0zm16.558441 0l0 -10.890625l1.671875 0l0 1.65625q0.625 -1.15625 1.15625 -1.53125q0.546875 -0.375 1.203125 -0.375q0.921875 0 1.890625 0.59375l-0.640625 1.71875q-0.671875 -0.40625 -1.34375 -0.40625q-0.609375 0 -1.09375 0.375q-0.484375 0.359375 -0.6875 1.0q-0.3125 0.984375 -0.3125 2.15625l0 5.703125l-1.84375 0zm14.5868225 -3.5l1.90625 0.234375q-0.453125 1.671875 -1.671875 2.59375q-1.21875 0.921875 -3.125 0.921875q-2.390625 0 -3.796875 -1.46875q-1.390625 -1.484375 -1.390625 -4.140625q0 -2.734375 1.40625 -4.25q1.421875 -1.53125 3.6875 -1.53125q2.1875 0 3.5625 1.5q1.390625 1.484375 1.390625 4.171875q0 0.171875 -0.015625 0.5l-8.125 0q0.109375 1.796875 1.015625 2.75q0.921875 0.953125 2.28125 0.953125q1.015625 0 1.734375 -0.53125q0.71875 -0.546875 1.140625 -1.703125zm-6.0625 -2.984375l6.078125 0q-0.125 -1.375 -0.703125 -2.0625q-0.875 -1.078125 -2.28125 -1.078125q-1.265625 0 -2.140625 0.859375q-0.859375 0.84375 -0.953125 2.28125zm17.56482 2.5l1.828125 0.234375q-0.296875 1.875 -1.53125 2.9375q-1.21875 1.0625 -3.015625 1.0625q-2.234375 0 -3.59375 -1.453125q-1.34375 -1.46875 -1.34375 -4.203125q0 -1.765625 0.578125 -3.078125q0.578125 -1.328125 1.765625 -1.984375q1.203125 -0.671875 2.609375 -0.671875q1.78125 0 2.90625 0.90625q1.125 0.890625 1.4375 2.546875l-1.78125 0.28125q-0.265625 -1.109375 -0.921875 -1.65625q-0.640625 -0.5625 -1.5625 -0.5625q-1.40625 0 -2.28125 1.0q-0.859375 1.0 -0.859375 3.171875q0 2.1875 0.84375 3.1875q0.84375 1.0 2.1875 1.0q1.09375 0 1.8125 -0.671875q0.734375 -0.671875 0.921875 -2.046875zm10.6640625 2.640625q-1.015625 0.875 -1.96875 1.234375q-0.953125 0.359375 -2.03125 0.359375q-1.796875 0 -2.765625 -0.875q-0.953125 -0.875 -0.953125 -2.25q0 -0.796875 0.359375 -1.453125q0.359375 -0.671875 0.953125 -1.0625q0.59375 -0.40625 1.328125 -0.609375q0.546875 -0.140625 1.640625 -0.28125q2.234375 -0.265625 3.296875 -0.625q0 -0.390625 0 -0.484375q0 -1.125 -0.515625 -1.59375q-0.71875 -0.625 -2.109375 -0.625q-1.296875 0 -1.921875 0.453125q-0.625 0.453125 -0.921875 1.625l-1.796875 -0.25q0.25 -1.15625 0.8125 -1.859375q0.5625 -0.71875 1.625 -1.109375q1.0625 -0.390625 2.46875 -0.390625q1.40625 0 2.265625 0.328125q0.875 0.328125 1.28125 0.828125q0.421875 0.5 0.578125 1.265625q0.09375 0.46875 0.09375 1.6875l0 2.46875q0 2.578125 0.109375 3.265625q0.125 0.671875 0.46875 1.296875l-1.921875 0q-0.28125 -0.578125 -0.375 -1.34375zm-0.140625 -4.125q-1.015625 0.40625 -3.015625 0.703125q-1.140625 0.15625 -1.625 0.375q-0.46875 0.203125 -0.71875 0.59375q-0.25 0.390625 -0.25 0.875q0 0.734375 0.546875 1.234375q0.5625 0.484375 1.640625 0.484375q1.0625 0 1.890625 -0.46875q0.84375 -0.46875 1.234375 -1.265625q0.296875 -0.625 0.296875 -1.84375l0 -0.6875zm4.9085693 9.640625l0 -15.0625l1.671875 0l0 1.421875q0.59375 -0.84375 1.34375 -1.25q0.75 -0.421875 1.8125 -0.421875q1.40625 0 2.46875 0.71875q1.0625 0.71875 1.609375 2.03125q0.546875 1.3125 0.546875 2.859375q0 1.671875 -0.609375 3.015625q-0.59375 1.34375 -1.734375 2.0625q-1.140625 0.703125 -2.40625 0.703125q-0.921875 0 -1.65625 -0.390625q-0.734375 -0.390625 -1.203125 -0.984375l0 5.296875l-1.84375 0zm1.671875 -9.5625q0 2.109375 0.84375 3.125q0.859375 1.0 2.0625 1.0q1.234375 0 2.109375 -1.046875q0.875 -1.046875 0.875 -3.21875q0 -2.09375 -0.859375 -3.125q-0.859375 -1.03125 -2.046875 -1.03125q-1.171875 0 -2.078125 1.109375q-0.90625 1.09375 -0.90625 3.1875zm24.709198 3.609375q-0.921875 1.015625 -2.0 1.53125q-1.078125 0.5 -2.328125 0.5q-2.296875 0 -3.65625 -1.546875q-1.09375 -1.28125 -1.09375 -2.84375q0 -1.390625 0.890625 -2.515625q0.90625 -1.125 2.6875 -1.984375q-1.015625 -1.15625 -1.359375 -1.890625q-0.328125 -0.734375 -0.328125 -1.40625q0 -1.3593788 1.046875 -2.3437538q1.0625 -1.0 2.671875 -1.0q1.546875 0 2.515625 0.9375q0.984375 0.9375 0.984375 2.2656288q0 2.140625 -2.84375 3.65625l2.703125 3.4375q0.46875 -0.90625 0.71875 -2.09375l1.921875 0.40625q-0.5 1.96875 -1.34375 3.25q1.046875 1.375 2.359375 2.296875l-1.25 1.46875q-1.109375 -0.71875 -2.296875 -2.125zm-3.765625 -7.828125q1.203125 -0.703125 1.546875 -1.234375q0.359375 -0.53125 0.359375 -1.1875q0 -0.7656288 -0.484375 -1.2500038q-0.484375 -0.484375 -1.21875 -0.484375q-0.734375 0 -1.234375 0.484375q-0.5 0.46875 -0.5 1.1718788q0 0.34375 0.171875 0.734375q0.1875 0.375 0.546875 0.8125l0.8125 0.953125zm2.59375 6.375l-3.375 -4.1875q-1.5 0.890625 -2.03125 1.65625q-0.515625 0.765625 -0.515625 1.515625q0 0.90625 0.71875 1.890625q0.734375 0.984375 2.078125 0.984375q0.828125 0 1.703125 -0.515625q0.890625 -0.515625 1.421875 -1.34375zm12.870087 3.234375l0 -15.031254l2.0 0l0 7.453129l7.46875 -7.453129l2.6875 0l-6.296875 6.093754l6.578125 8.9375l-2.625 0l-5.359375 -7.609375l-2.453125 2.40625l0 5.203125l-2.0 0zm21.538208 -3.5l1.90625 0.234375q-0.453125 1.671875 -1.671875 2.59375q-1.21875 0.921875 -3.125 0.921875q-2.390625 0 -3.796875 -1.46875q-1.390625 -1.484375 -1.390625 -4.140625q0 -2.734375 1.40625 -4.25q1.421875 -1.53125 3.6875 -1.53125q2.1875 0 3.5625 1.5q1.390625 1.484375 1.390625 4.171875q0 0.171875 -0.015625 0.5l-8.125 0q0.109375 1.796875 1.015625 2.75q0.921875 0.953125 2.28125 0.953125q1.015625 0 1.734375 -0.53125q0.71875 -0.546875 1.140625 -1.703125zm-6.0625 -2.984375l6.078125 0q-0.125 -1.375 -0.703125 -2.0625q-0.875 -1.078125 -2.28125 -1.078125q-1.265625 0 -2.140625 0.859375q-0.859375 0.84375 -0.953125 2.28125zm10.377319 10.671875l-0.203125 -1.71875q0.609375 0.15625 1.0625 0.15625q0.609375 0 0.96875 -0.203125q0.375 -0.203125 0.625 -0.578125q0.171875 -0.28125 0.5625 -1.375q0.046875 -0.15625 0.15625 -0.453125l-4.125 -10.90625l1.984375 0l2.265625 6.3125q0.4375 1.1875 0.796875 2.515625q0.3125 -1.265625 0.75 -2.484375l2.328125 -6.34375l1.84375 0l-4.140625 11.078125q-0.671875 1.796875 -1.03125 2.46875q-0.5 0.90625 -1.140625 1.328125q-0.625 0.4375 -1.515625 0.4375q-0.53125 0 -1.1875 -0.234375zm20.730316 -4.1875l0 -13.265629l-4.9375 0l0 -1.765625l11.90625 0l0 1.765625l-4.96875 0l0 13.265629l-2.0 0zm16.074951 -1.34375q-1.015625 0.875 -1.96875 1.234375q-0.953125 0.359375 -2.03125 0.359375q-1.796875 0 -2.765625 -0.875q-0.953125 -0.875 -0.953125 -2.25q0 -0.796875 0.359375 -1.453125q0.359375 -0.671875 0.953125 -1.0625q0.59375 -0.40625 1.328125 -0.609375q0.546875 -0.140625 1.640625 -0.28125q2.234375 -0.265625 3.296875 -0.625q0 -0.390625 0 -0.484375q0 -1.125 -0.515625 -1.59375q-0.71875 -0.625 -2.109375 -0.625q-1.296875 0 -1.921875 0.453125q-0.625 0.453125 -0.921875 1.625l-1.796875 -0.25q0.25 -1.15625 0.8125 -1.859375q0.5625 -0.71875 1.625 -1.109375q1.0625 -0.390625 2.46875 -0.390625q1.40625 0 2.265625 0.328125q0.875 0.328125 1.28125 0.828125q0.421875 0.5 0.578125 1.265625q0.09375 0.46875 0.09375 1.6875l0 2.46875q0 2.578125 0.109375 3.265625q0.125 0.671875 0.46875 1.296875l-1.921875 0q-0.28125 -0.578125 -0.375 -1.34375zm-0.140625 -4.125q-1.015625 0.40625 -3.015625 0.703125q-1.140625 0.15625 -1.625 0.375q-0.46875 0.203125 -0.71875 0.59375q-0.25 0.390625 -0.25 0.875q0 0.734375 0.546875 1.234375q0.5625 0.484375 1.640625 0.484375q1.0625 0 1.890625 -0.46875q0.84375 -0.46875 1.234375 -1.265625q0.296875 -0.625 0.296875 -1.84375l0 -0.6875zm4.1585693 2.21875l1.828125 -0.28125q0.15625 1.09375 0.859375 1.6875q0.703125 0.578125 1.96875 0.578125q1.265625 0 1.875 -0.515625q0.625 -0.53125 0.625 -1.21875q0 -0.625 -0.546875 -0.984375q-0.375 -0.25 -1.890625 -0.625q-2.03125 -0.515625 -2.8125 -0.890625q-0.78125 -0.375 -1.1875 -1.03125q-0.40625 -0.671875 -0.40625 -1.46875q0 -0.71875 0.328125 -1.34375q0.34375 -0.625 0.90625 -1.03125q0.4375 -0.3125 1.171875 -0.53125q0.75 -0.234375 1.609375 -0.234375q1.28125 0 2.25 0.375q0.96875 0.375 1.421875 1.0q0.46875 0.625 0.640625 1.6875l-1.8125 0.25q-0.109375 -0.84375 -0.703125 -1.3125q-0.59375 -0.484375 -1.671875 -0.484375q-1.265625 0 -1.8125 0.421875q-0.546875 0.421875 -0.546875 0.984375q0 0.359375 0.234375 0.65625q0.21875 0.296875 0.703125 0.484375q0.28125 0.109375 1.625 0.46875q1.96875 0.53125 2.734375 0.859375q0.78125 0.328125 1.21875 0.96875q0.4375 0.640625 0.4375 1.578125q0 0.921875 -0.546875 1.75q-0.53125 0.8125 -1.546875 1.265625q-1.015625 0.4375 -2.296875 0.4375q-2.125 0 -3.234375 -0.875q-1.109375 -0.890625 -1.421875 -2.625zm11.4140625 3.25l0 -15.031254l1.84375 0l0 8.578129l4.3750305 -4.4375l2.390625 0l-4.171875 4.046875l4.59375 6.84375l-2.28125 0l-3.5937805 -5.5625l-1.3125 1.25l0 4.3125l-1.84375 0zm9.914093 -3.25l1.828125 -0.28125q0.15625 1.09375 0.859375 1.6875q0.703125 0.578125 1.96875 0.578125q1.265625 0 1.875 -0.515625q0.625 -0.53125 0.625 -1.21875q0 -0.625 -0.546875 -0.984375q-0.375 -0.25 -1.890625 -0.625q-2.03125 -0.515625 -2.8125 -0.890625q-0.78125 -0.375 -1.1875 -1.03125q-0.40625 -0.671875 -0.40625 -1.46875q0 -0.71875 0.328125 -1.34375q0.34375 -0.625 0.90625 -1.03125q0.4375 -0.3125 1.171875 -0.53125q0.75 -0.234375 1.609375 -0.234375q1.28125 0 2.25 0.375q0.96875 0.375 1.421875 1.0q0.46875 0.625 0.640625 1.6875l-1.8125 0.25q-0.109375 -0.84375 -0.703125 -1.3125q-0.59375 -0.484375 -1.671875 -0.484375q-1.265625 0 -1.8125 0.421875q-0.546875 0.421875 -0.546875 0.984375q0 0.359375 0.234375 0.65625q0.21875 0.296875 0.703125 0.484375q0.28125 0.109375 1.625 0.46875q1.96875 0.53125 2.734375 0.859375q0.78125 0.328125 1.21875 0.96875q0.4375 0.640625 0.4375 1.578125q0 0.921875 -0.546875 1.75q-0.53125 0.8125 -1.546875 1.265625q-1.015625 0.4375 -2.296875 0.4375q-2.125 0 -3.234375 -0.875q-1.109375 -0.890625 -1.421875 -2.625z" fill-rule="nonzero"></path><path fill="#595959" d="m258.1465 95.29972q1.125 0 2.21875 0.59375q1.09375 0.578125 1.6875 1.671875q0.609375 1.078125 0.609375 2.25q0 1.875 -1.328125 3.203125q-1.3125 1.3125 -3.1875 1.3125q-1.875 0 -3.203125 -1.3125q-1.3125 -1.328125 -1.3125 -3.203125q0 -1.1875 0.59375 -2.265625q0.609375 -1.078125 1.6875 -1.65625q1.09375 -0.59375 2.234375 -0.59375z" fill-rule="nonzero"></path><path fill="#595959" d="m290.24753 105.73722l0 -15.03125l2.984375 0l3.5625 10.640625q0.5 1.484375 0.71875 2.234375q0.25 -0.828125 0.796875 -2.421875l3.609375 -10.453125l2.671875 0l0 15.03125l-1.921875 0l0 -12.578125l-4.359375 12.578125l-1.796875 0l-4.359375 -12.796875l0 12.796875l-1.90625 0zm25.04776 -3.5l1.90625 0.234375q-0.453125 1.671875 -1.671875 2.59375q-1.21875 0.921875 -3.125 0.921875q-2.390625 0 -3.796875 -1.46875q-1.390625 -1.484375 -1.390625 -4.140625q0 -2.734375 1.40625 -4.25q1.421875 -1.53125 3.6875 -1.53125q2.1875 0 3.5625 1.5q1.390625 1.484375 1.390625 4.171875q0 0.171875 -0.015625 0.5l-8.125 0q0.109375 1.796875 1.015625 2.75q0.921875 0.953125 2.28125 0.953125q1.015625 0 1.734375 -0.53125q0.71875 -0.546875 1.140625 -1.703125zm-6.0625 -2.984375l6.078125 0q-0.125 -1.375 -0.703125 -2.0625q-0.875 -1.078125 -2.28125 -1.078125q-1.265625 0 -2.140625 0.859375q-0.859375 0.84375 -0.953125 2.28125zm14.502319 4.828125l0.265625 1.640625q-0.78125 0.15625 -1.40625 0.15625q-1.0 0 -1.5625 -0.3125q-0.546875 -0.328125 -0.78125 -0.84375q-0.21875 -0.515625 -0.21875 -2.171875l0 -6.265625l-1.34375 0l0 -1.4375l1.34375 0l0 -2.703125l1.84375 -1.09375l0 3.796875l1.859375 0l0 1.4375l-1.859375 0l0 6.359375q0 0.796875 0.09375 1.03125q0.09375 0.21875 0.3125 0.359375q0.21875 0.125 0.640625 0.125q0.296875 0 0.8125 -0.078125zm1.8943787 1.65625l0 -15.03125l1.84375 0l0 5.390625q1.28125 -1.5 3.25 -1.5q1.21875 0 2.109375 0.484375q0.890625 0.46875 1.265625 1.3125q0.390625 0.84375 0.390625 2.4375l0 6.90625l-1.84375 0l0 -6.90625q0 -1.375 -0.609375 -2.0q-0.59375 -0.640625 -1.6875 -0.640625q-0.8125 0 -1.546875 0.421875q-0.71875 0.421875 -1.03125 1.15625q-0.296875 0.734375 -0.296875 2.015625l0 5.953125l-1.84375 0zm11.174194 -5.4375q0 -3.03125 1.671875 -4.484375q1.40625 -1.21875 3.421875 -1.21875q2.25 0 3.671875 1.484375q1.4375 1.46875 1.4375 4.0625q0 2.09375 -0.640625 3.296875q-0.625 1.203125 -1.828125 1.875q-1.203125 0.671875 -2.640625 0.671875q-2.28125 0 -3.6875 -1.46875q-1.40625 -1.46875 -1.40625 -4.21875zm1.890625 0q0 2.078125 0.90625 3.125q0.921875 1.046875 2.296875 1.046875q1.375 0 2.28125 -1.046875q0.921875 -1.046875 0.921875 -3.1875q0 -2.03125 -0.921875 -3.0625q-0.90625 -1.046875 -2.28125 -1.046875q-1.375 0 -2.296875 1.046875q-0.90625 1.03125 -0.90625 3.125zm17.72107 5.4375l0 -1.375q-1.046875 1.625 -3.046875 1.625q-1.296875 0 -2.390625 -0.71875q-1.09375 -0.71875 -1.703125 -2.0q-0.59375 -1.296875 -0.59375 -2.96875q0 -1.625 0.546875 -2.953125q0.546875 -1.328125 1.625 -2.03125q1.09375 -0.71875 2.4375 -0.71875q0.984375 0 1.75 0.421875q0.765625 0.40625 1.25 1.078125l0 -5.390625l1.828125 0l0 15.03125l-1.703125 0zm-5.84375 -5.4375q0 2.09375 0.875 3.140625q0.890625 1.03125 2.09375 1.03125q1.203125 0 2.046875 -0.984375q0.859375 -1.0 0.859375 -3.03125q0 -2.234375 -0.875 -3.28125q-0.859375 -1.046875 -2.109375 -1.046875q-1.234375 0 -2.0625 1.015625q-0.828125 1.0 -0.828125 3.15625z" fill-rule="nonzero"></path><path fill="#595959" d="m258.1465 124.29971q1.125 0 2.21875 0.59375q1.09375 0.578125 1.6875 1.671875q0.609375 1.078125 0.609375 2.25q0 1.875 -1.328125 3.203125q-1.3125 1.3125 -3.1875 1.3125q-1.875 0 -3.203125 -1.3125q-1.3125 -1.328125 -1.3125 -3.203125q0 -1.1875 0.59375 -2.265625q0.609375 -1.078125 1.6875 -1.65625q1.09375 -0.59375 2.234375 -0.59375z" fill-rule="nonzero"></path><path fill="#595959" d="m290.31003 134.73721l0 -15.03125l5.671875 0q1.484375 0 2.28125 0.140625q1.109375 0.1875 1.859375 0.703125q0.75 0.515625 1.203125 1.453125q0.453125 0.9375 0.453125 2.046875q0 1.921875 -1.21875 3.25q-1.21875 1.328125 -4.40625 1.328125l-3.859375 0l0 6.109375l-1.984375 0zm1.984375 -7.890625l3.890625 0q1.921875 0 2.734375 -0.71875q0.8125 -0.71875 0.8125 -2.015625q0 -0.9375 -0.484375 -1.609375q-0.46875 -0.671875 -1.25 -0.890625q-0.5 -0.140625 -1.859375 -0.140625l-3.84375 0l0 5.375zm19.460083 4.390625l1.90625 0.234375q-0.453125 1.671875 -1.671875 2.59375q-1.21875 0.921875 -3.125 0.921875q-2.390625 0 -3.796875 -1.46875q-1.390625 -1.484375 -1.390625 -4.140625q0 -2.734375 1.40625 -4.25q1.421875 -1.53125 3.6875 -1.53125q2.1875 0 3.5625 1.5q1.390625 1.484375 1.390625 4.171875q0 0.171875 -0.015625 0.5l-8.125 0q0.109375 1.796875 1.015625 2.75q0.921875 0.953125 2.28125 0.953125q1.015625 0 1.734375 -0.53125q0.71875 -0.546875 1.140625 -1.703125zm-6.0625 -2.984375l6.078125 0q-0.125 -1.375 -0.703125 -2.0625q-0.875 -1.078125 -2.28125 -1.078125q-1.265625 0 -2.140625 0.859375q-0.859375 0.84375 -0.953125 2.28125zm10.439819 6.484375l0 -10.890625l1.671875 0l0 1.65625q0.625 -1.15625 1.15625 -1.53125q0.546875 -0.375 1.203125 -0.375q0.921875 0 1.890625 0.59375l-0.640625 1.71875q-0.671875 -0.40625 -1.34375 -0.40625q-0.609375 0 -1.09375 0.375q-0.484375 0.359375 -0.6875 1.0q-0.3125 0.984375 -0.3125 2.15625l0 5.703125l-1.84375 0zm6.383667 -3.25l1.828125 -0.28125q0.15625 1.09375 0.859375 1.6875q0.703125 0.578125 1.96875 0.578125q1.265625 0 1.875 -0.515625q0.625 -0.53125 0.625 -1.21875q0 -0.625 -0.546875 -0.984375q-0.375 -0.25 -1.890625 -0.625q-2.03125 -0.515625 -2.8125 -0.890625q-0.78125 -0.375 -1.1875 -1.03125q-0.40625 -0.671875 -0.40625 -1.46875q0 -0.71875 0.328125 -1.34375q0.34375 -0.625 0.90625 -1.03125q0.4375 -0.3125 1.171875 -0.53125q0.75 -0.234375 1.609375 -0.234375q1.28125 0 2.25 0.375q0.96875 0.375 1.421875 1.0q0.46875 0.625 0.640625 1.6875l-1.8125 0.25q-0.109375 -0.84375 -0.703125 -1.3125q-0.59375 -0.484375 -1.671875 -0.484375q-1.265625 0 -1.8125 0.421875q-0.546875 0.421875 -0.546875 0.984375q0 0.359375 0.234375 0.65625q0.21875 0.296875 0.703125 0.484375q0.28125 0.109375 1.625 0.46875q1.96875 0.53125 2.734375 0.859375q0.78125 0.328125 1.21875 0.96875q0.4375 0.640625 0.4375 1.578125q0 0.921875 -0.546875 1.75q-0.53125 0.8125 -1.546875 1.265625q-1.015625 0.4375 -2.296875 0.4375q-2.125 0 -3.234375 -0.875q-1.109375 -0.890625 -1.421875 -2.625zm10.7265625 -2.1875q0 -3.03125 1.671875 -4.484375q1.40625 -1.21875 3.421875 -1.21875q2.25 0 3.671875 1.484375q1.4375 1.46875 1.4375 4.0625q0 2.09375 -0.640625 3.296875q-0.625 1.203125 -1.828125 1.875q-1.203125 0.671875 -2.640625 0.671875q-2.28125 0 -3.6875 -1.46875q-1.40625 -1.46875 -1.40625 -4.21875zm1.890625 0q0 2.078125 0.90625 3.125q0.921875 1.046875 2.296875 1.046875q1.375 0 2.28125 -1.046875q0.921875 -1.046875 0.921875 -3.1875q0 -2.03125 -0.921875 -3.0625q-0.90625 -1.046875 -2.28125 -1.046875q-1.375 0 -2.296875 1.046875q-0.90625 1.03125 -0.90625 3.125zm10.658569 5.4375l0 -10.890625l1.65625 0l0 1.546875q1.203125 -1.796875 3.46875 -1.796875q0.984375 0 1.796875 0.359375q0.828125 0.359375 1.234375 0.9375q0.421875 0.5625 0.578125 1.359375q0.109375 0.5 0.109375 1.78125l0 6.703125l-1.84375 0l0 -6.625q0 -1.125 -0.21875 -1.6875q-0.21875 -0.5625 -0.765625 -0.890625q-0.546875 -0.328125 -1.28125 -0.328125q-1.1875 0 -2.046875 0.75q-0.84375 0.734375 -0.84375 2.828125l0 5.953125l-1.84375 0zm18.955444 -1.34375q-1.015625 0.875 -1.96875 1.234375q-0.953125 0.359375 -2.03125 0.359375q-1.796875 0 -2.765625 -0.875q-0.953125 -0.875 -0.953125 -2.25q0 -0.796875 0.359375 -1.453125q0.359375 -0.671875 0.953125 -1.0625q0.59375 -0.40625 1.328125 -0.609375q0.546875 -0.140625 1.640625 -0.28125q2.234375 -0.265625 3.296875 -0.625q0 -0.390625 0 -0.484375q0 -1.125 -0.515625 -1.59375q-0.71875 -0.625 -2.109375 -0.625q-1.296875 0 -1.921875 0.453125q-0.625 0.453125 -0.921875 1.625l-1.796875 -0.25q0.25 -1.15625 0.8125 -1.859375q0.5625 -0.71875 1.625 -1.109375q1.0625 -0.390625 2.46875 -0.390625q1.40625 0 2.265625 0.328125q0.875 0.328125 1.28125 0.828125q0.421875 0.5 0.578125 1.265625q0.09375 0.46875 0.09375 1.6875l0 2.46875q0 2.578125 0.109375 3.265625q0.125 0.671875 0.46875 1.296875l-1.921875 0q-0.28125 -0.578125 -0.375 -1.34375zm-0.140625 -4.125q-1.015625 0.40625 -3.015625 0.703125q-1.140625 0.15625 -1.625 0.375q-0.46875 0.203125 -0.71875 0.59375q-0.25 0.390625 -0.25 0.875q0 0.734375 0.546875 1.234375q0.5625 0.484375 1.640625 0.484375q1.0625 0 1.890625 -0.46875q0.84375 -0.46875 1.234375 -1.265625q0.296875 -0.625 0.296875 -1.84375l0 -0.6875zm4.1585693 2.21875l1.828125 -0.28125q0.15625 1.09375 0.859375 1.6875q0.703125 0.578125 1.96875 0.578125q1.265625 0 1.875 -0.515625q0.625 -0.53125 0.625 -1.21875q0 -0.625 -0.546875 -0.984375q-0.375 -0.25 -1.890625 -0.625q-2.03125 -0.515625 -2.8125 -0.890625q-0.78125 -0.375 -1.1875 -1.03125q-0.40625 -0.671875 -0.40625 -1.46875q0 -0.71875 0.328125 -1.34375q0.34375 -0.625 0.90625 -1.03125q0.4375 -0.3125 1.171875 -0.53125q0.75 -0.234375 1.609375 -0.234375q1.28125 0 2.25 0.375q0.96875 0.375 1.421875 1.0q0.46875 0.625 0.640625 1.6875l-1.8125 0.25q-0.109375 -0.84375 -0.703125 -1.3125q-0.59375 -0.484375 -1.671875 -0.484375q-1.265625 0 -1.8125 0.421875q-0.546875 0.421875 -0.546875 0.984375q0 0.359375 0.234375 0.65625q0.21875 0.296875 0.703125 0.484375q0.28125 0.109375 1.625 0.46875q1.96875 0.53125 2.734375 0.859375q0.78125 0.328125 1.21875 0.96875q0.4375 0.640625 0.4375 1.578125q0 0.921875 -0.546875 1.75q-0.53125 0.8125 -1.546875 1.265625q-1.015625 0.4375 -2.296875 0.4375q-2.125 0 -3.234375 -0.875q-1.109375 -0.890625 -1.421875 -2.625z" fill-rule="nonzero"></path><path fill="#595959" d="m258.1465 153.29971q1.125 0 2.21875 0.59375q1.09375 0.578125 1.6875 1.671875q0.609375 1.078125 0.609375 2.25q0 1.875 -1.328125 3.203125q-1.3125 1.3125 -3.1875 1.3125q-1.875 0 -3.203125 -1.3125q-1.3125 -1.328125 -1.3125 -3.203125q0 -1.1875 0.59375 -2.265625q0.609375 -1.078125 1.6875 -1.65625q1.09375 -0.59375 2.234375 -0.59375z" fill-rule="nonzero"></path><path fill="#595959" d="m289.62253 158.90909l1.875 -0.171875q0.140625 1.140625 0.625 1.859375q0.484375 0.71875 1.515625 1.171875q1.03125 0.4375 2.3125 0.4375q1.125 0 2.0 -0.328125q0.875 -0.34375 1.296875 -0.9375q0.4375 -0.59375 0.4375 -1.28125q0 -0.703125 -0.421875 -1.234375q-0.40625 -0.53125 -1.34375 -0.890625q-0.609375 -0.234375 -2.6875 -0.734375q-2.0625 -0.5 -2.890625 -0.9375q-1.078125 -0.5625 -1.609375 -1.390625q-0.53125 -0.84375 -0.53125 -1.875q0 -1.140625 0.640625 -2.125q0.65625 -1.0 1.890625 -1.5q1.25 -0.515625 2.765625 -0.515625q1.671875 0 2.9375 0.53125q1.28125 0.53125 1.96875 1.578125q0.6875 1.046875 0.734375 2.375l-1.90625 0.140625q-0.15625 -1.421875 -1.046875 -2.140625q-0.875 -0.734375 -2.609375 -0.734375q-1.796875 0 -2.625 0.65625q-0.828125 0.65625 -0.828125 1.59375q0 0.8125 0.578125 1.328125q0.578125 0.53125 3.0 1.078125q2.421875 0.546875 3.328125 0.953125q1.3125 0.609375 1.9375 1.546875q0.625 0.921875 0.625 2.125q0 1.203125 -0.6875 2.265625q-0.6875 1.0625 -1.96875 1.65625q-1.28125 0.578125 -2.890625 0.578125q-2.046875 0 -3.4375 -0.59375q-1.375 -0.59375 -2.15625 -1.78125q-0.78125 -1.203125 -0.828125 -2.703125zm21.772583 0.84375l1.828125 0.234375q-0.296875 1.875 -1.53125 2.9375q-1.21875 1.0625 -3.015625 1.0625q-2.234375 0 -3.59375 -1.453125q-1.34375 -1.46875 -1.34375 -4.203125q0 -1.765625 0.578125 -3.078125q0.578125 -1.328125 1.765625 -1.984375q1.203125 -0.671875 2.609375 -0.671875q1.78125 0 2.90625 0.90625q1.125 0.890625 1.4375 2.546875l-1.78125 0.28125q-0.265625 -1.109375 -0.921875 -1.65625q-0.640625 -0.5625 -1.5625 -0.5625q-1.40625 0 -2.28125 1.0q-0.859375 1.0 -0.859375 3.171875q0 2.1875 0.84375 3.1875q0.84375 1.0 2.1875 1.0q1.09375 0 1.8125 -0.671875q0.734375 -0.671875 0.921875 -2.046875zm11.0234375 0.484375l1.90625 0.234375q-0.453125 1.671875 -1.671875 2.59375q-1.21875 0.921875 -3.125 0.921875q-2.390625 0 -3.796875 -1.46875q-1.390625 -1.484375 -1.390625 -4.140625q0 -2.734375 1.40625 -4.25q1.421875 -1.53125 3.6875 -1.53125q2.1875 0 3.5625 1.5q1.390625 1.484375 1.390625 4.171875q0 0.171875 -0.015625 0.5l-8.125 0q0.109375 1.796875 1.015625 2.75q0.921875 0.953125 2.28125 0.953125q1.015625 0 1.734375 -0.53125q0.71875 -0.546875 1.140625 -1.703125zm-6.0625 -2.984375l6.078125 0q-0.125 -1.375 -0.703125 -2.0625q-0.875 -1.078125 -2.28125 -1.078125q-1.265625 0 -2.140625 0.859375q-0.859375 0.84375 -0.953125 2.28125zm10.471069 6.484375l0 -10.890625l1.65625 0l0 1.546875q1.203125 -1.796875 3.46875 -1.796875q0.984375 0 1.796875 0.359375q0.828125 0.359375 1.234375 0.9375q0.421875 0.5625 0.578125 1.359375q0.109375 0.5 0.109375 1.78125l0 6.703125l-1.84375 0l0 -6.625q0 -1.125 -0.21875 -1.6875q-0.21875 -0.5625 -0.765625 -0.890625q-0.546875 -0.328125 -1.28125 -0.328125q-1.1875 0 -2.046875 0.75q-0.84375 0.734375 -0.84375 2.828125l0 5.953125l-1.84375 0zm18.955444 -1.34375q-1.015625 0.875 -1.96875 1.234375q-0.953125 0.359375 -2.03125 0.359375q-1.796875 0 -2.765625 -0.875q-0.953125 -0.875 -0.953125 -2.25q0 -0.796875 0.359375 -1.453125q0.359375 -0.671875 0.953125 -1.0625q0.59375 -0.40625 1.328125 -0.609375q0.546875 -0.140625 1.640625 -0.28125q2.234375 -0.265625 3.296875 -0.625q0 -0.390625 0 -0.484375q0 -1.125 -0.515625 -1.59375q-0.71875 -0.625 -2.109375 -0.625q-1.296875 0 -1.921875 0.453125q-0.625 0.453125 -0.921875 1.625l-1.796875 -0.25q0.25 -1.15625 0.8125 -1.859375q0.5625 -0.71875 1.625 -1.109375q1.0625 -0.390625 2.46875 -0.390625q1.40625 0 2.265625 0.328125q0.875 0.328125 1.28125 0.828125q0.421875 0.5 0.578125 1.265625q0.09375 0.46875 0.09375 1.6875l0 2.46875q0 2.578125 0.109375 3.265625q0.125 0.671875 0.46875 1.296875l-1.921875 0q-0.28125 -0.578125 -0.375 -1.34375zm-0.140625 -4.125q-1.015625 0.40625 -3.015625 0.703125q-1.140625 0.15625 -1.625 0.375q-0.46875 0.203125 -0.71875 0.59375q-0.25 0.390625 -0.25 0.875q0 0.734375 0.546875 1.234375q0.5625 0.484375 1.640625 0.484375q1.0625 0 1.890625 -0.46875q0.84375 -0.46875 1.234375 -1.265625q0.296875 -0.625 0.296875 -1.84375l0 -0.6875zm4.8773193 5.46875l0 -10.890625l1.671875 0l0 1.65625q0.625 -1.15625 1.15625 -1.53125q0.546875 -0.375 1.203125 -0.375q0.921875 0 1.890625 0.59375l-0.640625 1.71875q-0.671875 -0.40625 -1.34375 -0.40625q-0.609375 0 -1.09375 0.375q-0.484375 0.359375 -0.6875 1.0q-0.3125 0.984375 -0.3125 2.15625l0 5.703125l-1.84375 0zm7.133667 -12.90625l0 -2.125l1.84375 0l0 2.125l-1.84375 0zm0 12.90625l0 -10.890625l1.84375 0l0 10.890625l-1.84375 0zm4.050934 -5.4375q0 -3.03125 1.671875 -4.484375q1.40625 -1.21875 3.421875 -1.21875q2.25 0 3.671875 1.484375q1.4375 1.46875 1.4375 4.0625q0 2.09375 -0.640625 3.296875q-0.625 1.203125 -1.828125 1.875q-1.203125 0.671875 -2.640625 0.671875q-2.28125 0 -3.6875 -1.46875q-1.40625 -1.46875 -1.40625 -4.21875zm1.890625 0q0 2.078125 0.90625 3.125q0.921875 1.046875 2.296875 1.046875q1.375 0 2.28125 -1.046875q0.921875 -1.046875 0.921875 -3.1875q0 -2.03125 -0.921875 -3.0625q-0.90625 -1.046875 -2.28125 -1.046875q-1.375 0 -2.296875 1.046875q-0.90625 1.03125 -0.90625 3.125zm9.908569 2.1875l1.828125 -0.28125q0.15625 1.09375 0.859375 1.6875q0.703125 0.578125 1.96875 0.578125q1.265625 0 1.875 -0.515625q0.625 -0.53125 0.625 -1.21875q0 -0.625 -0.546875 -0.984375q-0.375 -0.25 -1.890625 -0.625q-2.03125 -0.515625 -2.8125 -0.890625q-0.78125 -0.375 -1.1875 -1.03125q-0.40625 -0.671875 -0.40625 -1.46875q0 -0.71875 0.328125 -1.34375q0.34375 -0.625 0.90625 -1.03125q0.4375 -0.3125 1.171875 -0.53125q0.75 -0.234375 1.609375 -0.234375q1.28125 0 2.25 0.375q0.96875 0.375 1.421875 1.0q0.46875 0.625 0.640625 1.6875l-1.8125 0.25q-0.109375 -0.84375 -0.703125 -1.3125q-0.59375 -0.484375 -1.671875 -0.484375q-1.265625 0 -1.8125 0.421875q-0.546875 0.421875 -0.546875 0.984375q0 0.359375 0.234375 0.65625q0.21875 0.296875 0.703125 0.484375q0.28125 0.109375 1.625 0.46875q1.96875 0.53125 2.734375 0.859375q0.78125 0.328125 1.21875 0.96875q0.4375 0.640625 0.4375 1.578125q0 0.921875 -0.546875 1.75q-0.53125 0.8125 -1.546875 1.265625q-1.015625 0.4375 -2.296875 0.4375q-2.125 0 -3.234375 -0.875q-1.109375 -0.890625 -1.421875 -2.625z" fill-rule="nonzero"></path></g></svg>

