<?xml version="1.0" standalone="yes"?>

<svg version="1.1" viewBox="0.0 0.0 960.0 540.0" fill="none" stroke="none" stroke-linecap="square" stroke-miterlimit="10" xmlns="http://www.w3.org/2000/svg" xmlns:xlink="http://www.w3.org/1999/xlink"><clipPath id="p.0"><path d="m0 0l960.0 0l0 540.0l-960.0 0l0 -540.0z" clip-rule="nonzero"></path></clipPath><g clip-path="url(#p.0)"><path fill="#ffffff" d="m0 0l960.0 0l0 540.0l-960.0 0z" fill-rule="nonzero"></path><path fill="#30343f" d="m0 0l960.0 0l0 540.0l-960.0 0z" fill-rule="nonzero"></path><path fill="#faffd8" d="m366.0866 0l485.92126 0l0 485.92126l-485.92126 0z" fill-rule="nonzero"></path><path fill="#ba1200" d="m415.74698 302.96054l57.606293 0l0 5.5747986l-57.606293 0z" fill-rule="nonzero"></path><path fill="#000000" fill-opacity="0.0" d="m402.07086 55.88438l413.95276 0l0 208.15749l-413.95276 0z" fill-rule="nonzero"></path><path fill="#30343f" d="m414.82086 242.24187l0 -37.9375l11.46875 0l6.875 25.875l6.8125 -25.875l11.484375 0l0 37.9375l-7.109375 0l0 -29.859375l-7.53125 29.859375l-7.375 0l-7.5 -29.859375l0 29.859375l-7.125 0zm44.469635 -31.203125l0 -6.734375l7.28125 0l0 6.734375l-7.28125 0zm0 31.203125l0 -27.484375l7.28125 0l0 27.484375l-7.28125 0zm14.816254 0l0 -37.9375l7.28125 0l0 37.9375l-7.28125 0zm30.73816 -8.75l7.25 1.21875q-1.40625 3.984375 -4.421875 6.078125q-3.015625 2.078125 -7.53125 2.078125q-7.171875 0 -10.609375 -4.6875q-2.71875 -3.75 -2.71875 -9.46875q0 -6.828125 3.5625 -10.703125q3.578125 -3.875 9.03125 -3.875q6.140625 0 9.6875 4.0625q3.546875 4.046875 3.390625 12.40625l-18.21875 0q0.078125 3.234375 1.75 5.03125q1.6875 1.796875 4.203125 1.796875q1.703125 0 2.859375 -0.921875q1.171875 -0.9375 1.765625 -3.015625zm0.421875 -7.34375q-0.078125 -3.15625 -1.640625 -4.796875q-1.546875 -1.65625 -3.78125 -1.65625q-2.375 0 -3.921875 1.734375q-1.5625 1.734375 -1.53125 4.71875l10.875 0zm10.767944 8.25l7.296875 -1.109375q0.453125 2.125 1.875 3.234375q1.4375 1.09375 4.0 1.09375q2.8125 0 4.234375 -1.046875q0.953125 -0.71875 0.953125 -1.9375q0 -0.828125 -0.515625 -1.375q-0.53125 -0.515625 -2.421875 -0.953125q-8.796875 -1.9375 -11.15625 -3.546875q-3.265625 -2.21875 -3.265625 -6.1875q0 -3.5625 2.8125 -6.0q2.828125 -2.4375 8.75 -2.4375q5.65625 0 8.390625 1.84375q2.75 1.828125 3.78125 5.4375l-6.859375 1.265625q-0.4375 -1.609375 -1.671875 -2.453125q-1.234375 -0.859375 -3.5 -0.859375q-2.875 0 -4.125 0.796875q-0.828125 0.578125 -0.828125 1.484375q0 0.765625 0.734375 1.3125q0.984375 0.71875 6.78125 2.046875q5.8125 1.3125 8.125 3.234375q2.28125 1.9375 2.28125 5.40625q0 3.78125 -3.171875 6.5q-3.15625 2.71875 -9.328125 2.71875q-5.625 0 -8.90625 -2.28125q-3.265625 -2.28125 -4.265625 -6.1875zm44.81482 -19.640625l0 5.796875l-4.96875 0l0 11.078125q0 3.359375 0.140625 3.921875q0.140625 0.546875 0.640625 0.921875q0.515625 0.359375 1.234375 0.359375q1.015625 0 2.921875 -0.703125l0.625 5.640625q-2.53125 1.09375 -5.75 1.09375q-1.953125 0 -3.53125 -0.65625q-1.578125 -0.671875 -2.328125 -1.71875q-0.734375 -1.046875 -1.015625 -2.828125q-0.234375 -1.265625 -0.234375 -5.125l0 -11.984375l-3.34375 0l0 -5.796875l3.34375 0l0 -5.453125l7.296875 -4.25l0 9.703125l4.96875 0zm3.477417 13.359375q0 -3.625 1.78125 -7.015625q1.78125 -3.390625 5.046875 -5.171875q3.28125 -1.796875 7.328125 -1.796875q6.234375 0 10.21875 4.0625q3.984375 4.046875 3.984375 10.234375q0 6.234375 -4.03125 10.34375q-4.015625 4.09375 -10.125 4.09375q-3.78125 0 -7.21875 -1.703125q-3.421875 -1.71875 -5.203125 -5.015625q-1.78125 -3.296875 -1.78125 -8.03125zm7.453125 0.390625q0 4.078125 1.9375 6.25q1.9375 2.171875 4.78125 2.171875q2.859375 0 4.78125 -2.171875q1.921875 -2.171875 1.921875 -6.3125q0 -4.03125 -1.921875 -6.203125q-1.921875 -2.171875 -4.78125 -2.171875q-2.84375 0 -4.78125 2.171875q-1.9375 2.171875 -1.9375 6.265625zm51.7937 13.734375l-7.265625 0l0 -14.03125q0 -4.453125 -0.46875 -5.75q-0.46875 -1.3125 -1.515625 -2.03125q-1.046875 -0.734375 -2.515625 -0.734375q-1.890625 0 -3.390625 1.046875q-1.5 1.03125 -2.0625 2.75q-0.546875 1.703125 -0.546875 6.296875l0 12.453125l-7.28125 0l0 -27.484375l6.75 0l0 4.03125q3.609375 -4.65625 9.0625 -4.65625q2.40625 0 4.390625 0.875q2.0 0.859375 3.015625 2.21875q1.03125 1.34375 1.421875 3.046875q0.40625 1.703125 0.40625 4.890625l0 17.078125zm23.496826 -8.75l7.25 1.21875q-1.40625 3.984375 -4.421875 6.078125q-3.015625 2.078125 -7.53125 2.078125q-7.171875 0 -10.609375 -4.6875q-2.71875 -3.75 -2.71875 -9.46875q0 -6.828125 3.5625 -10.703125q3.578125 -3.875 9.03125 -3.875q6.140625 0 9.6875 4.0625q3.546875 4.046875 3.390625 12.40625l-18.21875 0q0.078125 3.234375 1.75 5.03125q1.6875 1.796875 4.203125 1.796875q1.703125 0 2.859375 -0.921875q1.171875 -0.9375 1.765625 -3.015625zm0.421875 -7.34375q-0.078125 -3.15625 -1.640625 -4.796875q-1.546875 -1.65625 -3.78125 -1.65625q-2.375 0 -3.921875 1.734375q-1.5625 1.734375 -1.53125 4.71875l10.875 0zm26.334229 6.03125l7.03125 -0.859375q0.34375 2.6875 1.8125 4.109375q1.46875 1.421875 3.578125 1.421875q2.25 0 3.78125 -1.703125q1.546875 -1.703125 1.546875 -4.609375q0 -2.734375 -1.484375 -4.34375q-1.46875 -1.609375 -3.59375 -1.609375q-1.390625 0 -3.34375 0.546875l0.8125 -5.921875q2.953125 0.078125 4.5 -1.28125q1.546875 -1.359375 1.546875 -3.609375q0 -1.921875 -1.140625 -3.046875q-1.125 -1.140625 -3.015625 -1.140625q-1.875 0 -3.1875 1.296875q-1.3125 1.28125 -1.609375 3.765625l-6.703125 -1.140625q0.703125 -3.4375 2.109375 -5.484375q1.421875 -2.0625 3.9375 -3.234375q2.53125 -1.1875 5.65625 -1.1875q5.359375 0 8.59375 3.421875q2.65625 2.78125 2.65625 6.3125q0 4.984375 -5.453125 7.96875q3.265625 0.703125 5.21875 3.140625q1.953125 2.421875 1.953125 5.859375q0 5.0 -3.65625 8.515625q-3.640625 3.515625 -9.078125 3.515625q-5.15625 0 -8.546875 -2.953125q-3.390625 -2.96875 -3.921875 -7.75z" fill-rule="nonzero"></path><path fill="#000000" fill-opacity="0.0" d="m402.07086 347.454l413.95276 0l0 82.58267l-413.95276 0z" fill-rule="nonzero"></path><path fill="#30343f" d="m413.2271 383.334l0 -20.046875l7.5625 0q2.0 0 3.046875 0.1875q1.484375 0.25 2.484375 0.953125q1.0 0.6875 1.59375 1.9375q0.609375 1.234375 0.609375 2.71875q0 2.5625 -1.625 4.328125q-1.625 1.765625 -5.875 1.765625l-5.140625 0l0 8.15625l-2.65625 0zm2.65625 -10.515625l5.1875 0q2.5625 0 3.640625 -0.953125q1.078125 -0.953125 1.078125 -2.703125q0 -1.25 -0.640625 -2.140625q-0.625 -0.90625 -1.65625 -1.1875q-0.671875 -0.171875 -2.484375 -0.171875l-5.125 0l0 7.15625zm15.660156 10.515625l0 -20.046875l2.453125 0l0 20.046875l-2.453125 0zm16.205078 -4.671875l2.546875 0.3125q-0.59375 2.21875 -2.234375 3.453125q-1.625 1.234375 -4.15625 1.234375q-3.171875 0 -5.046875 -1.953125q-1.859375 -1.96875 -1.859375 -5.515625q0 -3.65625 1.875 -5.671875q1.890625 -2.03125 4.90625 -2.03125q2.90625 0 4.75 1.984375q1.84375 1.96875 1.84375 5.578125q0 0.21875 -0.015625 0.65625l-10.828125 0q0.140625 2.390625 1.359375 3.65625q1.21875 1.265625 3.03125 1.265625q1.359375 0 2.3125 -0.703125q0.953125 -0.71875 1.515625 -2.265625zm-8.078125 -3.984375l8.109375 0q-0.15625 -1.828125 -0.921875 -2.75q-1.1875 -1.421875 -3.0625 -1.421875q-1.6875 0 -2.84375 1.140625q-1.15625 1.125 -1.28125 3.03125zm23.197266 6.859375q-1.375 1.171875 -2.640625 1.65625q-1.265625 0.46875 -2.71875 0.46875q-2.390625 0 -3.671875 -1.171875q-1.28125 -1.171875 -1.28125 -2.984375q0 -1.0625 0.484375 -1.9375q0.484375 -0.890625 1.265625 -1.421875q0.796875 -0.53125 1.78125 -0.8125q0.71875 -0.1875 2.1875 -0.375q2.96875 -0.34375 4.375 -0.84375q0.015625 -0.5 0.015625 -0.640625q0 -1.5 -0.6875 -2.125q-0.953125 -0.828125 -2.8125 -0.828125q-1.734375 0 -2.5625 0.609375q-0.828125 0.609375 -1.21875 2.15625l-2.40625 -0.328125q0.328125 -1.546875 1.078125 -2.5q0.75 -0.953125 2.171875 -1.453125q1.421875 -0.515625 3.296875 -0.515625q1.859375 0 3.015625 0.4375q1.171875 0.4375 1.71875 1.109375q0.546875 0.65625 0.765625 1.65625q0.125 0.640625 0.125 2.28125l0 3.28125q0 3.421875 0.15625 4.34375q0.15625 0.90625 0.625 1.734375l-2.578125 0q-0.375 -0.765625 -0.484375 -1.796875zm-0.21875 -5.484375q-1.328125 0.546875 -4.015625 0.921875q-1.515625 0.21875 -2.140625 0.5q-0.625 0.265625 -0.96875 0.796875q-0.34375 0.515625 -0.34375 1.171875q0 0.984375 0.734375 1.640625q0.75 0.65625 2.1875 0.65625q1.421875 0 2.53125 -0.625q1.109375 -0.625 1.625 -1.703125q0.390625 -0.84375 0.390625 -2.46875l0 -0.890625zm5.3222656 2.953125l2.4375 -0.390625q0.203125 1.46875 1.140625 2.25q0.9375 0.765625 2.625 0.765625q1.6875 0 2.5 -0.6875q0.828125 -0.6875 0.828125 -1.609375q0 -0.84375 -0.71875 -1.3125q-0.515625 -0.328125 -2.515625 -0.84375q-2.71875 -0.6875 -3.765625 -1.171875q-1.03125 -0.5 -1.578125 -1.375q-0.546875 -0.890625 -0.546875 -1.96875q0 -0.96875 0.4375 -1.796875q0.453125 -0.828125 1.21875 -1.375q0.578125 -0.421875 1.5625 -0.703125q1.0 -0.296875 2.140625 -0.296875q1.703125 0 2.984375 0.5q1.296875 0.484375 1.90625 1.328125q0.625 0.828125 0.859375 2.234375l-2.40625 0.328125q-0.171875 -1.109375 -0.953125 -1.734375q-0.78125 -0.640625 -2.21875 -0.640625q-1.703125 0 -2.421875 0.5625q-0.71875 0.5625 -0.71875 1.3125q0 0.484375 0.296875 0.859375q0.296875 0.40625 0.9375 0.65625q0.375 0.140625 2.171875 0.625q2.625 0.703125 3.65625 1.15625q1.03125 0.4375 1.609375 1.28125q0.59375 0.84375 0.59375 2.109375q0 1.234375 -0.71875 2.328125q-0.71875 1.078125 -2.078125 1.671875q-1.34375 0.59375 -3.0625 0.59375q-2.828125 0 -4.3125 -1.171875q-1.484375 -1.1875 -1.890625 -3.484375zm24.921875 -0.34375l2.546875 0.3125q-0.59375 2.21875 -2.234375 3.453125q-1.625 1.234375 -4.15625 1.234375q-3.171875 0 -5.046875 -1.953125q-1.859375 -1.96875 -1.859375 -5.515625q0 -3.65625 1.875 -5.671875q1.890625 -2.03125 4.90625 -2.03125q2.90625 0 4.75 1.984375q1.84375 1.96875 1.84375 5.578125q0 0.21875 -0.015625 0.65625l-10.828125 0q0.140625 2.390625 1.359375 3.65625q1.21875 1.265625 3.03125 1.265625q1.359375 0 2.3125 -0.703125q0.953125 -0.71875 1.515625 -2.265625zm-8.078125 -3.984375l8.109375 0q-0.15625 -1.828125 -0.921875 -2.75q-1.1875 -1.421875 -3.0625 -1.421875q-1.6875 0 -2.84375 1.140625q-1.15625 1.125 -1.28125 3.03125zm21.851562 8.65625l0 -20.046875l8.890625 0q2.671875 0 4.0625 0.546875q1.40625 0.53125 2.234375 1.90625q0.828125 1.359375 0.828125 3.015625q0 2.140625 -1.375 3.609375q-1.375 1.453125 -4.265625 1.84375q1.046875 0.515625 1.59375 1.0q1.171875 1.0625 2.203125 2.671875l3.484375 5.453125l-3.328125 0l-2.65625 -4.171875q-1.15625 -1.796875 -1.90625 -2.75q-0.75 -0.96875 -1.359375 -1.34375q-0.59375 -0.390625 -1.203125 -0.546875q-0.453125 -0.09375 -1.46875 -0.09375l-3.078125 0l0 8.90625l-2.65625 0zm2.65625 -11.203125l5.703125 0q1.8125 0 2.828125 -0.375q1.03125 -0.375 1.5625 -1.203125q0.53125 -0.828125 0.53125 -1.796875q0 -1.421875 -1.03125 -2.328125q-1.03125 -0.921875 -3.25 -0.921875l-6.34375 0l0 6.625zm27.142578 6.53125l2.546875 0.3125q-0.59375 2.21875 -2.234375 3.453125q-1.625 1.234375 -4.15625 1.234375q-3.171875 0 -5.046875 -1.953125q-1.859375 -1.96875 -1.859375 -5.515625q0 -3.65625 1.875 -5.671875q1.890625 -2.03125 4.90625 -2.03125q2.90625 0 4.75 1.984375q1.84375 1.96875 1.84375 5.578125q0 0.21875 -0.015625 0.65625l-10.828125 0q0.140625 2.390625 1.359375 3.65625q1.21875 1.265625 3.03125 1.265625q1.359375 0 2.3125 -0.703125q0.953125 -0.71875 1.515625 -2.265625zm-8.078125 -3.984375l8.109375 0q-0.15625 -1.828125 -0.921875 -2.75q-1.1875 -1.421875 -3.0625 -1.421875q-1.6875 0 -2.84375 1.140625q-1.15625 1.125 -1.28125 3.03125zm14.306641 8.65625l0 -12.609375l-2.171875 0l0 -1.90625l2.171875 0l0 -1.546875q0 -1.46875 0.25 -2.171875q0.359375 -0.96875 1.25 -1.5625q0.90625 -0.59375 2.515625 -0.59375q1.046875 0 2.296875 0.25l-0.375 2.140625q-0.765625 -0.125 -1.4375 -0.125q-1.125 0 -1.59375 0.484375q-0.46875 0.46875 -0.46875 1.78125l0 1.34375l2.84375 0l0 1.90625l-2.84375 0l0 12.609375l-2.4375 0zm7.154297 0l0 -14.515625l2.21875 0l0 2.203125q0.84375 -1.546875 1.5625 -2.03125q0.71875 -0.5 1.578125 -0.5q1.25 0 2.53125 0.78125l-0.84375 2.296875q-0.90625 -0.546875 -1.796875 -0.546875q-0.8125 0 -1.453125 0.5q-0.640625 0.484375 -0.921875 1.34375q-0.40625 1.3125 -0.40625 2.859375l0 7.609375l-2.46875 0zm9.371094 -17.21875l0 -2.828125l2.46875 0l0 2.828125l-2.46875 0zm0 17.21875l0 -14.515625l2.46875 0l0 14.515625l-2.46875 0zm5.751953 1.203125l2.390625 0.359375q0.15625 1.109375 0.84375 1.609375q0.90625 0.6875 2.5 0.6875q1.703125 0 2.625 -0.6875q0.9375 -0.6875 1.265625 -1.90625q0.203125 -0.765625 0.1875 -3.171875q-1.625 1.90625 -4.03125 1.90625q-2.984375 0 -4.625 -2.15625q-1.640625 -2.171875 -1.640625 -5.1875q0 -2.078125 0.75 -3.828125q0.75 -1.765625 2.171875 -2.71875q1.4375 -0.953125 3.359375 -0.953125q2.578125 0 4.25 2.078125l0 -1.75l2.265625 0l0 12.546875q0 3.390625 -0.703125 4.796875q-0.6875 1.421875 -2.1875 2.234375q-1.484375 0.828125 -3.671875 0.828125q-2.59375 0 -4.203125 -1.171875q-1.59375 -1.15625 -1.546875 -3.515625zm2.046875 -8.71875q0 2.859375 1.125 4.171875q1.140625 1.3125 2.84375 1.3125q1.703125 0 2.84375 -1.3125q1.15625 -1.3125 1.15625 -4.09375q0 -2.671875 -1.1875 -4.015625q-1.1875 -1.359375 -2.84375 -1.359375q-1.640625 0 -2.796875 1.34375q-1.140625 1.328125 -1.140625 3.953125zm23.916016 2.84375l2.546875 0.3125q-0.59375 2.21875 -2.234375 3.453125q-1.625 1.234375 -4.15625 1.234375q-3.171875 0 -5.046875 -1.953125q-1.859375 -1.96875 -1.859375 -5.515625q0 -3.65625 1.875 -5.671875q1.890625 -2.03125 4.90625 -2.03125q2.90625 0 4.75 1.984375q1.84375 1.96875 1.84375 5.578125q0 0.21875 -0.015625 0.65625l-10.828125 0q0.140625 2.390625 1.359375 3.65625q1.21875 1.265625 3.03125 1.265625q1.359375 0 2.3125 -0.703125q0.953125 -0.71875 1.515625 -2.265625zm-8.078125 -3.984375l8.109375 0q-0.15625 -1.828125 -0.921875 -2.75q-1.1875 -1.421875 -3.0625 -1.421875q-1.6875 0 -2.84375 1.140625q-1.15625 1.125 -1.28125 3.03125zm13.681641 8.65625l0 -14.515625l2.21875 0l0 2.203125q0.84375 -1.546875 1.5625 -2.03125q0.71875 -0.5 1.578125 -0.5q1.25 0 2.53125 0.78125l-0.84375 2.296875q-0.90625 -0.546875 -1.796875 -0.546875q-0.8125 0 -1.453125 0.5q-0.640625 0.484375 -0.921875 1.34375q-0.40625 1.3125 -0.40625 2.859375l0 7.609375l-2.46875 0zm18.839844 -1.796875q-1.375 1.171875 -2.640625 1.65625q-1.265625 0.46875 -2.71875 0.46875q-2.390625 0 -3.671875 -1.171875q-1.28125 -1.171875 -1.28125 -2.984375q0 -1.0625 0.484375 -1.9375q0.484375 -0.890625 1.265625 -1.421875q0.796875 -0.53125 1.78125 -0.8125q0.71875 -0.1875 2.1875 -0.375q2.96875 -0.34375 4.375 -0.84375q0.015625 -0.5 0.015625 -0.640625q0 -1.5 -0.6875 -2.125q-0.953125 -0.828125 -2.8125 -0.828125q-1.734375 0 -2.5625 0.609375q-0.828125 0.609375 -1.21875 2.15625l-2.40625 -0.328125q0.328125 -1.546875 1.078125 -2.5q0.75 -0.953125 2.171875 -1.453125q1.421875 -0.515625 3.296875 -0.515625q1.859375 0 3.015625 0.4375q1.171875 0.4375 1.71875 1.109375q0.546875 0.65625 0.765625 1.65625q0.125 0.640625 0.125 2.28125l0 3.28125q0 3.421875 0.15625 4.34375q0.15625 0.90625 0.625 1.734375l-2.578125 0q-0.375 -0.765625 -0.484375 -1.796875zm-0.21875 -5.484375q-1.328125 0.546875 -4.015625 0.921875q-1.515625 0.21875 -2.140625 0.5q-0.625 0.265625 -0.96875 0.796875q-0.34375 0.515625 -0.34375 1.171875q0 0.984375 0.734375 1.640625q0.75 0.65625 2.1875 0.65625q1.421875 0 2.53125 -0.625q1.109375 -0.625 1.625 -1.703125q0.390625 -0.84375 0.390625 -2.46875l0 -0.890625zm11.681641 5.078125l0.359375 2.171875q-1.046875 0.21875 -1.859375 0.21875q-1.34375 0 -2.078125 -0.421875q-0.734375 -0.421875 -1.046875 -1.109375q-0.296875 -0.6875 -0.296875 -2.90625l0 -8.359375l-1.796875 0l0 -1.90625l1.796875 0l0 -3.59375l2.453125 -1.484375l0 5.078125l2.46875 0l0 1.90625l-2.46875 0l0 8.5q0 1.046875 0.125 1.34375q0.125 0.296875 0.421875 0.484375q0.296875 0.171875 0.84375 0.171875q0.40625 0 1.078125 -0.09375zm1.4980469 -5.0625q0 -4.03125 2.234375 -5.96875q1.875 -1.609375 4.5625 -1.609375q3.0 0 4.890625 1.96875q1.90625 1.953125 1.90625 5.40625q0 2.8125 -0.84375 4.421875q-0.828125 1.59375 -2.4375 2.484375q-1.609375 0.890625 -3.515625 0.890625q-3.046875 0 -4.921875 -1.953125q-1.875 -1.953125 -1.875 -5.640625zm2.515625 0q0 2.796875 1.21875 4.1875q1.21875 1.375 3.0625 1.375q1.84375 0 3.046875 -1.390625q1.21875 -1.390625 1.21875 -4.25q0 -2.6875 -1.21875 -4.078125q-1.21875 -1.390625 -3.046875 -1.390625q-1.84375 0 -3.0625 1.390625q-1.21875 1.375 -1.21875 4.15625zm13.931641 7.265625l0 -14.515625l2.21875 0l0 2.203125q0.84375 -1.546875 1.5625 -2.03125q0.71875 -0.5 1.578125 -0.5q1.25 0 2.53125 0.78125l-0.84375 2.296875q-0.90625 -0.546875 -1.796875 -0.546875q-0.8125 0 -1.453125 0.5q-0.640625 0.484375 -0.921875 1.34375q-0.40625 1.3125 -0.40625 2.859375l0 7.609375l-2.46875 0z" fill-rule="nonzero"></path></g></svg>

